G04 start of page 4 for group 2 idx 2 *
G04 Title: Stand for Heart, outline *
G04 Creator: pcb 4.0.2 *
G04 CreationDate: Wed Apr  3 11:17:26 2019 UTC *
G04 For: alez *
G04 Format: Gerber/RS-274X *
G04 PCB-Dimensions (mil): 3346.46 4724.41 *
G04 PCB-Coordinate-Origin: lower left *
%MOIN*%
%FSLAX25Y25*%
%LNOUTLINE*%
%ADD28C,0.0163*%
%ADD27C,0.0100*%
%ADD26C,0.0118*%
%ADD25C,0.0111*%
G54D25*X324556Y298257D02*X322407Y317490D01*
X316125Y342446D01*
X324556Y298257D02*Y7393D01*
X9598D02*X324556D01*
G54D26*X9433Y7491D02*X36598Y107885D01*
X112582Y87412D01*
G54D27*X312042Y19312D02*X188247D01*
G54D25*X112571Y87472D02*X202122Y421678D01*
G54D27*X188247Y248038D02*X312042D01*
Y19312D01*
X188247D02*Y248038D01*
G54D25*X316125Y342446D02*X305920Y366068D01*
X295915Y382632D01*
X292014Y387715D01*
X288108Y392804D01*
X274701Y406753D01*
X254525Y422725D01*
X232043Y435258D01*
X214025Y442306D01*
X207835Y443960D01*
X118457Y444096D02*X121045Y453758D01*
G54D26*X129905Y456703D02*X122425Y458672D01*
X201952Y421664D02*X118488Y444105D01*
X120850Y453948D02*X128724Y451585D01*
G54D25*X122342Y458588D02*X124409Y466313D01*
G54D26*X124393Y466152D02*X207858Y444105D01*
X128724Y451585D02*X129905Y456703D01*
G54D28*X216856Y121041D02*X222160D01*
X214000Y123897D02*X216856Y121041D01*
X214000Y134505D02*Y123897D01*
Y134505D02*X216856Y137361D01*
X222160D01*
X227056D02*Y123081D01*
X229096Y121041D01*
X233176D01*
X235216Y123081D01*
Y137361D02*Y123081D01*
X240112Y137361D02*X248272D01*
X244192D02*Y121041D01*
X253168Y135321D02*Y123081D01*
Y135321D02*X255208Y137361D01*
X259288D01*
X261328Y135321D01*
Y123081D01*
X259288Y121041D02*X261328Y123081D01*
X255208Y121041D02*X259288D01*
X253168Y123081D02*X255208Y121041D01*
X266224Y137361D02*Y123081D01*
X268264Y121041D01*
X272344D01*
X274384Y123081D01*
Y137361D02*Y123081D01*
X279280Y137361D02*X287440D01*
X283360D02*Y121041D01*
M02*
