G04 start of page 11 for group -3984 idx -3984 *
G04 Title: Stand for Heart, fab *
G04 Creator: pcb 4.0.2 *
G04 CreationDate: Wed Apr  3 11:17:26 2019 UTC *
G04 For: alez *
G04 Format: Gerber/RS-274X *
G04 PCB-Dimensions (mil): 3346.46 4724.41 *
G04 PCB-Coordinate-Origin: lower left *
%MOIN*%
%FSLAX25Y25*%
%LNFAB*%
%ADD50C,0.0163*%
%ADD49C,0.0100*%
%ADD48C,0.0075*%
%ADD47C,0.0060*%
%ADD46R,0.0080X0.0080*%
G54D46*X244000Y294041D02*Y290841D01*
X242400Y292441D02*X245600D01*
X254000Y294041D02*Y290841D01*
X252400Y292441D02*X255600D01*
X15000Y515291D02*Y512091D01*
X13400Y513691D02*X16600D01*
G54D47*X135000Y515941D02*X136500Y512941D01*
X138000Y515941D01*
X136500Y512941D02*Y509941D01*
X139800Y513241D02*X142050D01*
X139800Y509941D02*X142800D01*
X139800Y515941D02*Y509941D01*
Y515941D02*X142800D01*
X147600D02*X148350Y515191D01*
X145350Y515941D02*X147600D01*
X144600Y515191D02*X145350Y515941D01*
X144600Y515191D02*Y513691D01*
X145350Y512941D01*
X147600D01*
X148350Y512191D01*
Y510691D01*
X147600Y509941D02*X148350Y510691D01*
X145350Y509941D02*X147600D01*
X144600Y510691D02*X145350Y509941D01*
X98000Y515191D02*X98750Y515941D01*
X101000D01*
X101750Y515191D01*
Y513691D01*
X98000Y509941D02*X101750Y513691D01*
X98000Y509941D02*X101750D01*
X45000Y510691D02*X45750Y509941D01*
X45000Y515191D02*Y510691D01*
Y515191D02*X45750Y515941D01*
X47250D01*
X48000Y515191D01*
Y510691D01*
X47250Y509941D02*X48000Y510691D01*
X45750Y509941D02*X47250D01*
X45000Y511441D02*X48000Y514441D01*
X49800Y509941D02*X50550D01*
X52350Y510691D02*X53100Y509941D01*
X52350Y515191D02*Y510691D01*
Y515191D02*X53100Y515941D01*
X54600D01*
X55350Y515191D01*
Y510691D01*
X54600Y509941D02*X55350Y510691D01*
X53100Y509941D02*X54600D01*
X52350Y511441D02*X55350Y514441D01*
X57150Y515191D02*X57900Y515941D01*
X59400D01*
X60150Y515191D01*
X59400Y509941D02*X60150Y510691D01*
X57900Y509941D02*X59400D01*
X57150Y510691D02*X57900Y509941D01*
Y513241D02*X59400D01*
X60150Y515191D02*Y513991D01*
Y512491D02*Y510691D01*
Y512491D02*X59400Y513241D01*
X60150Y513991D02*X59400Y513241D01*
X61950Y510691D02*X62700Y509941D01*
X61950Y511891D02*Y510691D01*
Y511891D02*X63000Y512941D01*
X63900D01*
X64950Y511891D01*
Y510691D01*
X64200Y509941D02*X64950Y510691D01*
X62700Y509941D02*X64200D01*
X61950Y513991D02*X63000Y512941D01*
X61950Y515191D02*Y513991D01*
Y515191D02*X62700Y515941D01*
X64200D01*
X64950Y515191D01*
Y513991D01*
X63900Y512941D02*X64950Y513991D01*
X134000Y451441D02*Y449841D01*
Y451441D02*X135387Y452241D01*
X134000Y451441D02*X132613Y452241D01*
X136000Y458441D02*Y456841D01*
Y458441D02*X137387Y459241D01*
X136000Y458441D02*X134613Y459241D01*
X132000Y444441D02*Y442841D01*
Y444441D02*X133387Y445241D01*
X132000Y444441D02*X130613Y445241D01*
X38000Y73441D02*Y71841D01*
Y73441D02*X39387Y74241D01*
X38000Y73441D02*X36613Y74241D01*
X42000Y86441D02*Y84841D01*
Y86441D02*X43387Y87241D01*
X42000Y86441D02*X40613Y87241D01*
X34000Y57441D02*Y55841D01*
Y57441D02*X35387Y58241D01*
X34000Y57441D02*X32613Y58241D01*
X30000Y43441D02*Y41841D01*
Y43441D02*X31387Y44241D01*
X30000Y43441D02*X28613Y44241D01*
X26000Y28441D02*Y26841D01*
Y28441D02*X27387Y29241D01*
X26000Y28441D02*X24613Y29241D01*
X15000Y528691D02*Y527091D01*
Y528691D02*X16387Y529491D01*
X15000Y528691D02*X13613Y529491D01*
X135000Y530941D02*X136500Y527941D01*
X138000Y530941D01*
X136500Y527941D02*Y524941D01*
X139800Y528241D02*X142050D01*
X139800Y524941D02*X142800D01*
X139800Y530941D02*Y524941D01*
Y530941D02*X142800D01*
X147600D02*X148350Y530191D01*
X145350Y530941D02*X147600D01*
X144600Y530191D02*X145350Y530941D01*
X144600Y530191D02*Y528691D01*
X145350Y527941D01*
X147600D01*
X148350Y527191D01*
Y525691D01*
X147600Y524941D02*X148350Y525691D01*
X145350Y524941D02*X147600D01*
X144600Y525691D02*X145350Y524941D01*
X98000Y525691D02*X98750Y524941D01*
X98000Y526891D02*Y525691D01*
Y526891D02*X99050Y527941D01*
X99950D01*
X101000Y526891D01*
Y525691D01*
X100250Y524941D02*X101000Y525691D01*
X98750Y524941D02*X100250D01*
X98000Y528991D02*X99050Y527941D01*
X98000Y530191D02*Y528991D01*
Y530191D02*X98750Y530941D01*
X100250D01*
X101000Y530191D01*
Y528991D01*
X99950Y527941D02*X101000Y528991D01*
X45000Y525691D02*X45750Y524941D01*
X45000Y530191D02*Y525691D01*
Y530191D02*X45750Y530941D01*
X47250D01*
X48000Y530191D01*
Y525691D01*
X47250Y524941D02*X48000Y525691D01*
X45750Y524941D02*X47250D01*
X45000Y526441D02*X48000Y529441D01*
X49800Y524941D02*X50550D01*
X52350Y525691D02*X53100Y524941D01*
X52350Y530191D02*Y525691D01*
Y530191D02*X53100Y530941D01*
X54600D01*
X55350Y530191D01*
Y525691D01*
X54600Y524941D02*X55350Y525691D01*
X53100Y524941D02*X54600D01*
X52350Y526441D02*X55350Y529441D01*
X57150Y530191D02*X57900Y530941D01*
X60150D01*
X60900Y530191D01*
Y528691D01*
X57150Y524941D02*X60900Y528691D01*
X57150Y524941D02*X60900D01*
X62700Y525691D02*X63450Y524941D01*
X62700Y530191D02*Y525691D01*
Y530191D02*X63450Y530941D01*
X64950D01*
X65700Y530191D01*
Y525691D01*
X64950Y524941D02*X65700Y525691D01*
X63450Y524941D02*X64950D01*
X62700Y526441D02*X65700Y529441D01*
X3000Y545941D02*X3750Y545191D01*
X750Y545941D02*X3000D01*
X0Y545191D02*X750Y545941D01*
X0Y545191D02*Y543691D01*
X750Y542941D01*
X3000D01*
X3750Y542191D01*
Y540691D01*
X3000Y539941D02*X3750Y540691D01*
X750Y539941D02*X3000D01*
X0Y540691D02*X750Y539941D01*
X5550Y542941D02*Y540691D01*
X6300Y539941D01*
X8550Y542941D02*Y538441D01*
X7800Y537691D02*X8550Y538441D01*
X6300Y537691D02*X7800D01*
X5550Y538441D02*X6300Y537691D01*
Y539941D02*X7800D01*
X8550Y540691D01*
X11100Y542191D02*Y539941D01*
Y542191D02*X11850Y542941D01*
X12600D01*
X13350Y542191D01*
Y539941D01*
Y542191D02*X14100Y542941D01*
X14850D01*
X15600Y542191D01*
Y539941D01*
X10350Y542941D02*X11100Y542191D01*
X17400Y545941D02*Y539941D01*
Y540691D02*X18150Y539941D01*
X19650D01*
X20400Y540691D01*
Y542191D02*Y540691D01*
X19650Y542941D02*X20400Y542191D01*
X18150Y542941D02*X19650D01*
X17400Y542191D02*X18150Y542941D01*
X22200Y542191D02*Y540691D01*
Y542191D02*X22950Y542941D01*
X24450D01*
X25200Y542191D01*
Y540691D01*
X24450Y539941D02*X25200Y540691D01*
X22950Y539941D02*X24450D01*
X22200Y540691D02*X22950Y539941D01*
X27000Y545941D02*Y540691D01*
X27750Y539941D01*
X0Y536691D02*X29250D01*
X41750Y545941D02*Y539941D01*
X43700Y545941D02*X44750Y544891D01*
Y540991D01*
X43700Y539941D02*X44750Y540991D01*
X41000Y539941D02*X43700D01*
X41000Y545941D02*X43700D01*
G54D48*X46550Y544441D02*Y544291D01*
G54D47*Y542191D02*Y539941D01*
X50300Y542941D02*X51050Y542191D01*
X48800Y542941D02*X50300D01*
X48050Y542191D02*X48800Y542941D01*
X48050Y542191D02*Y540691D01*
X48800Y539941D01*
X51050Y542941D02*Y540691D01*
X51800Y539941D01*
X48800D02*X50300D01*
X51050Y540691D01*
X54350Y542191D02*Y539941D01*
Y542191D02*X55100Y542941D01*
X55850D01*
X56600Y542191D01*
Y539941D01*
Y542191D02*X57350Y542941D01*
X58100D01*
X58850Y542191D01*
Y539941D01*
X53600Y542941D02*X54350Y542191D01*
X60650Y539941D02*X61400D01*
X65900Y540691D02*X66650Y539941D01*
X65900Y545191D02*X66650Y545941D01*
X65900Y545191D02*Y540691D01*
X68450Y545941D02*X69950D01*
X69200D02*Y539941D01*
X68450D02*X69950D01*
X72500Y542191D02*Y539941D01*
Y542191D02*X73250Y542941D01*
X74000D01*
X74750Y542191D01*
Y539941D01*
X71750Y542941D02*X72500Y542191D01*
X77300Y542941D02*X79550D01*
X76550Y542191D02*X77300Y542941D01*
X76550Y542191D02*Y540691D01*
X77300Y539941D01*
X79550D01*
X81350Y545941D02*Y539941D01*
Y542191D02*X82100Y542941D01*
X83600D01*
X84350Y542191D01*
Y539941D01*
X86150Y545941D02*X86900Y545191D01*
Y540691D01*
X86150Y539941D02*X86900Y540691D01*
X41000Y536691D02*X88700D01*
X96050Y539941D02*X98000D01*
X95000Y540991D02*X96050Y539941D01*
X95000Y544891D02*Y540991D01*
Y544891D02*X96050Y545941D01*
X98000D01*
X99800Y542191D02*Y540691D01*
Y542191D02*X100550Y542941D01*
X102050D01*
X102800Y542191D01*
Y540691D01*
X102050Y539941D02*X102800Y540691D01*
X100550Y539941D02*X102050D01*
X99800Y540691D02*X100550Y539941D01*
X104600Y542941D02*Y540691D01*
X105350Y539941D01*
X106850D01*
X107600Y540691D01*
Y542941D02*Y540691D01*
X110150Y542191D02*Y539941D01*
Y542191D02*X110900Y542941D01*
X111650D01*
X112400Y542191D01*
Y539941D01*
X109400Y542941D02*X110150Y542191D01*
X114950Y545941D02*Y540691D01*
X115700Y539941D01*
X114200Y543691D02*X115700D01*
X95000Y536691D02*X117200D01*
X130750Y545941D02*Y539941D01*
X130000Y545941D02*X133000D01*
X133750Y545191D01*
Y543691D01*
X133000Y542941D02*X133750Y543691D01*
X130750Y542941D02*X133000D01*
X135550Y545941D02*Y540691D01*
X136300Y539941D01*
X140050Y542941D02*X140800Y542191D01*
X138550Y542941D02*X140050D01*
X137800Y542191D02*X138550Y542941D01*
X137800Y542191D02*Y540691D01*
X138550Y539941D01*
X140800Y542941D02*Y540691D01*
X141550Y539941D01*
X138550D02*X140050D01*
X140800Y540691D01*
X144100Y545941D02*Y540691D01*
X144850Y539941D01*
X143350Y543691D02*X144850D01*
X147100Y539941D02*X149350D01*
X146350Y540691D02*X147100Y539941D01*
X146350Y542191D02*Y540691D01*
Y542191D02*X147100Y542941D01*
X148600D01*
X149350Y542191D01*
X146350Y541441D02*X149350D01*
Y542191D02*Y541441D01*
X154150Y545941D02*Y539941D01*
X153400D02*X154150Y540691D01*
X151900Y539941D02*X153400D01*
X151150Y540691D02*X151900Y539941D01*
X151150Y542191D02*Y540691D01*
Y542191D02*X151900Y542941D01*
X153400D01*
X154150Y542191D01*
X157450Y542941D02*Y542191D01*
Y540691D02*Y539941D01*
X155950Y545191D02*Y544441D01*
Y545191D02*X156700Y545941D01*
X158200D01*
X158950Y545191D01*
Y544441D01*
X157450Y542941D02*X158950Y544441D01*
X130000Y536691D02*X160750D01*
X0Y560941D02*X3000D01*
X1500D02*Y554941D01*
X4800Y560941D02*Y554941D01*
Y557191D02*X5550Y557941D01*
X7050D01*
X7800Y557191D01*
Y554941D01*
X10350D02*X12600D01*
X9600Y555691D02*X10350Y554941D01*
X9600Y557191D02*Y555691D01*
Y557191D02*X10350Y557941D01*
X11850D01*
X12600Y557191D01*
X9600Y556441D02*X12600D01*
Y557191D02*Y556441D01*
X15150Y557191D02*Y554941D01*
Y557191D02*X15900Y557941D01*
X17400D01*
X14400D02*X15150Y557191D01*
X19950Y554941D02*X22200D01*
X19200Y555691D02*X19950Y554941D01*
X19200Y557191D02*Y555691D01*
Y557191D02*X19950Y557941D01*
X21450D01*
X22200Y557191D01*
X19200Y556441D02*X22200D01*
Y557191D02*Y556441D01*
X28950Y557941D02*X29700Y557191D01*
X27450Y557941D02*X28950D01*
X26700Y557191D02*X27450Y557941D01*
X26700Y557191D02*Y555691D01*
X27450Y554941D01*
X29700Y557941D02*Y555691D01*
X30450Y554941D01*
X27450D02*X28950D01*
X29700Y555691D01*
X33000Y557191D02*Y554941D01*
Y557191D02*X33750Y557941D01*
X35250D01*
X32250D02*X33000Y557191D01*
X37800Y554941D02*X40050D01*
X37050Y555691D02*X37800Y554941D01*
X37050Y557191D02*Y555691D01*
Y557191D02*X37800Y557941D01*
X39300D01*
X40050Y557191D01*
X37050Y556441D02*X40050D01*
Y557191D02*Y556441D01*
X44550Y560191D02*X45300Y560941D01*
X47550D01*
X48300Y560191D01*
Y558691D01*
X44550Y554941D02*X48300Y558691D01*
X44550Y554941D02*X48300D01*
X55800Y560941D02*Y554941D01*
X55050D02*X55800Y555691D01*
X53550Y554941D02*X55050D01*
X52800Y555691D02*X53550Y554941D01*
X52800Y557191D02*Y555691D01*
Y557191D02*X53550Y557941D01*
X55050D01*
X55800Y557191D01*
G54D48*X57600Y559441D02*Y559291D01*
G54D47*Y557191D02*Y554941D01*
X59850Y560191D02*Y554941D01*
Y560191D02*X60600Y560941D01*
X61350D01*
X59100Y557941D02*X60600D01*
X63600Y560191D02*Y554941D01*
Y560191D02*X64350Y560941D01*
X65100D01*
X62850Y557941D02*X64350D01*
X67350Y554941D02*X69600D01*
X66600Y555691D02*X67350Y554941D01*
X66600Y557191D02*Y555691D01*
Y557191D02*X67350Y557941D01*
X68850D01*
X69600Y557191D01*
X66600Y556441D02*X69600D01*
Y557191D02*Y556441D01*
X72150Y557191D02*Y554941D01*
Y557191D02*X72900Y557941D01*
X74400D01*
X71400D02*X72150Y557191D01*
X76950Y554941D02*X79200D01*
X76200Y555691D02*X76950Y554941D01*
X76200Y557191D02*Y555691D01*
Y557191D02*X76950Y557941D01*
X78450D01*
X79200Y557191D01*
X76200Y556441D02*X79200D01*
Y557191D02*Y556441D01*
X81750Y557191D02*Y554941D01*
Y557191D02*X82500Y557941D01*
X83250D01*
X84000Y557191D01*
Y554941D01*
X81000Y557941D02*X81750Y557191D01*
X86550Y560941D02*Y555691D01*
X87300Y554941D01*
X85800Y558691D02*X87300D01*
X94500Y560941D02*Y554941D01*
X93750D02*X94500Y555691D01*
X92250Y554941D02*X93750D01*
X91500Y555691D02*X92250Y554941D01*
X91500Y557191D02*Y555691D01*
Y557191D02*X92250Y557941D01*
X93750D01*
X94500Y557191D01*
X97050D02*Y554941D01*
Y557191D02*X97800Y557941D01*
X99300D01*
X96300D02*X97050Y557191D01*
G54D48*X101100Y559441D02*Y559291D01*
G54D47*Y557191D02*Y554941D01*
X102600Y560941D02*Y555691D01*
X103350Y554941D01*
X104850Y560941D02*Y555691D01*
X105600Y554941D01*
X110550D02*X112800D01*
X113550Y555691D01*
X112800Y556441D02*X113550Y555691D01*
X110550Y556441D02*X112800D01*
X109800Y557191D02*X110550Y556441D01*
X109800Y557191D02*X110550Y557941D01*
X112800D01*
X113550Y557191D01*
X109800Y555691D02*X110550Y554941D01*
G54D48*X115350Y559441D02*Y559291D01*
G54D47*Y557191D02*Y554941D01*
X116850Y557941D02*X119850D01*
X116850Y554941D02*X119850Y557941D01*
X116850Y554941D02*X119850D01*
X122400D02*X124650D01*
X121650Y555691D02*X122400Y554941D01*
X121650Y557191D02*Y555691D01*
Y557191D02*X122400Y557941D01*
X123900D01*
X124650Y557191D01*
X121650Y556441D02*X124650D01*
Y557191D02*Y556441D01*
X127200Y554941D02*X129450D01*
X130200Y555691D01*
X129450Y556441D02*X130200Y555691D01*
X127200Y556441D02*X129450D01*
X126450Y557191D02*X127200Y556441D01*
X126450Y557191D02*X127200Y557941D01*
X129450D01*
X130200Y557191D01*
X126450Y555691D02*X127200Y554941D01*
X134700Y557941D02*Y555691D01*
X135450Y554941D01*
X136950D01*
X137700Y555691D01*
Y557941D02*Y555691D01*
X140250Y554941D02*X142500D01*
X143250Y555691D01*
X142500Y556441D02*X143250Y555691D01*
X140250Y556441D02*X142500D01*
X139500Y557191D02*X140250Y556441D01*
X139500Y557191D02*X140250Y557941D01*
X142500D01*
X143250Y557191D01*
X139500Y555691D02*X140250Y554941D01*
X145800D02*X148050D01*
X145050Y555691D02*X145800Y554941D01*
X145050Y557191D02*Y555691D01*
Y557191D02*X145800Y557941D01*
X147300D01*
X148050Y557191D01*
X145050Y556441D02*X148050D01*
Y557191D02*Y556441D01*
X152850Y560941D02*Y554941D01*
X152100D02*X152850Y555691D01*
X150600Y554941D02*X152100D01*
X149850Y555691D02*X150600Y554941D01*
X149850Y557191D02*Y555691D01*
Y557191D02*X150600Y557941D01*
X152100D01*
X152850Y557191D01*
G54D48*X157350Y559441D02*Y559291D01*
G54D47*Y557191D02*Y554941D01*
X159600Y557191D02*Y554941D01*
Y557191D02*X160350Y557941D01*
X161100D01*
X161850Y557191D01*
Y554941D01*
X158850Y557941D02*X159600Y557191D01*
X167100Y560941D02*Y555691D01*
X167850Y554941D01*
X166350Y558691D02*X167850D01*
X169350Y560941D02*Y554941D01*
Y557191D02*X170100Y557941D01*
X171600D01*
X172350Y557191D01*
Y554941D01*
G54D48*X174150Y559441D02*Y559291D01*
G54D47*Y557191D02*Y554941D01*
X176400D02*X178650D01*
X179400Y555691D01*
X178650Y556441D02*X179400Y555691D01*
X176400Y556441D02*X178650D01*
X175650Y557191D02*X176400Y556441D01*
X175650Y557191D02*X176400Y557941D01*
X178650D01*
X179400Y557191D01*
X175650Y555691D02*X176400Y554941D01*
X183900Y560941D02*Y555691D01*
X184650Y554941D01*
X188400Y557941D02*X189150Y557191D01*
X186900Y557941D02*X188400D01*
X186150Y557191D02*X186900Y557941D01*
X186150Y557191D02*Y555691D01*
X186900Y554941D01*
X189150Y557941D02*Y555691D01*
X189900Y554941D01*
X186900D02*X188400D01*
X189150Y555691D01*
X191700Y557941D02*Y555691D01*
X192450Y554941D01*
X194700Y557941D02*Y553441D01*
X193950Y552691D02*X194700Y553441D01*
X192450Y552691D02*X193950D01*
X191700Y553441D02*X192450Y552691D01*
Y554941D02*X193950D01*
X194700Y555691D01*
X196500Y557191D02*Y555691D01*
Y557191D02*X197250Y557941D01*
X198750D01*
X199500Y557191D01*
Y555691D01*
X198750Y554941D02*X199500Y555691D01*
X197250Y554941D02*X198750D01*
X196500Y555691D02*X197250Y554941D01*
X201300Y557941D02*Y555691D01*
X202050Y554941D01*
X203550D01*
X204300Y555691D01*
Y557941D02*Y555691D01*
X206850Y560941D02*Y555691D01*
X207600Y554941D01*
X206100Y558691D02*X207600D01*
X209100Y553441D02*X210600Y554941D01*
X215100Y559741D02*X216300Y560941D01*
Y554941D01*
X215100D02*X217350D01*
X219150Y555691D02*X219900Y554941D01*
X219150Y560191D02*Y555691D01*
Y560191D02*X219900Y560941D01*
X221400D01*
X222150Y560191D01*
Y555691D01*
X221400Y554941D02*X222150Y555691D01*
X219900Y554941D02*X221400D01*
X219150Y556441D02*X222150Y559441D01*
X226650Y560941D02*Y554941D01*
Y557191D02*X227400Y557941D01*
X228900D01*
X229650Y557191D01*
Y554941D01*
X231450Y557191D02*Y555691D01*
Y557191D02*X232200Y557941D01*
X233700D01*
X234450Y557191D01*
Y555691D01*
X233700Y554941D02*X234450Y555691D01*
X232200Y554941D02*X233700D01*
X231450Y555691D02*X232200Y554941D01*
X236250Y560941D02*Y555691D01*
X237000Y554941D01*
X239250D02*X241500D01*
X238500Y555691D02*X239250Y554941D01*
X238500Y557191D02*Y555691D01*
Y557191D02*X239250Y557941D01*
X240750D01*
X241500Y557191D01*
X238500Y556441D02*X241500D01*
Y557191D02*Y556441D01*
X244050Y554941D02*X246300D01*
X247050Y555691D01*
X246300Y556441D02*X247050Y555691D01*
X244050Y556441D02*X246300D01*
X243300Y557191D02*X244050Y556441D01*
X243300Y557191D02*X244050Y557941D01*
X246300D01*
X247050Y557191D01*
X243300Y555691D02*X244050Y554941D01*
X252300Y560941D02*Y555691D01*
X253050Y554941D01*
X251550Y558691D02*X253050D01*
X254550Y557191D02*Y555691D01*
Y557191D02*X255300Y557941D01*
X256800D01*
X257550Y557191D01*
Y555691D01*
X256800Y554941D02*X257550Y555691D01*
X255300Y554941D02*X256800D01*
X254550Y555691D02*X255300Y554941D01*
X260100Y560941D02*Y555691D01*
X260850Y554941D01*
X259350Y558691D02*X260850D01*
X264600Y557941D02*X265350Y557191D01*
X263100Y557941D02*X264600D01*
X262350Y557191D02*X263100Y557941D01*
X262350Y557191D02*Y555691D01*
X263100Y554941D01*
X265350Y557941D02*Y555691D01*
X266100Y554941D01*
X263100D02*X264600D01*
X265350Y555691D01*
X267900Y560941D02*Y555691D01*
X268650Y554941D01*
G54D49*X324556Y298257D02*X322407Y317490D01*
X316125Y342446D01*
X305920Y366068D01*
X295915Y382632D01*
X292014Y387715D01*
X288108Y392804D01*
X274701Y406753D01*
X254525Y422725D01*
X232043Y435258D01*
X214025Y442306D01*
X207835Y443960D01*
X324556Y298257D02*Y7393D01*
X9598D02*X324556D01*
X118457Y444096D02*X121045Y453758D01*
X122342Y458588D02*X124409Y466313D01*
X112571Y87472D02*X202122Y421678D01*
X124393Y466152D02*X207858Y444105D01*
X9433Y7491D02*X36598Y107885D01*
X129905Y456703D02*X122425Y458672D01*
X201952Y421664D02*X118488Y444105D01*
X36598Y107885D02*X112582Y87412D01*
X128724Y451585D02*X129905Y456703D01*
X120850Y453948D02*X128724Y451585D01*
X188247Y248038D02*X312042D01*
Y19312D01*
X188247D01*
Y248038D01*
G54D50*X216856Y121041D02*X222160D01*
X214000Y123897D02*X216856Y121041D01*
X214000Y134505D02*Y123897D01*
Y134505D02*X216856Y137361D01*
X222160D01*
X227056D02*Y123081D01*
X229096Y121041D01*
X233176D01*
X235216Y123081D01*
Y137361D02*Y123081D01*
X240112Y137361D02*X248272D01*
X244192D02*Y121041D01*
X253168Y135321D02*Y123081D01*
Y135321D02*X255208Y137361D01*
X259288D01*
X261328Y135321D01*
Y123081D01*
X259288Y121041D02*X261328Y123081D01*
X255208Y121041D02*X259288D01*
X253168Y123081D02*X255208Y121041D01*
X266224Y137361D02*Y123081D01*
X268264Y121041D01*
X272344D01*
X274384Y123081D01*
Y137361D02*Y123081D01*
X279280Y137361D02*X287440D01*
X283360D02*Y121041D01*
G54D47*X80998Y-9500D02*X83998D01*
X84748Y-8750D01*
Y-6950D02*Y-8750D01*
X83998Y-6200D02*X84748Y-6950D01*
X81748Y-6200D02*X83998D01*
X81748Y-3500D02*Y-9500D01*
X80998Y-3500D02*X83998D01*
X84748Y-4250D01*
Y-5450D01*
X83998Y-6200D02*X84748Y-5450D01*
X86548Y-7250D02*Y-8750D01*
Y-7250D02*X87298Y-6500D01*
X88798D01*
X89548Y-7250D01*
Y-8750D01*
X88798Y-9500D02*X89548Y-8750D01*
X87298Y-9500D02*X88798D01*
X86548Y-8750D02*X87298Y-9500D01*
X93598Y-6500D02*X94348Y-7250D01*
X92098Y-6500D02*X93598D01*
X91348Y-7250D02*X92098Y-6500D01*
X91348Y-7250D02*Y-8750D01*
X92098Y-9500D01*
X94348Y-6500D02*Y-8750D01*
X95098Y-9500D01*
X92098D02*X93598D01*
X94348Y-8750D01*
X97648Y-7250D02*Y-9500D01*
Y-7250D02*X98398Y-6500D01*
X99898D01*
X96898D02*X97648Y-7250D01*
X104698Y-3500D02*Y-9500D01*
X103948D02*X104698Y-8750D01*
X102448Y-9500D02*X103948D01*
X101698Y-8750D02*X102448Y-9500D01*
X101698Y-7250D02*Y-8750D01*
Y-7250D02*X102448Y-6500D01*
X103948D01*
X104698Y-7250D01*
X109198D02*Y-8750D01*
Y-7250D02*X109948Y-6500D01*
X111448D01*
X112198Y-7250D01*
Y-8750D01*
X111448Y-9500D02*X112198Y-8750D01*
X109948Y-9500D02*X111448D01*
X109198Y-8750D02*X109948Y-9500D01*
X113998Y-6500D02*Y-8750D01*
X114748Y-9500D01*
X116248D01*
X116998Y-8750D01*
Y-6500D02*Y-8750D01*
X119548Y-3500D02*Y-8750D01*
X120298Y-9500D01*
X118798Y-5750D02*X120298D01*
X121798Y-3500D02*Y-8750D01*
X122548Y-9500D01*
G54D48*X124048Y-5000D02*Y-5150D01*
G54D47*Y-7250D02*Y-9500D01*
X126298Y-7250D02*Y-9500D01*
Y-7250D02*X127048Y-6500D01*
X127798D01*
X128548Y-7250D01*
Y-9500D01*
X125548Y-6500D02*X126298Y-7250D01*
X131098Y-9500D02*X133348D01*
X130348Y-8750D02*X131098Y-9500D01*
X130348Y-7250D02*Y-8750D01*
Y-7250D02*X131098Y-6500D01*
X132598D01*
X133348Y-7250D01*
X130348Y-8000D02*X133348D01*
Y-7250D02*Y-8000D01*
G54D48*X137848Y-5000D02*Y-5150D01*
G54D47*Y-7250D02*Y-9500D01*
X140098D02*X142348D01*
X143098Y-8750D01*
X142348Y-8000D02*X143098Y-8750D01*
X140098Y-8000D02*X142348D01*
X139348Y-7250D02*X140098Y-8000D01*
X139348Y-7250D02*X140098Y-6500D01*
X142348D01*
X143098Y-7250D01*
X139348Y-8750D02*X140098Y-9500D01*
X148348Y-3500D02*Y-8750D01*
X149098Y-9500D01*
X147598Y-5750D02*X149098D01*
X150598Y-3500D02*Y-9500D01*
Y-7250D02*X151348Y-6500D01*
X152848D01*
X153598Y-7250D01*
Y-9500D01*
X156148D02*X158398D01*
X155398Y-8750D02*X156148Y-9500D01*
X155398Y-7250D02*Y-8750D01*
Y-7250D02*X156148Y-6500D01*
X157648D01*
X158398Y-7250D01*
X155398Y-8000D02*X158398D01*
Y-7250D02*Y-8000D01*
X163648Y-6500D02*X165898D01*
X162898Y-7250D02*X163648Y-6500D01*
X162898Y-7250D02*Y-8750D01*
X163648Y-9500D01*
X165898D01*
X168448D02*X170698D01*
X167698Y-8750D02*X168448Y-9500D01*
X167698Y-7250D02*Y-8750D01*
Y-7250D02*X168448Y-6500D01*
X169948D01*
X170698Y-7250D01*
X167698Y-8000D02*X170698D01*
Y-7250D02*Y-8000D01*
X173248Y-7250D02*Y-9500D01*
Y-7250D02*X173998Y-6500D01*
X174748D01*
X175498Y-7250D01*
Y-9500D01*
X172498Y-6500D02*X173248Y-7250D01*
X178048Y-3500D02*Y-8750D01*
X178798Y-9500D01*
X177298Y-5750D02*X178798D01*
X181048Y-9500D02*X183298D01*
X180298Y-8750D02*X181048Y-9500D01*
X180298Y-7250D02*Y-8750D01*
Y-7250D02*X181048Y-6500D01*
X182548D01*
X183298Y-7250D01*
X180298Y-8000D02*X183298D01*
Y-7250D02*Y-8000D01*
X185848Y-7250D02*Y-9500D01*
Y-7250D02*X186598Y-6500D01*
X188098D01*
X185098D02*X185848Y-7250D01*
X189898Y-3500D02*Y-8750D01*
X190648Y-9500D01*
G54D48*X192148Y-5000D02*Y-5150D01*
G54D47*Y-7250D02*Y-9500D01*
X194398Y-7250D02*Y-9500D01*
Y-7250D02*X195148Y-6500D01*
X195898D01*
X196648Y-7250D01*
Y-9500D01*
X193648Y-6500D02*X194398Y-7250D01*
X199198Y-9500D02*X201448D01*
X198448Y-8750D02*X199198Y-9500D01*
X198448Y-7250D02*Y-8750D01*
Y-7250D02*X199198Y-6500D01*
X200698D01*
X201448Y-7250D01*
X198448Y-8000D02*X201448D01*
Y-7250D02*Y-8000D01*
X205948Y-7250D02*Y-8750D01*
Y-7250D02*X206698Y-6500D01*
X208198D01*
X208948Y-7250D01*
Y-8750D01*
X208198Y-9500D02*X208948Y-8750D01*
X206698Y-9500D02*X208198D01*
X205948Y-8750D02*X206698Y-9500D01*
X211498Y-4250D02*Y-9500D01*
Y-4250D02*X212248Y-3500D01*
X212998D01*
X210748Y-6500D02*X212248D01*
X217948Y-3500D02*Y-8750D01*
X218698Y-9500D01*
X217198Y-5750D02*X218698D01*
X220198Y-3500D02*Y-9500D01*
Y-7250D02*X220948Y-6500D01*
X222448D01*
X223198Y-7250D01*
Y-9500D01*
G54D48*X224998Y-5000D02*Y-5150D01*
G54D47*Y-7250D02*Y-9500D01*
X227248D02*X229498D01*
X230248Y-8750D01*
X229498Y-8000D02*X230248Y-8750D01*
X227248Y-8000D02*X229498D01*
X226498Y-7250D02*X227248Y-8000D01*
X226498Y-7250D02*X227248Y-6500D01*
X229498D01*
X230248Y-7250D01*
X226498Y-8750D02*X227248Y-9500D01*
X235498Y-7250D02*Y-11750D01*
X234748Y-6500D02*X235498Y-7250D01*
X236248Y-6500D01*
X237748D01*
X238498Y-7250D01*
Y-8750D01*
X237748Y-9500D02*X238498Y-8750D01*
X236248Y-9500D02*X237748D01*
X235498Y-8750D02*X236248Y-9500D01*
X242548Y-6500D02*X243298Y-7250D01*
X241048Y-6500D02*X242548D01*
X240298Y-7250D02*X241048Y-6500D01*
X240298Y-7250D02*Y-8750D01*
X241048Y-9500D01*
X243298Y-6500D02*Y-8750D01*
X244048Y-9500D01*
X241048D02*X242548D01*
X243298Y-8750D01*
X246598Y-3500D02*Y-8750D01*
X247348Y-9500D01*
X245848Y-5750D02*X247348D01*
X248848Y-3500D02*Y-9500D01*
Y-7250D02*X249598Y-6500D01*
X251098D01*
X251848Y-7250D01*
Y-9500D01*
X200750Y500941D02*Y494941D01*
X202700Y500941D02*X203750Y499891D01*
Y495991D01*
X202700Y494941D02*X203750Y495991D01*
X200000Y494941D02*X202700D01*
X200000Y500941D02*X202700D01*
X207800Y497941D02*X208550Y497191D01*
X206300Y497941D02*X207800D01*
X205550Y497191D02*X206300Y497941D01*
X205550Y497191D02*Y495691D01*
X206300Y494941D01*
X208550Y497941D02*Y495691D01*
X209300Y494941D01*
X206300D02*X207800D01*
X208550Y495691D01*
X211850Y500941D02*Y495691D01*
X212600Y494941D01*
X211100Y498691D02*X212600D01*
X214850Y494941D02*X217100D01*
X214100Y495691D02*X214850Y494941D01*
X214100Y497191D02*Y495691D01*
Y497191D02*X214850Y497941D01*
X216350D01*
X217100Y497191D01*
X214100Y496441D02*X217100D01*
Y497191D02*Y496441D01*
X218900Y498691D02*X219650D01*
X218900Y497191D02*X219650D01*
X224150Y500941D02*Y497941D01*
X224900Y494941D01*
X226400Y497941D01*
X227900Y494941D01*
X228650Y497941D01*
Y500941D02*Y497941D01*
X231200Y494941D02*X233450D01*
X230450Y495691D02*X231200Y494941D01*
X230450Y497191D02*Y495691D01*
Y497191D02*X231200Y497941D01*
X232700D01*
X233450Y497191D01*
X230450Y496441D02*X233450D01*
Y497191D02*Y496441D01*
X238250Y500941D02*Y494941D01*
X237500D02*X238250Y495691D01*
X236000Y494941D02*X237500D01*
X235250Y495691D02*X236000Y494941D01*
X235250Y497191D02*Y495691D01*
Y497191D02*X236000Y497941D01*
X237500D01*
X238250Y497191D01*
X242750Y499441D02*Y494941D01*
Y499441D02*X243800Y500941D01*
X245450D01*
X246500Y499441D01*
Y494941D01*
X242750Y497941D02*X246500D01*
X249050Y497191D02*Y492691D01*
X248300Y497941D02*X249050Y497191D01*
X249800Y497941D01*
X251300D01*
X252050Y497191D01*
Y495691D01*
X251300Y494941D02*X252050Y495691D01*
X249800Y494941D02*X251300D01*
X249050Y495691D02*X249800Y494941D01*
X254600Y497191D02*Y494941D01*
Y497191D02*X255350Y497941D01*
X256850D01*
X253850D02*X254600Y497191D01*
X264050Y500191D02*X264800Y500941D01*
X266300D01*
X267050Y500191D01*
X266300Y494941D02*X267050Y495691D01*
X264800Y494941D02*X266300D01*
X264050Y495691D02*X264800Y494941D01*
Y498241D02*X266300D01*
X267050Y500191D02*Y498991D01*
Y497491D02*Y495691D01*
Y497491D02*X266300Y498241D01*
X267050Y498991D02*X266300Y498241D01*
X271550Y499741D02*X272750Y500941D01*
Y494941D01*
X271550D02*X273800D01*
X275600Y499741D02*X276800Y500941D01*
Y494941D01*
X275600D02*X277850D01*
X279650Y498691D02*X280400D01*
X279650Y497191D02*X280400D01*
X282200Y499741D02*X283400Y500941D01*
Y494941D01*
X282200D02*X284450D01*
X287000D02*X290000Y500941D01*
X286250D02*X290000D01*
X291800Y498691D02*X292550D01*
X291800Y497191D02*X292550D01*
X294350Y500191D02*X295100Y500941D01*
X297350D01*
X298100Y500191D01*
Y498691D01*
X294350Y494941D02*X298100Y498691D01*
X294350Y494941D02*X298100D01*
X302150Y500941D02*X302900Y500191D01*
X300650Y500941D02*X302150D01*
X299900Y500191D02*X300650Y500941D01*
X299900Y500191D02*Y495691D01*
X300650Y494941D01*
X302150Y498241D02*X302900Y497491D01*
X299900Y498241D02*X302150D01*
X300650Y494941D02*X302150D01*
X302900Y495691D01*
Y497491D02*Y495691D01*
X307400Y500191D02*X308150Y500941D01*
X310400D01*
X311150Y500191D01*
Y498691D01*
X307400Y494941D02*X311150Y498691D01*
X307400Y494941D02*X311150D01*
X312950Y495691D02*X313700Y494941D01*
X312950Y500191D02*Y495691D01*
Y500191D02*X313700Y500941D01*
X315200D01*
X315950Y500191D01*
Y495691D01*
X315200Y494941D02*X315950Y495691D01*
X313700Y494941D02*X315200D01*
X312950Y496441D02*X315950Y499441D01*
X317750Y499741D02*X318950Y500941D01*
Y494941D01*
X317750D02*X320000D01*
X322550D02*X324800Y497941D01*
Y500191D02*Y497941D01*
X324050Y500941D02*X324800Y500191D01*
X322550Y500941D02*X324050D01*
X321800Y500191D02*X322550Y500941D01*
X321800Y500191D02*Y498691D01*
X322550Y497941D01*
X324800D01*
X329300Y500941D02*Y495691D01*
X330050Y494941D01*
X331550D01*
X332300Y495691D01*
Y500941D02*Y495691D01*
X334100Y500941D02*X337100D01*
X335600D02*Y494941D01*
X339950D02*X341900D01*
X338900Y495991D02*X339950Y494941D01*
X338900Y499891D02*Y495991D01*
Y499891D02*X339950Y500941D01*
X341900D01*
X200000Y514441D02*Y509941D01*
Y514441D02*X201050Y515941D01*
X202700D01*
X203750Y514441D01*
Y509941D01*
X200000Y512941D02*X203750D01*
X205550D02*Y510691D01*
X206300Y509941D01*
X207800D01*
X208550Y510691D01*
Y512941D02*Y510691D01*
X211100Y515941D02*Y510691D01*
X211850Y509941D01*
X210350Y513691D02*X211850D01*
X213350Y515941D02*Y509941D01*
Y512191D02*X214100Y512941D01*
X215600D01*
X216350Y512191D01*
Y509941D01*
X218150Y512191D02*Y510691D01*
Y512191D02*X218900Y512941D01*
X220400D01*
X221150Y512191D01*
Y510691D01*
X220400Y509941D02*X221150Y510691D01*
X218900Y509941D02*X220400D01*
X218150Y510691D02*X218900Y509941D01*
X223700Y512191D02*Y509941D01*
Y512191D02*X224450Y512941D01*
X225950D01*
X222950D02*X223700Y512191D01*
X227750Y513691D02*X228500D01*
X227750Y512191D02*X228500D01*
X235250Y512941D02*X236000Y512191D01*
X233750Y512941D02*X235250D01*
X233000Y512191D02*X233750Y512941D01*
X233000Y512191D02*Y510691D01*
X233750Y509941D01*
X236000Y512941D02*Y510691D01*
X236750Y509941D01*
X233750D02*X235250D01*
X236000Y510691D01*
X238550Y515941D02*Y510691D01*
X239300Y509941D01*
X241550D02*X243800D01*
X240800Y510691D02*X241550Y509941D01*
X240800Y512191D02*Y510691D01*
Y512191D02*X241550Y512941D01*
X243050D01*
X243800Y512191D01*
X240800Y511441D02*X243800D01*
Y512191D02*Y511441D01*
X246350Y509941D02*X248600D01*
X249350Y510691D01*
X248600Y511441D02*X249350Y510691D01*
X246350Y511441D02*X248600D01*
X245600Y512191D02*X246350Y511441D01*
X245600Y512191D02*X246350Y512941D01*
X248600D01*
X249350Y512191D01*
X245600Y510691D02*X246350Y509941D01*
X251900D02*X254150D01*
X254900Y510691D01*
X254150Y511441D02*X254900Y510691D01*
X251900Y511441D02*X254150D01*
X251150Y512191D02*X251900Y511441D01*
X251150Y512191D02*X251900Y512941D01*
X254150D01*
X254900Y512191D01*
X251150Y510691D02*X251900Y509941D01*
X258950Y512941D02*X259700Y512191D01*
X257450Y512941D02*X258950D01*
X256700Y512191D02*X257450Y512941D01*
X256700Y512191D02*Y510691D01*
X257450Y509941D01*
X259700Y512941D02*Y510691D01*
X260450Y509941D01*
X257450D02*X258950D01*
X259700Y510691D01*
X263000Y512191D02*Y509941D01*
Y512191D02*X263750Y512941D01*
X264500D01*
X265250Y512191D01*
Y509941D01*
X262250Y512941D02*X263000Y512191D01*
X270050Y515941D02*Y509941D01*
X269300D02*X270050Y510691D01*
X267800Y509941D02*X269300D01*
X267050Y510691D02*X267800Y509941D01*
X267050Y512191D02*Y510691D01*
Y512191D02*X267800Y512941D01*
X269300D01*
X270050Y512191D01*
X272600D02*Y509941D01*
Y512191D02*X273350Y512941D01*
X274850D01*
X271850D02*X272600Y512191D01*
X276650D02*Y510691D01*
Y512191D02*X277400Y512941D01*
X278900D01*
X279650Y512191D01*
Y510691D01*
X278900Y509941D02*X279650Y510691D01*
X277400Y509941D02*X278900D01*
X276650Y510691D02*X277400Y509941D01*
X200000Y530941D02*X203000D01*
X201500D02*Y524941D01*
G54D48*X204800Y529441D02*Y529291D01*
G54D47*Y527191D02*Y524941D01*
X207050Y530941D02*Y525691D01*
X207800Y524941D01*
X206300Y528691D02*X207800D01*
X209300Y530941D02*Y525691D01*
X210050Y524941D01*
X212300D02*X214550D01*
X211550Y525691D02*X212300Y524941D01*
X211550Y527191D02*Y525691D01*
Y527191D02*X212300Y527941D01*
X213800D01*
X214550Y527191D01*
X211550Y526441D02*X214550D01*
Y527191D02*Y526441D01*
X216350Y528691D02*X217100D01*
X216350Y527191D02*X217100D01*
X224600Y530941D02*X225350Y530191D01*
X222350Y530941D02*X224600D01*
X221600Y530191D02*X222350Y530941D01*
X221600Y530191D02*Y528691D01*
X222350Y527941D01*
X224600D01*
X225350Y527191D01*
Y525691D01*
X224600Y524941D02*X225350Y525691D01*
X222350Y524941D02*X224600D01*
X221600Y525691D02*X222350Y524941D01*
X227900Y530941D02*Y525691D01*
X228650Y524941D01*
X227150Y528691D02*X228650D01*
X232400Y527941D02*X233150Y527191D01*
X230900Y527941D02*X232400D01*
X230150Y527191D02*X230900Y527941D01*
X230150Y527191D02*Y525691D01*
X230900Y524941D01*
X233150Y527941D02*Y525691D01*
X233900Y524941D01*
X230900D02*X232400D01*
X233150Y525691D01*
X236450Y527191D02*Y524941D01*
Y527191D02*X237200Y527941D01*
X237950D01*
X238700Y527191D01*
Y524941D01*
X235700Y527941D02*X236450Y527191D01*
X243500Y530941D02*Y524941D01*
X242750D02*X243500Y525691D01*
X241250Y524941D02*X242750D01*
X240500Y525691D02*X241250Y524941D01*
X240500Y527191D02*Y525691D01*
Y527191D02*X241250Y527941D01*
X242750D01*
X243500Y527191D01*
X248750Y530191D02*Y524941D01*
Y530191D02*X249500Y530941D01*
X250250D01*
X248000Y527941D02*X249500D01*
X251750Y527191D02*Y525691D01*
Y527191D02*X252500Y527941D01*
X254000D01*
X254750Y527191D01*
Y525691D01*
X254000Y524941D02*X254750Y525691D01*
X252500Y524941D02*X254000D01*
X251750Y525691D02*X252500Y524941D01*
X257300Y527191D02*Y524941D01*
Y527191D02*X258050Y527941D01*
X259550D01*
X256550D02*X257300Y527191D01*
X264050Y530941D02*Y524941D01*
X267800Y530941D02*Y524941D01*
X264050Y527941D02*X267800D01*
X270350Y524941D02*X272600D01*
X269600Y525691D02*X270350Y524941D01*
X269600Y527191D02*Y525691D01*
Y527191D02*X270350Y527941D01*
X271850D01*
X272600Y527191D01*
X269600Y526441D02*X272600D01*
Y527191D02*Y526441D01*
X276650Y527941D02*X277400Y527191D01*
X275150Y527941D02*X276650D01*
X274400Y527191D02*X275150Y527941D01*
X274400Y527191D02*Y525691D01*
X275150Y524941D01*
X277400Y527941D02*Y525691D01*
X278150Y524941D01*
X275150D02*X276650D01*
X277400Y525691D01*
X280700Y527191D02*Y524941D01*
Y527191D02*X281450Y527941D01*
X282950D01*
X279950D02*X280700Y527191D01*
X285500Y530941D02*Y525691D01*
X286250Y524941D01*
X284750Y528691D02*X286250D01*
X290450Y527941D02*X293450D01*
X297950Y530941D02*Y524941D01*
Y530941D02*X300950D01*
X297950Y528241D02*X300200D01*
X305000Y527941D02*X305750Y527191D01*
X303500Y527941D02*X305000D01*
X302750Y527191D02*X303500Y527941D01*
X302750Y527191D02*Y525691D01*
X303500Y524941D01*
X305750Y527941D02*Y525691D01*
X306500Y524941D01*
X303500D02*X305000D01*
X305750Y525691D01*
X308300Y530941D02*Y524941D01*
Y525691D02*X309050Y524941D01*
X310550D01*
X311300Y525691D01*
Y527191D02*Y525691D01*
X310550Y527941D02*X311300Y527191D01*
X309050Y527941D02*X310550D01*
X308300Y527191D02*X309050Y527941D01*
X313850Y527191D02*Y524941D01*
Y527191D02*X314600Y527941D01*
X316100D01*
X313100D02*X313850Y527191D01*
G54D48*X317900Y529441D02*Y529291D01*
G54D47*Y527191D02*Y524941D01*
X320150Y527941D02*X322400D01*
X319400Y527191D02*X320150Y527941D01*
X319400Y527191D02*Y525691D01*
X320150Y524941D01*
X322400D01*
X326450Y527941D02*X327200Y527191D01*
X324950Y527941D02*X326450D01*
X324200Y527191D02*X324950Y527941D01*
X324200Y527191D02*Y525691D01*
X324950Y524941D01*
X327200Y527941D02*Y525691D01*
X327950Y524941D01*
X324950D02*X326450D01*
X327200Y525691D01*
X330500Y530941D02*Y525691D01*
X331250Y524941D01*
X329750Y528691D02*X331250D01*
G54D48*X332750Y529441D02*Y529291D01*
G54D47*Y527191D02*Y524941D01*
X334250Y527191D02*Y525691D01*
Y527191D02*X335000Y527941D01*
X336500D01*
X337250Y527191D01*
Y525691D01*
X336500Y524941D02*X337250Y525691D01*
X335000Y524941D02*X336500D01*
X334250Y525691D02*X335000Y524941D01*
X339800Y527191D02*Y524941D01*
Y527191D02*X340550Y527941D01*
X341300D01*
X342050Y527191D01*
Y524941D01*
X339050Y527941D02*X339800Y527191D01*
X347300Y530941D02*Y524941D01*
X349250Y530941D02*X350300Y529891D01*
Y525991D01*
X349250Y524941D02*X350300Y525991D01*
X346550Y524941D02*X349250D01*
X346550Y530941D02*X349250D01*
X352850Y527191D02*Y524941D01*
Y527191D02*X353600Y527941D01*
X355100D01*
X352100D02*X352850Y527191D01*
X359150Y527941D02*X359900Y527191D01*
X357650Y527941D02*X359150D01*
X356900Y527191D02*X357650Y527941D01*
X356900Y527191D02*Y525691D01*
X357650Y524941D01*
X359900Y527941D02*Y525691D01*
X360650Y524941D01*
X357650D02*X359150D01*
X359900Y525691D01*
X362450Y527941D02*Y525691D01*
X363200Y524941D01*
X363950D01*
X364700Y525691D01*
Y527941D02*Y525691D01*
X365450Y524941D01*
X366200D01*
X366950Y525691D01*
Y527941D02*Y525691D01*
G54D48*X368750Y529441D02*Y529291D01*
G54D47*Y527191D02*Y524941D01*
X371000Y527191D02*Y524941D01*
Y527191D02*X371750Y527941D01*
X372500D01*
X373250Y527191D01*
Y524941D01*
X370250Y527941D02*X371000Y527191D01*
X377300Y527941D02*X378050Y527191D01*
X375800Y527941D02*X377300D01*
X375050Y527191D02*X375800Y527941D01*
X375050Y527191D02*Y525691D01*
X375800Y524941D01*
X377300D01*
X378050Y525691D01*
X375050Y523441D02*X375800Y522691D01*
X377300D01*
X378050Y523441D01*
Y527941D02*Y523441D01*
M02*
