G04 start of page 3 for group 1 idx 1 *
G04 Title: Stand for Heart, bottom *
G04 Creator: pcb 4.0.2 *
G04 CreationDate: Wed Apr  3 11:17:26 2019 UTC *
G04 For: alez *
G04 Format: Gerber/RS-274X *
G04 PCB-Dimensions (mil): 3346.46 4724.41 *
G04 PCB-Coordinate-Origin: lower left *
%MOIN*%
%FSLAX25Y25*%
%LNBOTTOM*%
%ADD24C,0.0200*%
%ADD23C,0.0550*%
%ADD22C,0.1000*%
%ADD21C,0.0600*%
%ADD20C,0.0400*%
%ADD19C,0.0100*%
%ADD18C,0.0001*%
G54D18*G36*
X126789Y38808D02*X133592Y27040D01*
X126029D01*
X125942Y27930D01*
X132035D01*
X126056Y38287D01*
X126745Y38884D01*
X126772Y38835D01*
X126789Y38808D01*
G37*
G36*
X121656Y27805D02*X121597Y27300D01*
X121331Y27035D01*
X119231D01*
X118819Y27930D01*
X121678D01*
X121656Y27805D01*
G37*
G36*
X127803Y42182D02*X128129Y41905D01*
X127955Y41515D01*
X123083Y38705D01*
X122600Y38835D01*
X122730Y39318D01*
X127597Y42128D01*
X127803Y42182D01*
G37*
G36*
X128839Y40327D02*X129192Y40066D01*
X129024Y39659D01*
X124152Y36849D01*
X123669Y36979D01*
X123799Y37468D01*
X128666Y40278D01*
X128839Y40327D01*
G37*
G36*
X125573Y31321D02*X126186Y30409D01*
X127006Y27035D01*
X125991D01*
X125459Y29617D01*
X124168Y27176D01*
X123257Y27366D01*
X122085Y29617D01*
X121553Y27035D01*
X120539D01*
X121510Y30990D01*
X122389Y31104D01*
X123772Y28445D01*
X125161Y31104D01*
X125573Y31321D01*
G37*
G36*
X110823Y44018D02*X111216D01*
X116334Y41262D01*
Y40475D01*
X110823Y36931D01*
X110429D01*
Y37325D01*
X110823Y43624D01*
Y44018D01*
G37*
G36*
X107908Y38726D02*X108375Y38818D01*
X113242Y36008D01*
X113399Y35509D01*
X112889Y35395D01*
X108017Y38205D01*
X107908Y38726D01*
G37*
G36*
X117479Y31272D02*X118146Y30773D01*
X118586Y30019D01*
X120365Y27051D01*
X119215D01*
X117473Y29910D01*
X117034Y29085D01*
X117929Y29031D01*
X118455Y28169D01*
X116426D01*
X115753Y27051D01*
X114598D01*
X116925Y30984D01*
X117479Y31272D01*
G37*
G36*
X114571Y31152D02*Y27035D01*
X110903D01*
X111012Y27962D01*
X113659D01*
Y30344D01*
X110903D01*
X111012Y31261D01*
X114571D01*
Y31152D01*
G37*
G36*
X113583Y29530D02*X113605Y28999D01*
X113361Y28722D01*
X111077D01*
X111191Y29639D01*
X113583D01*
Y29530D01*
G37*
G36*
X119036Y52208D02*X125785Y40538D01*
X124955Y40186D01*
X118938Y50608D01*
X105841Y27930D01*
X116204D01*
X115705Y27035D01*
X104311D01*
X118938Y52376D01*
X119036Y52208D01*
G37*
G54D19*X115721Y45926D02*X108294Y33057D01*
G54D20*X244000Y292441D02*X203000D01*
X171000Y260441D01*
Y124441D01*
X120000Y73441D01*
X32000D01*
G54D19*X137135Y54088D02*Y57988D01*
X137785Y58638D02*X137135Y57988D01*
X136485Y58638D01*
X135185D02*X136485D01*
X135185D02*X134535Y57988D01*
Y56688D02*Y57988D01*
X135185Y56038D02*X134535Y56688D01*
X135185Y56038D02*X136485D01*
X137135Y56688D02*X136485Y56038D01*
X132975Y56688D02*Y57988D01*
X132325Y58638D01*
X131025D02*X132325D01*
X131025D02*X130375Y57988D01*
Y56688D02*Y57988D01*
X131025Y56038D02*X130375Y56688D01*
X131025Y56038D02*X132325D01*
X132975Y56688D02*X132325Y56038D01*
X128815Y56688D02*Y58638D01*
Y56688D02*X128165Y56038D01*
X127515D02*X128165D01*
X127515D02*X126865Y56688D01*
Y58638D01*
Y56688D02*X126215Y56038D01*
X125565D02*X126215D01*
X125565D02*X124915Y56688D01*
Y58638D01*
X120755Y56038D02*X122705D01*
X123355Y56688D02*X122705Y56038D01*
X123355Y56688D02*Y57988D01*
X122705Y58638D01*
X121405D02*X122705D01*
X121405D02*X120755Y57988D01*
Y57338D02*X123355D01*
X120755D02*Y57988D01*
X118545Y56038D02*Y57988D01*
X117895Y58638D01*
X116595D02*X117895D01*
X119195D02*X118545Y57988D01*
X112435Y56038D02*X114385D01*
X115035Y56688D02*X114385Y56038D01*
X115035Y56688D02*Y57988D01*
X114385Y58638D01*
X113085D02*X114385D01*
X113085D02*X112435Y57988D01*
Y57338D02*X115035D01*
X112435D02*Y57988D01*
X108275Y56038D02*Y61238D01*
X108925Y56038D02*X108275Y56688D01*
X108925Y56038D02*X110225D01*
X110875Y56688D02*X110225Y56038D01*
X110875Y56688D02*Y57988D01*
X110225Y58638D01*
X108925D02*X110225D01*
X108925D02*X108275Y57988D01*
X104375Y56038D02*Y61238D01*
Y56688D02*X103725Y56038D01*
X102425D02*X103725D01*
X102425D02*X101775Y56688D01*
Y57988D01*
X102425Y58638D02*X101775Y57988D01*
X102425Y58638D02*X103725D01*
X104375Y57988D02*X103725Y58638D01*
X100215Y56688D02*Y58638D01*
Y56688D02*X99565Y56038D01*
X97615Y54738D02*Y58638D01*
X98265Y54088D02*X97615Y54738D01*
X98265Y54088D02*X99565D01*
X100215Y54738D02*X99565Y54088D01*
X98265Y56038D02*X99565D01*
X98265D02*X97615Y56688D01*
X136010Y19516D02*Y21466D01*
X135360Y22116D01*
X134710D02*X135360D01*
X134710D02*X134060Y21466D01*
Y19516D02*Y21466D01*
X133410Y22116D01*
X132760D02*X133410D01*
X132760D02*X132110Y21466D01*
Y19516D02*Y21466D01*
X136660Y22116D02*X136010Y21466D01*
X128600Y22116D02*X127950Y21466D01*
X128600Y22116D02*X129900D01*
X130550Y21466D02*X129900Y22116D01*
X130550Y20166D02*Y21466D01*
Y20166D02*X129900Y19516D01*
X127950Y20166D02*Y22116D01*
Y20166D02*X127300Y19516D01*
X128600D02*X129900D01*
X128600D02*X127950Y20166D01*
X123140Y19516D02*X125090D01*
X125740Y20166D02*X125090Y19516D01*
X125740Y20166D02*Y21466D01*
X125090Y22116D01*
X123790D02*X125090D01*
X123790D02*X123140Y21466D01*
Y20816D02*X125740D01*
X123140D02*Y21466D01*
X120930Y20166D02*Y24716D01*
Y20166D02*X120280Y19516D01*
Y22766D02*X121580D01*
X116380Y19516D02*X118330D01*
X118980Y20166D02*X118330Y19516D01*
X118980Y20166D02*Y21466D01*
X118330Y22116D01*
X117030D02*X118330D01*
X117030D02*X116380Y21466D01*
Y20816D02*X118980D01*
X116380D02*Y21466D01*
X112220Y22116D02*X114170D01*
X114820Y21466D02*X114170Y22116D01*
X114820Y20166D02*Y21466D01*
Y20166D02*X114170Y19516D01*
X112220D02*X114170D01*
X110660D02*Y24716D01*
Y21466D02*X110010Y22116D01*
X108710D02*X110010D01*
X108710D02*X108060Y21466D01*
Y19516D02*Y21466D01*
X105850Y19516D02*X106500D01*
X104290Y23286D02*Y23416D01*
Y19516D02*Y21466D01*
X102340Y20166D02*Y24716D01*
Y20166D02*X101690Y19516D01*
Y22766D02*X102990D01*
G54D18*G36*
X241000Y295441D02*Y289441D01*
X247000D01*
Y295441D01*
X241000D01*
G37*
G54D21*X254000Y292441D03*
G54D22*X16506Y12631D02*X40479Y101056D01*
G54D23*X129297Y443752D02*X133620Y461044D01*
G54D18*G36*
X324556Y248441D02*X314000D01*
Y7393D01*
X324556D01*
Y248441D01*
G37*
G54D20*X38000Y73441D03*
X42000Y86441D03*
X34000Y57441D03*
X30000Y43441D03*
X134000Y451441D03*
X136000Y458441D03*
X132000Y444441D03*
X26000Y28441D03*
G54D24*M02*
