G04 start of page 2 for group 0 idx 0 *
G04 Title: Stand for Heart, component *
G04 Creator: pcb 4.0.2 *
G04 CreationDate: Wed Apr  3 11:17:26 2019 UTC *
G04 For: alez *
G04 Format: Gerber/RS-274X *
G04 PCB-Dimensions (mil): 3346.46 4724.41 *
G04 PCB-Coordinate-Origin: lower left *
%MOIN*%
%FSLAX25Y25*%
%LNTOP*%
%ADD17C,0.0200*%
%ADD16C,0.0550*%
%ADD15C,0.1000*%
%ADD14C,0.0600*%
%ADD13C,0.0100*%
%ADD12C,0.0400*%
%ADD11C,0.0001*%
G54D11*G36*
X120862Y27650D02*Y27759D01*
X123254D01*
X123368Y26842D01*
X121084D01*
X120840Y27119D01*
X120862Y27650D01*
G37*
G36*
X116966Y29392D02*X117520Y29104D01*
X119847Y25171D01*
X118692D01*
X118019Y26289D01*
X115990D01*
X116516Y27151D01*
X117411Y27205D01*
X116972Y28030D01*
X115230Y25171D01*
X114080D01*
X115859Y28139D01*
X116299Y28893D01*
X116966Y29392D01*
G37*
G36*
X108872Y29441D02*X109284Y29224D01*
X110673Y26565D01*
X112056Y29224D01*
X112935Y29110D01*
X113906Y25155D01*
X112892D01*
X112360Y27737D01*
X111188Y25486D01*
X110277Y25296D01*
X108986Y27737D01*
X108454Y25155D01*
X107439D01*
X108259Y28529D01*
X108872Y29441D01*
G37*
G36*
X105606Y38447D02*X105779Y38398D01*
X110646Y35588D01*
X110776Y35099D01*
X110293Y34969D01*
X105421Y37779D01*
X105253Y38186D01*
X105606Y38447D01*
G37*
G36*
X106642Y40302D02*X106848Y40248D01*
X111715Y37438D01*
X111845Y36955D01*
X111362Y36825D01*
X106490Y39635D01*
X106316Y40025D01*
X106642Y40302D01*
G37*
G36*
X112789Y25925D02*X112767Y26050D01*
X115626D01*
X115214Y25155D01*
X113114D01*
X112848Y25420D01*
X112789Y25925D01*
G37*
G36*
X115604Y50328D02*X130134Y25155D01*
X118740D01*
X118241Y26050D01*
X128604D01*
X115507Y48728D01*
X109490Y38306D01*
X108660Y38658D01*
X115408Y50328D01*
X115604Y50328D01*
G37*
G36*
X119874Y29272D02*Y29381D01*
X123433D01*
X123542Y28464D01*
X120786D01*
Y26082D01*
X123433D01*
X123542Y25155D01*
X119874D01*
Y29272D01*
G37*
G36*
X126537Y36846D02*X126428Y36325D01*
X121556Y33515D01*
X121046Y33629D01*
X121203Y34128D01*
X126070Y36938D01*
X126537Y36846D01*
G37*
G36*
X123622Y42138D02*Y41744D01*
X124016Y35445D01*
Y35051D01*
X123622D01*
X118111Y38595D01*
Y39382D01*
X123229Y42138D01*
X123622D01*
G37*
G36*
X107656Y36928D02*X107673Y36955D01*
X107700Y37004D01*
X108389Y36407D01*
X102410Y26050D01*
X108503D01*
X108416Y25160D01*
X100853D01*
X107656Y36928D01*
G37*
G54D12*X131459Y452398D02*X222045Y427639D01*
G54D13*X118724Y44046D02*X126151Y31177D01*
G54D12*X222000Y427651D02*X254000Y395651D01*
Y292441D01*
G54D13*X94952Y55723D02*Y51823D01*
X94302Y56373D02*X94952Y55723D01*
X95602Y56373D01*
X96902D01*
X97552Y55723D01*
Y54423D01*
X96902Y53773D02*X97552Y54423D01*
X95602Y53773D02*X96902D01*
X94952Y54423D02*X95602Y53773D01*
X99112Y55723D02*Y54423D01*
Y55723D02*X99762Y56373D01*
X101062D01*
X101712Y55723D01*
Y54423D01*
X101062Y53773D02*X101712Y54423D01*
X99762Y53773D02*X101062D01*
X99112Y54423D02*X99762Y53773D01*
X103272Y56373D02*Y54423D01*
X103922Y53773D01*
X104572D01*
X105222Y54423D01*
Y56373D02*Y54423D01*
X105872Y53773D01*
X106522D01*
X107172Y54423D01*
Y56373D02*Y54423D01*
X109382Y53773D02*X111332D01*
X108732Y54423D02*X109382Y53773D01*
X108732Y55723D02*Y54423D01*
Y55723D02*X109382Y56373D01*
X110682D01*
X111332Y55723D01*
X108732Y55073D02*X111332D01*
Y55723D02*Y55073D01*
X113542Y55723D02*Y53773D01*
Y55723D02*X114192Y56373D01*
X115492D01*
X112892D02*X113542Y55723D01*
X117702Y53773D02*X119652D01*
X117052Y54423D02*X117702Y53773D01*
X117052Y55723D02*Y54423D01*
Y55723D02*X117702Y56373D01*
X119002D01*
X119652Y55723D01*
X117052Y55073D02*X119652D01*
Y55723D02*Y55073D01*
X123812Y58973D02*Y53773D01*
X123162D02*X123812Y54423D01*
X121862Y53773D02*X123162D01*
X121212Y54423D02*X121862Y53773D01*
X121212Y55723D02*Y54423D01*
Y55723D02*X121862Y56373D01*
X123162D01*
X123812Y55723D01*
X127712Y58973D02*Y53773D01*
Y54423D02*X128362Y53773D01*
X129662D01*
X130312Y54423D01*
Y55723D02*Y54423D01*
X129662Y56373D02*X130312Y55723D01*
X128362Y56373D02*X129662D01*
X127712Y55723D02*X128362Y56373D01*
X131872D02*Y54423D01*
X132522Y53773D01*
X134472Y56373D02*Y52473D01*
X133822Y51823D02*X134472Y52473D01*
X132522Y51823D02*X133822D01*
X131872Y52473D02*X132522Y51823D01*
Y53773D02*X133822D01*
X134472Y54423D01*
X98828Y19540D02*Y17590D01*
Y19540D02*X99478Y20190D01*
X100128D01*
X100778Y19540D01*
Y17590D01*
Y19540D02*X101428Y20190D01*
X102078D01*
X102728Y19540D01*
Y17590D01*
X98178Y20190D02*X98828Y19540D01*
X106238Y20190D02*X106888Y19540D01*
X104938Y20190D02*X106238D01*
X104288Y19540D02*X104938Y20190D01*
X104288Y19540D02*Y18240D01*
X104938Y17590D01*
X106888Y20190D02*Y18240D01*
X107538Y17590D01*
X104938D02*X106238D01*
X106888Y18240D01*
X109748Y17590D02*X111698D01*
X109098Y18240D02*X109748Y17590D01*
X109098Y19540D02*Y18240D01*
Y19540D02*X109748Y20190D01*
X111048D01*
X111698Y19540D01*
X109098Y18890D02*X111698D01*
Y19540D02*Y18890D01*
X113908Y22790D02*Y18240D01*
X114558Y17590D01*
X113258Y20840D02*X114558D01*
X116508Y17590D02*X118458D01*
X115858Y18240D02*X116508Y17590D01*
X115858Y19540D02*Y18240D01*
Y19540D02*X116508Y20190D01*
X117808D01*
X118458Y19540D01*
X115858Y18890D02*X118458D01*
Y19540D02*Y18890D01*
X120668Y20190D02*X122618D01*
X120018Y19540D02*X120668Y20190D01*
X120018Y19540D02*Y18240D01*
X120668Y17590D01*
X122618D01*
X124178Y22790D02*Y17590D01*
Y19540D02*X124828Y20190D01*
X126128D01*
X126778Y19540D01*
Y17590D01*
X128338D02*X128988D01*
X130548Y21490D02*Y21360D01*
Y19540D02*Y17590D01*
X132498Y22790D02*Y18240D01*
X133148Y17590D01*
X131848Y20840D02*X133148D01*
G54D11*G36*
X241000Y295441D02*Y289441D01*
X247000D01*
Y295441D01*
X241000D01*
G37*
G54D14*X254000Y292441D03*
G54D15*X16506Y12631D02*X40479Y101056D01*
G54D16*X129297Y443752D02*X133620Y461044D01*
G54D11*G36*
X324556Y248441D02*X314000D01*
Y7393D01*
X324556D01*
Y248441D01*
G37*
G54D12*X38000Y73441D03*
X42000Y86441D03*
X34000Y57441D03*
X30000Y43441D03*
X134000Y451441D03*
X136000Y458441D03*
X132000Y444441D03*
X26000Y28441D03*
G54D17*M02*
