G04 start of page 2 for group 0 idx 0 *
G04 Title: Heart, component *
G04 Creator: pcb 4.0.2 *
G04 CreationDate: Wed Apr  3 09:48:58 2019 UTC *
G04 For: alez *
G04 Format: Gerber/RS-274X *
G04 PCB-Dimensions (mil): 5906.00 5906.00 *
G04 PCB-Coordinate-Origin: lower left *
%MOIN*%
%FSLAX25Y25*%
%LNTOP*%
%ADD20C,0.0500*%
%ADD19C,0.1200*%
%ADD18C,0.0150*%
%ADD17C,0.0310*%
%ADD16C,0.0732*%
%ADD15C,0.0400*%
%ADD14C,0.0100*%
%ADD13C,0.0200*%
%ADD12C,0.0584*%
%ADD11C,0.0001*%
G54D11*G36*
X249399Y66985D02*Y71038D01*
X251835Y74966D01*
X254824Y78189D01*
X257943Y80918D01*
X260727Y83348D01*
X262745Y85719D01*
X263516Y88231D01*
X262539Y91123D01*
X259668Y92061D01*
X256799Y91041D01*
X255535Y88025D01*
X249648Y88356D01*
X250500Y91600D01*
X252334Y94264D01*
X255323Y96049D01*
X259625Y96716D01*
X263824Y96158D01*
X266900Y94552D01*
X268793Y91953D01*
X269439Y88481D01*
X268625Y84759D01*
X266548Y81683D01*
X263721Y79062D01*
X260727Y76675D01*
X258068Y74326D01*
X256299Y71787D01*
X269895D01*
Y66985D01*
X249399D01*
G37*
G36*
X297999D02*Y71331D01*
X305252D01*
Y91313D01*
X298227Y86924D01*
Y91519D01*
X305561Y96282D01*
X311091D01*
Y71331D01*
X317807D01*
Y66985D01*
X297999D01*
G37*
G36*
X293550Y81645D02*X292779Y74554D01*
X290636Y69893D01*
X287420Y67338D01*
X283416Y66578D01*
Y71166D01*
X285357Y71662D01*
X286686Y73366D01*
X287435Y76610D01*
X287685Y81645D01*
X287457Y86755D01*
X286731Y89978D01*
X285423Y91665D01*
X283486Y92143D01*
X283416Y92126D01*
Y96697D01*
X283529Y96716D01*
X287500Y96011D01*
X290679Y93597D01*
X292779Y88964D01*
X293550Y81645D01*
G37*
G36*
X283416Y66578D02*X283361Y66568D01*
X279309Y67338D01*
X276129Y69877D01*
X274052Y74532D01*
X273303Y81645D01*
X274029Y88964D01*
X276129Y93597D01*
X279352Y96011D01*
X283416Y96697D01*
Y92126D01*
X281429Y91644D01*
X280078Y89962D01*
X279352Y86717D01*
X279146Y81645D01*
X279374Y76610D01*
X280100Y73366D01*
X281407Y71662D01*
X283404Y71163D01*
X283416Y71166D01*
Y66578D01*
G37*
G36*
X341374Y75237D02*X340750Y71743D01*
X338841Y69004D01*
X335574Y67213D01*
X330877Y66568D01*
X330847Y66572D01*
Y70698D01*
X330920Y70686D01*
X333079Y71038D01*
X334429Y72080D01*
X335118Y73659D01*
X335325Y75715D01*
X335118Y77445D01*
X334414Y78899D01*
X333020Y79920D01*
X330847Y80294D01*
Y84408D01*
X332829Y84781D01*
X333996Y85757D01*
X334517Y87114D01*
X334642Y88605D01*
X334452Y90211D01*
X333828Y91475D01*
X332645Y92311D01*
X330847Y92611D01*
Y96709D01*
X335200Y96136D01*
X338277Y94535D01*
X340067Y92078D01*
X340647Y88920D01*
X340273Y86696D01*
X339231Y84759D01*
X337549Y83283D01*
X335325Y82431D01*
Y82350D01*
X337717Y81580D01*
X339649Y80147D01*
X340918Y78026D01*
X341374Y75237D01*
G37*
G36*
X330847Y66572D02*X326178Y67213D01*
X322896Y69004D01*
X320986Y71743D01*
X320361Y75200D01*
X320861Y78026D01*
X322191Y80169D01*
X324100Y81580D01*
X326324Y82307D01*
Y82393D01*
X324121Y83283D01*
X322461Y84781D01*
X321397Y86717D01*
X321046Y88964D01*
X321670Y92143D01*
X323541Y94595D01*
X326574Y96158D01*
X330795Y96716D01*
X330847Y96709D01*
Y92611D01*
X330795Y92620D01*
X328988Y92311D01*
X327821Y91475D01*
X327198Y90211D01*
X327013Y88605D01*
X327160Y87092D01*
X327741Y85741D01*
X328902Y84781D01*
X330838Y84406D01*
X330847Y84408D01*
Y80294D01*
X330752Y80310D01*
X328652Y79920D01*
X327300Y78899D01*
X326574Y77402D01*
X326368Y75634D01*
X326574Y73615D01*
X327323Y72036D01*
X328739Y71038D01*
X330847Y70698D01*
Y66572D01*
G37*
G36*
X366617Y134985D02*Y147605D01*
X366406Y149997D01*
X365723Y151869D01*
X364474Y153095D01*
X362603Y153529D01*
X360671Y153052D01*
X359196Y151723D01*
X358218Y149661D01*
X357888Y147046D01*
Y134985D01*
X352045D01*
Y152450D01*
X352023Y153947D01*
X351985Y155401D01*
X351942Y156649D01*
X351882Y157479D01*
X357449D01*
X357535Y156671D01*
X357617Y155466D01*
X357677Y154132D01*
X357720Y153009D01*
X357802D01*
X360774Y156752D01*
X365039Y157918D01*
X368467Y157251D01*
X370752Y155423D01*
X372043Y152678D01*
X372434Y149270D01*
Y134985D01*
X366617D01*
G37*
G36*
X235682Y164621D02*X236127Y164716D01*
X239306Y164342D01*
X241867Y163176D01*
X243777Y161076D01*
X245046Y157978D01*
X239539Y157213D01*
X238183Y159416D01*
X236002Y160099D01*
X235682Y160010D01*
Y164621D01*
G37*
G36*
X245833Y144572D02*X245209Y140514D01*
X243342Y137356D01*
X240266Y135295D01*
X235980Y134568D01*
X235682Y134627D01*
Y139152D01*
X235796Y139125D01*
X238872Y140514D01*
X239973Y144404D01*
X239702Y146525D01*
X238872Y148147D01*
X237521Y149167D01*
X235682Y149529D01*
Y153478D01*
X237331Y153844D01*
X240825Y153198D01*
X243505Y151370D01*
X245231Y148457D01*
X245833Y144572D01*
G37*
G36*
X235682Y134627D02*X231401Y135474D01*
X228021Y138186D01*
X225949Y142700D01*
X225260Y148956D01*
X225960Y155824D01*
X228065Y160745D01*
X231494Y163724D01*
X235682Y164621D01*
Y160010D01*
X233903Y159514D01*
X232302Y157750D01*
X231304Y154799D01*
X230973Y150621D01*
X233572Y153009D01*
X235682Y153478D01*
Y149529D01*
X235649Y149536D01*
X234114Y149292D01*
X232741Y148478D01*
X231765Y147084D01*
X231391Y145028D01*
X231700Y142700D01*
X232573Y140807D01*
X233967Y139559D01*
X235682Y139152D01*
Y134627D01*
G37*
G36*
X202685Y134985D02*Y139331D01*
X209939D01*
Y159313D01*
X202913Y154924D01*
Y159519D01*
X210253Y164282D01*
X215782D01*
Y139331D01*
X222493D01*
Y134985D01*
X202685D01*
G37*
G36*
X305506Y157479D02*Y144860D01*
X305718Y142451D01*
X306401Y140579D01*
X307628Y139375D01*
X309499Y138935D01*
X311409Y139391D01*
X312906Y140725D01*
X313861Y142782D01*
X314219Y145424D01*
Y157479D01*
X320057D01*
Y138517D01*
X320100Y137042D01*
X320160Y135794D01*
X320225Y134985D01*
X314653D01*
X314572Y135778D01*
X314485Y137004D01*
X314425Y138333D01*
X314404Y139456D01*
X314301D01*
X311328Y135734D01*
X307069Y134568D01*
X303640Y135235D01*
X301329Y137042D01*
X300065Y139787D01*
X299668Y143200D01*
Y157479D01*
X305506D01*
G37*
G36*
X271753Y129811D02*X271755Y129810D01*
X273643Y130097D01*
X275119Y131095D01*
X276079Y132924D01*
X276432Y135756D01*
Y136939D01*
X276453Y138040D01*
X276470Y139163D01*
X276432D01*
X273562Y136005D01*
X271753Y135601D01*
Y139098D01*
X273394Y139413D01*
X274956Y140617D01*
X276057Y142928D01*
X276470Y146547D01*
X276057Y150079D01*
X274972Y152347D01*
X273437Y153551D01*
X271753Y153896D01*
Y157414D01*
X273643Y156964D01*
X276432Y153866D01*
X276535D01*
X276557Y154864D01*
X276638Y155965D01*
X276719Y156920D01*
X276822Y157479D01*
X282356D01*
X282269Y155379D01*
X282231Y152281D01*
Y135669D01*
X281521Y131410D01*
X279443Y128372D01*
X276095Y126565D01*
X271753Y125985D01*
Y129811D01*
G37*
G36*
Y135601D02*X269194Y135029D01*
X265500Y135859D01*
X262939Y138208D01*
X261425Y141805D01*
X260948Y146422D01*
X261463Y151120D01*
X263042Y154755D01*
X265744Y157088D01*
X269634Y157918D01*
X271753Y157414D01*
Y153896D01*
X271712Y153904D01*
X269715Y153470D01*
X268261Y152119D01*
X267344Y149786D01*
X267035Y146422D01*
X267323Y143232D01*
X268202Y140932D01*
X269650Y139548D01*
X271668Y139082D01*
X271753Y139098D01*
Y135601D01*
G37*
G36*
X271587Y125963D02*X267659Y126419D01*
X264767Y127667D01*
X262857Y129576D01*
X261881Y132012D01*
X267719Y132696D01*
X269053Y130575D01*
X271753Y129811D01*
Y125985D01*
X271587Y125963D01*
G37*
G36*
X276000Y290805D02*X293157Y290809D01*
X293310Y290846D01*
X293455Y290906D01*
X293590Y290988D01*
X293709Y291091D01*
X293812Y291210D01*
X293866Y291300D01*
X306889D01*
X307210Y291167D01*
X307490Y291100D01*
X307210Y291033D01*
X306839Y290879D01*
X306497Y290669D01*
X306191Y290409D01*
X306098Y290300D01*
X293866D01*
X293812Y290390D01*
X293709Y290509D01*
X293590Y290612D01*
X293455Y290694D01*
X293310Y290754D01*
X293157Y290791D01*
X293000Y290800D01*
X276000Y290795D01*
Y290805D01*
G37*
G36*
Y370800D02*X293000D01*
X276000Y370795D01*
Y370800D01*
G37*
G36*
Y382805D02*X293157Y382809D01*
X293310Y382846D01*
X293455Y382906D01*
X293590Y382988D01*
X293709Y383091D01*
X293812Y383210D01*
X293894Y383345D01*
X293954Y383490D01*
X293991Y383643D01*
X294000Y383800D01*
X293991Y385957D01*
X293954Y386110D01*
X293894Y386255D01*
X293812Y386390D01*
X293709Y386509D01*
X293590Y386612D01*
X293455Y386694D01*
X293310Y386754D01*
X293157Y386791D01*
X293000Y386800D01*
X293972D01*
X296000Y384772D01*
Y376428D01*
X294372Y374800D01*
X276000D01*
Y374805D01*
X293157Y374809D01*
X293310Y374846D01*
X293455Y374906D01*
X293590Y374988D01*
X293709Y375091D01*
X293812Y375210D01*
X293894Y375345D01*
X293954Y375490D01*
X293991Y375643D01*
X294000Y375800D01*
X293991Y377957D01*
X293954Y378110D01*
X293894Y378255D01*
X293812Y378390D01*
X293709Y378509D01*
X293590Y378612D01*
X293455Y378694D01*
X293310Y378754D01*
X293157Y378791D01*
X293000Y378800D01*
X276000Y378795D01*
Y378805D01*
X293157Y378809D01*
X293310Y378846D01*
X293455Y378906D01*
X293590Y378988D01*
X293709Y379091D01*
X293812Y379210D01*
X293894Y379345D01*
X293954Y379490D01*
X293991Y379643D01*
X294000Y379800D01*
X293991Y381957D01*
X293954Y382110D01*
X293894Y382255D01*
X293812Y382390D01*
X293709Y382509D01*
X293590Y382612D01*
X293455Y382694D01*
X293310Y382754D01*
X293157Y382791D01*
X293000Y382800D01*
X276000Y382795D01*
Y382805D01*
G37*
G36*
Y386800D02*X293000D01*
X276000Y386795D01*
Y386800D01*
G37*
G36*
X445995Y441600D02*X452000D01*
Y207600D01*
X445995D01*
Y210891D01*
X446000Y210890D01*
X446486Y210929D01*
X446961Y211043D01*
X447412Y211229D01*
X447828Y211484D01*
X448199Y211801D01*
X448516Y212172D01*
X448771Y212588D01*
X448957Y213039D01*
X449071Y213514D01*
X449100Y214000D01*
X449071Y214486D01*
X448957Y214961D01*
X448771Y215412D01*
X448516Y215828D01*
X448199Y216199D01*
X447828Y216516D01*
X447412Y216771D01*
X446961Y216957D01*
X446486Y217071D01*
X446000Y217110D01*
X445995Y217109D01*
Y432491D01*
X446000Y432490D01*
X446486Y432529D01*
X446961Y432643D01*
X447412Y432829D01*
X447828Y433084D01*
X448199Y433401D01*
X448516Y433772D01*
X448771Y434188D01*
X448957Y434639D01*
X449071Y435114D01*
X449100Y435600D01*
X449071Y436086D01*
X448957Y436561D01*
X448771Y437012D01*
X448516Y437428D01*
X448199Y437799D01*
X447828Y438116D01*
X447412Y438371D01*
X446961Y438557D01*
X446486Y438671D01*
X446000Y438710D01*
X445995Y438709D01*
Y441600D01*
G37*
G36*
X303495D02*X445995D01*
Y438709D01*
X445514Y438671D01*
X445039Y438557D01*
X444588Y438371D01*
X444172Y438116D01*
X443801Y437799D01*
X443484Y437428D01*
X443229Y437012D01*
X443043Y436561D01*
X442929Y436086D01*
X442890Y435600D01*
X442929Y435114D01*
X443043Y434639D01*
X443229Y434188D01*
X443484Y433772D01*
X443801Y433401D01*
X444172Y433084D01*
X444588Y432829D01*
X445039Y432643D01*
X445514Y432529D01*
X445995Y432491D01*
Y217109D01*
X445514Y217071D01*
X445039Y216957D01*
X444588Y216771D01*
X444172Y216516D01*
X443801Y216199D01*
X443484Y215828D01*
X443229Y215412D01*
X443043Y214961D01*
X442929Y214486D01*
X442890Y214000D01*
X442929Y213514D01*
X443043Y213039D01*
X443229Y212588D01*
X443484Y212172D01*
X443801Y211801D01*
X444172Y211484D01*
X444588Y211229D01*
X445039Y211043D01*
X445514Y210929D01*
X445995Y210891D01*
Y207600D01*
X410828D01*
X420832Y217604D01*
X421000Y217591D01*
X421471Y217628D01*
X421930Y217738D01*
X422366Y217919D01*
X422769Y218165D01*
X423128Y218472D01*
X423435Y218831D01*
X423681Y219234D01*
X423862Y219670D01*
X423972Y220129D01*
X424000Y220600D01*
X423972Y221071D01*
X423862Y221530D01*
X423681Y221966D01*
X423435Y222369D01*
X423128Y222728D01*
X422769Y223035D01*
X422366Y223281D01*
X421930Y223462D01*
X421471Y223572D01*
X421000Y223609D01*
X420529Y223572D01*
X420070Y223462D01*
X419634Y223281D01*
X419231Y223035D01*
X418872Y222728D01*
X418565Y222369D01*
X418319Y221966D01*
X418138Y221530D01*
X418028Y221071D01*
X417991Y220600D01*
X418004Y220432D01*
X407172Y209600D01*
X342585D01*
X342809Y209791D01*
X343069Y210097D01*
X343279Y210439D01*
X343433Y210810D01*
X343526Y211200D01*
X343550Y211600D01*
X343526Y212000D01*
X343525Y212004D01*
X345019Y213498D01*
X345064Y213536D01*
X345217Y213715D01*
X345217Y213716D01*
X345341Y213917D01*
X345431Y214135D01*
X345486Y214365D01*
X345505Y214600D01*
X345500Y214659D01*
Y227529D01*
X345503Y227531D01*
X345809Y227791D01*
X346069Y228097D01*
X346279Y228439D01*
X346433Y228810D01*
X346526Y229200D01*
X346550Y229600D01*
X346526Y230000D01*
X346433Y230390D01*
X346279Y230761D01*
X346069Y231103D01*
X345809Y231409D01*
X345503Y231669D01*
X345161Y231879D01*
X344790Y232033D01*
X344400Y232126D01*
X344000Y232158D01*
X343600Y232126D01*
X343210Y232033D01*
X342839Y231879D01*
X342497Y231669D01*
X342191Y231409D01*
X341931Y231103D01*
X341721Y230761D01*
X341567Y230390D01*
X341474Y230000D01*
X341442Y229600D01*
X341474Y229200D01*
X341567Y228810D01*
X341721Y228439D01*
X341931Y228097D01*
X342191Y227791D01*
X342497Y227531D01*
X342500Y227529D01*
Y215221D01*
X341404Y214125D01*
X341400Y214126D01*
X341000Y214158D01*
X340600Y214126D01*
X340210Y214033D01*
X339839Y213879D01*
X339497Y213669D01*
X339191Y213409D01*
X338931Y213103D01*
X338721Y212761D01*
X338567Y212390D01*
X338474Y212000D01*
X338442Y211600D01*
X338474Y211200D01*
X338567Y210810D01*
X338721Y210439D01*
X338931Y210097D01*
X339191Y209791D01*
X339415Y209600D01*
X303495D01*
Y229267D01*
X316359Y242130D01*
X316419Y242181D01*
X316623Y242421D01*
X316623Y242421D01*
X316788Y242689D01*
X316908Y242980D01*
X316981Y243286D01*
X317006Y243600D01*
X317000Y243678D01*
Y375363D01*
X317128Y375472D01*
X317435Y375831D01*
X317681Y376234D01*
X317862Y376670D01*
X317972Y377129D01*
X318000Y377600D01*
X317972Y378071D01*
X317862Y378530D01*
X317681Y378966D01*
X317435Y379369D01*
X317128Y379728D01*
X316769Y380035D01*
X316366Y380281D01*
X315930Y380462D01*
X315471Y380572D01*
X315000Y380609D01*
X314529Y380572D01*
X314070Y380462D01*
X313634Y380281D01*
X313231Y380035D01*
X312872Y379728D01*
X312565Y379369D01*
X312319Y378966D01*
X312138Y378530D01*
X312028Y378071D01*
X311991Y377600D01*
X312028Y377129D01*
X312138Y376670D01*
X312319Y376234D01*
X312565Y375831D01*
X312872Y375472D01*
X313000Y375363D01*
Y244428D01*
X303495Y234924D01*
Y284071D01*
X303526Y284200D01*
X303550Y284600D01*
X303526Y285000D01*
X303495Y285129D01*
Y287300D01*
X305806D01*
X305931Y287097D01*
X306191Y286791D01*
X306497Y286531D01*
X306839Y286321D01*
X307210Y286167D01*
X307600Y286074D01*
X308000Y286042D01*
X308400Y286074D01*
X308790Y286167D01*
X309161Y286321D01*
X309503Y286531D01*
X309809Y286791D01*
X310069Y287097D01*
X310279Y287439D01*
X310433Y287810D01*
X310526Y288200D01*
X310550Y288600D01*
X310526Y289000D01*
X310433Y289390D01*
X310279Y289761D01*
X310069Y290103D01*
X309809Y290409D01*
X309503Y290669D01*
X309161Y290879D01*
X308790Y291033D01*
X308510Y291100D01*
X308790Y291167D01*
X309161Y291321D01*
X309503Y291531D01*
X309809Y291791D01*
X310069Y292097D01*
X310279Y292439D01*
X310433Y292810D01*
X310526Y293200D01*
X310550Y293600D01*
X310526Y294000D01*
X310433Y294390D01*
X310279Y294761D01*
X310069Y295103D01*
X309809Y295409D01*
X309503Y295669D01*
X309161Y295879D01*
X308790Y296033D01*
X308400Y296126D01*
X308000Y296158D01*
X307600Y296126D01*
X307210Y296033D01*
X306839Y295879D01*
X306497Y295669D01*
X306191Y295409D01*
X305931Y295103D01*
X305721Y294761D01*
X305567Y294390D01*
X305546Y294300D01*
X303495D01*
Y297071D01*
X303526Y297200D01*
X303550Y297600D01*
X303526Y298000D01*
X303495Y298129D01*
Y441600D01*
G37*
G36*
Y294300D02*X293866D01*
X293812Y294390D01*
X293709Y294509D01*
X293590Y294612D01*
X293455Y294694D01*
X293310Y294754D01*
X293157Y294791D01*
X293000Y294800D01*
X276000Y294795D01*
Y294805D01*
X293157Y294809D01*
X293310Y294846D01*
X293455Y294906D01*
X293590Y294988D01*
X293709Y295091D01*
X293812Y295210D01*
X293866Y295300D01*
X299889D01*
X300210Y295167D01*
X300600Y295074D01*
X301000Y295042D01*
X301400Y295074D01*
X301790Y295167D01*
X302161Y295321D01*
X302503Y295531D01*
X302809Y295791D01*
X303069Y296097D01*
X303279Y296439D01*
X303433Y296810D01*
X303495Y297071D01*
Y294300D01*
G37*
G36*
Y285129D02*X303433Y285390D01*
X303279Y285761D01*
X303069Y286103D01*
X302809Y286409D01*
X302503Y286669D01*
X302161Y286879D01*
X301790Y287033D01*
X301400Y287126D01*
X301000Y287158D01*
X300600Y287126D01*
X300210Y287033D01*
X299839Y286879D01*
X299497Y286669D01*
X299191Y286409D01*
X299098Y286300D01*
X293866D01*
X293812Y286390D01*
X293709Y286509D01*
X293590Y286612D01*
X293455Y286694D01*
X293310Y286754D01*
X293157Y286791D01*
X293000Y286800D01*
X276000Y286795D01*
Y286805D01*
X293157Y286809D01*
X293310Y286846D01*
X293455Y286906D01*
X293590Y286988D01*
X293709Y287091D01*
X293812Y287210D01*
X293866Y287300D01*
X303495D01*
Y285129D01*
G37*
G36*
Y209600D02*X276000D01*
Y236805D01*
X293157Y236809D01*
X293310Y236846D01*
X293455Y236906D01*
X293590Y236988D01*
X293709Y237091D01*
X293812Y237210D01*
X293894Y237345D01*
X293954Y237490D01*
X293991Y237643D01*
X294000Y237800D01*
X293991Y249957D01*
X293954Y250110D01*
X293894Y250255D01*
X293812Y250390D01*
X293709Y250509D01*
X293590Y250612D01*
X293455Y250694D01*
X293310Y250754D01*
X293157Y250791D01*
X293000Y250800D01*
X276000Y250795D01*
Y250805D01*
X293157Y250809D01*
X293310Y250846D01*
X293455Y250906D01*
X293590Y250988D01*
X293709Y251091D01*
X293812Y251210D01*
X293894Y251345D01*
X293954Y251490D01*
X293991Y251643D01*
X294000Y251800D01*
X293991Y253957D01*
X293954Y254110D01*
X293894Y254255D01*
X293812Y254390D01*
X293709Y254509D01*
X293590Y254612D01*
X293455Y254694D01*
X293310Y254754D01*
X293157Y254791D01*
X293000Y254800D01*
X276000Y254795D01*
Y254800D01*
X276078Y254805D01*
X293157Y254809D01*
X293310Y254846D01*
X293455Y254906D01*
X293590Y254988D01*
X293709Y255091D01*
X293812Y255210D01*
X293894Y255345D01*
X293954Y255490D01*
X293991Y255643D01*
X294000Y255800D01*
X293991Y257957D01*
X293954Y258110D01*
X293894Y258255D01*
X293812Y258390D01*
X293709Y258509D01*
X293590Y258612D01*
X293455Y258694D01*
X293310Y258754D01*
X293157Y258791D01*
X293000Y258800D01*
X276078Y258795D01*
X276000Y258800D01*
X276078Y258805D01*
X293157Y258809D01*
X293310Y258846D01*
X293455Y258906D01*
X293590Y258988D01*
X293709Y259091D01*
X293812Y259210D01*
X293894Y259345D01*
X293954Y259490D01*
X293991Y259643D01*
X294000Y259800D01*
X293991Y261957D01*
X293954Y262110D01*
X293894Y262255D01*
X293812Y262390D01*
X293709Y262509D01*
X293590Y262612D01*
X293455Y262694D01*
X293310Y262754D01*
X293157Y262791D01*
X293000Y262800D01*
X276078Y262795D01*
X276000Y262800D01*
Y262805D01*
X293157Y262809D01*
X293310Y262846D01*
X293455Y262906D01*
X293590Y262988D01*
X293709Y263091D01*
X293812Y263210D01*
X293894Y263345D01*
X293954Y263490D01*
X293991Y263643D01*
X294000Y263800D01*
X293991Y265957D01*
X293954Y266110D01*
X293894Y266255D01*
X293812Y266390D01*
X293709Y266509D01*
X293590Y266612D01*
X293455Y266694D01*
X293310Y266754D01*
X293157Y266791D01*
X293000Y266800D01*
X276000Y266795D01*
Y266805D01*
X293157Y266809D01*
X293310Y266846D01*
X293455Y266906D01*
X293590Y266988D01*
X293709Y267091D01*
X293812Y267210D01*
X293894Y267345D01*
X293954Y267490D01*
X293991Y267643D01*
X294000Y267800D01*
X293991Y269957D01*
X293954Y270110D01*
X293894Y270255D01*
X293812Y270390D01*
X293709Y270509D01*
X293590Y270612D01*
X293455Y270694D01*
X293310Y270754D01*
X293157Y270791D01*
X293000Y270800D01*
X276000Y270795D01*
Y270805D01*
X293157Y270809D01*
X293310Y270846D01*
X293455Y270906D01*
X293590Y270988D01*
X293709Y271091D01*
X293812Y271210D01*
X293894Y271345D01*
X293954Y271490D01*
X293991Y271643D01*
X294000Y271800D01*
X293991Y273957D01*
X293954Y274110D01*
X293894Y274255D01*
X293812Y274390D01*
X293709Y274509D01*
X293590Y274612D01*
X293455Y274694D01*
X293310Y274754D01*
X293157Y274791D01*
X293000Y274800D01*
X276000Y274795D01*
Y274805D01*
X293157Y274809D01*
X293310Y274846D01*
X293455Y274906D01*
X293590Y274988D01*
X293709Y275091D01*
X293812Y275210D01*
X293894Y275345D01*
X293954Y275490D01*
X293991Y275643D01*
X294000Y275800D01*
X293991Y277957D01*
X293954Y278110D01*
X293894Y278255D01*
X293812Y278390D01*
X293709Y278509D01*
X293590Y278612D01*
X293455Y278694D01*
X293310Y278754D01*
X293157Y278791D01*
X293000Y278800D01*
X276000Y278795D01*
Y278805D01*
X293157Y278809D01*
X293310Y278846D01*
X293455Y278906D01*
X293590Y278988D01*
X293709Y279091D01*
X293812Y279210D01*
X293894Y279345D01*
X293954Y279490D01*
X293991Y279643D01*
X294000Y279800D01*
X293991Y281957D01*
X293954Y282110D01*
X293894Y282255D01*
X293812Y282390D01*
X293709Y282509D01*
X293590Y282612D01*
X293455Y282694D01*
X293310Y282754D01*
X293157Y282791D01*
X293000Y282800D01*
X276000Y282795D01*
Y282805D01*
X293157Y282809D01*
X293310Y282846D01*
X293455Y282906D01*
X293590Y282988D01*
X293709Y283091D01*
X293812Y283210D01*
X293866Y283300D01*
X298806D01*
X298931Y283097D01*
X299191Y282791D01*
X299497Y282531D01*
X299839Y282321D01*
X300210Y282167D01*
X300600Y282074D01*
X301000Y282042D01*
X301400Y282074D01*
X301790Y282167D01*
X302161Y282321D01*
X302503Y282531D01*
X302809Y282791D01*
X303069Y283097D01*
X303279Y283439D01*
X303433Y283810D01*
X303495Y284071D01*
Y234924D01*
X290641Y222070D01*
X290581Y222019D01*
X290377Y221779D01*
X290212Y221511D01*
X290092Y221220D01*
X290019Y220914D01*
X289994Y220600D01*
X290000Y220522D01*
Y215837D01*
X289872Y215728D01*
X289565Y215369D01*
X289319Y214966D01*
X289138Y214530D01*
X289028Y214071D01*
X288991Y213600D01*
X289028Y213129D01*
X289138Y212670D01*
X289319Y212234D01*
X289565Y211831D01*
X289872Y211472D01*
X290231Y211165D01*
X290634Y210919D01*
X291070Y210738D01*
X291529Y210628D01*
X292000Y210591D01*
X292471Y210628D01*
X292930Y210738D01*
X293366Y210919D01*
X293769Y211165D01*
X294128Y211472D01*
X294435Y211831D01*
X294681Y212234D01*
X294862Y212670D01*
X294972Y213129D01*
X295000Y213600D01*
X294972Y214071D01*
X294862Y214530D01*
X294681Y214966D01*
X294435Y215369D01*
X294128Y215728D01*
X294000Y215837D01*
Y219772D01*
X303495Y229267D01*
Y209600D01*
G37*
G36*
X276000Y441600D02*X303495D01*
Y298129D01*
X303433Y298390D01*
X303279Y298761D01*
X303069Y299103D01*
X302809Y299409D01*
X302503Y299669D01*
X302161Y299879D01*
X301790Y300033D01*
X301400Y300126D01*
X301000Y300158D01*
X300600Y300126D01*
X300210Y300033D01*
X299839Y299879D01*
X299497Y299669D01*
X299191Y299409D01*
X298931Y299103D01*
X298721Y298761D01*
X298567Y298390D01*
X298546Y298300D01*
X293866D01*
X293812Y298390D01*
X293709Y298509D01*
X293590Y298612D01*
X293455Y298694D01*
X293310Y298754D01*
X293157Y298791D01*
X293000Y298800D01*
X276000Y298795D01*
Y298805D01*
X293157Y298809D01*
X293310Y298846D01*
X293455Y298906D01*
X293590Y298988D01*
X293709Y299091D01*
X293812Y299210D01*
X293894Y299345D01*
X293954Y299490D01*
X293991Y299643D01*
X294000Y299800D01*
X293991Y301957D01*
X293954Y302110D01*
X293894Y302255D01*
X293812Y302390D01*
X293709Y302509D01*
X293590Y302612D01*
X293455Y302694D01*
X293310Y302754D01*
X293157Y302791D01*
X293000Y302800D01*
X276000Y302795D01*
Y302805D01*
X293157Y302809D01*
X293310Y302846D01*
X293455Y302906D01*
X293590Y302988D01*
X293709Y303091D01*
X293812Y303210D01*
X293894Y303345D01*
X293954Y303490D01*
X293991Y303643D01*
X294000Y303800D01*
X293991Y305957D01*
X293954Y306110D01*
X293894Y306255D01*
X293812Y306390D01*
X293709Y306509D01*
X293590Y306612D01*
X293455Y306694D01*
X293310Y306754D01*
X293157Y306791D01*
X293000Y306800D01*
X276000Y306795D01*
Y306805D01*
X293157Y306809D01*
X293310Y306846D01*
X293455Y306906D01*
X293590Y306988D01*
X293709Y307091D01*
X293812Y307210D01*
X293894Y307345D01*
X293954Y307490D01*
X293991Y307643D01*
X294000Y307800D01*
X293991Y309957D01*
X293954Y310110D01*
X293894Y310255D01*
X293812Y310390D01*
X293709Y310509D01*
X293590Y310612D01*
X293455Y310694D01*
X293310Y310754D01*
X293157Y310791D01*
X293000Y310800D01*
X276000Y310795D01*
Y310805D01*
X293157Y310809D01*
X293310Y310846D01*
X293455Y310906D01*
X293590Y310988D01*
X293709Y311091D01*
X293812Y311210D01*
X293894Y311345D01*
X293954Y311490D01*
X293991Y311643D01*
X294000Y311800D01*
X293991Y313957D01*
X293954Y314110D01*
X293894Y314255D01*
X293812Y314390D01*
X293709Y314509D01*
X293590Y314612D01*
X293455Y314694D01*
X293310Y314754D01*
X293157Y314791D01*
X293000Y314800D01*
X276000Y314795D01*
Y314805D01*
X293157Y314809D01*
X293310Y314846D01*
X293455Y314906D01*
X293590Y314988D01*
X293709Y315091D01*
X293812Y315210D01*
X293894Y315345D01*
X293954Y315490D01*
X293991Y315643D01*
X294000Y315800D01*
X293991Y317957D01*
X293954Y318110D01*
X293894Y318255D01*
X293812Y318390D01*
X293709Y318509D01*
X293590Y318612D01*
X293455Y318694D01*
X293310Y318754D01*
X293157Y318791D01*
X293000Y318800D01*
X276000Y318795D01*
Y318805D01*
X293157Y318809D01*
X293310Y318846D01*
X293455Y318906D01*
X293590Y318988D01*
X293709Y319091D01*
X293812Y319210D01*
X293894Y319345D01*
X293954Y319490D01*
X293991Y319643D01*
X294000Y319800D01*
X293991Y321957D01*
X293954Y322110D01*
X293894Y322255D01*
X293812Y322390D01*
X293709Y322509D01*
X293590Y322612D01*
X293455Y322694D01*
X293310Y322754D01*
X293157Y322791D01*
X293000Y322800D01*
X276000Y322795D01*
Y322805D01*
X293157Y322809D01*
X293310Y322846D01*
X293455Y322906D01*
X293590Y322988D01*
X293709Y323091D01*
X293812Y323210D01*
X293894Y323345D01*
X293954Y323490D01*
X293991Y323643D01*
X294000Y323800D01*
X293991Y325957D01*
X293954Y326110D01*
X293894Y326255D01*
X293812Y326390D01*
X293709Y326509D01*
X293590Y326612D01*
X293455Y326694D01*
X293310Y326754D01*
X293157Y326791D01*
X293000Y326800D01*
X276000Y326795D01*
Y326805D01*
X293157Y326809D01*
X293310Y326846D01*
X293455Y326906D01*
X293590Y326988D01*
X293709Y327091D01*
X293812Y327210D01*
X293894Y327345D01*
X293954Y327490D01*
X293991Y327643D01*
X294000Y327800D01*
X293991Y329957D01*
X293954Y330110D01*
X293894Y330255D01*
X293812Y330390D01*
X293709Y330509D01*
X293590Y330612D01*
X293455Y330694D01*
X293310Y330754D01*
X293157Y330791D01*
X293000Y330800D01*
X276000Y330795D01*
Y330805D01*
X293157Y330809D01*
X293310Y330846D01*
X293455Y330906D01*
X293590Y330988D01*
X293709Y331091D01*
X293812Y331210D01*
X293894Y331345D01*
X293954Y331490D01*
X293991Y331643D01*
X294000Y331800D01*
X293991Y333957D01*
X293954Y334110D01*
X293894Y334255D01*
X293812Y334390D01*
X293709Y334509D01*
X293590Y334612D01*
X293455Y334694D01*
X293310Y334754D01*
X293157Y334791D01*
X293000Y334800D01*
X276000Y334795D01*
Y334805D01*
X293157Y334809D01*
X293310Y334846D01*
X293455Y334906D01*
X293590Y334988D01*
X293709Y335091D01*
X293812Y335210D01*
X293894Y335345D01*
X293954Y335490D01*
X293991Y335643D01*
X294000Y335800D01*
X293991Y337957D01*
X293954Y338110D01*
X293894Y338255D01*
X293812Y338390D01*
X293709Y338509D01*
X293590Y338612D01*
X293455Y338694D01*
X293310Y338754D01*
X293157Y338791D01*
X293000Y338800D01*
X276000Y338795D01*
Y338805D01*
X293157Y338809D01*
X293310Y338846D01*
X293455Y338906D01*
X293590Y338988D01*
X293709Y339091D01*
X293812Y339210D01*
X293894Y339345D01*
X293954Y339490D01*
X293991Y339643D01*
X294000Y339800D01*
X293991Y341957D01*
X293954Y342110D01*
X293894Y342255D01*
X293812Y342390D01*
X293709Y342509D01*
X293590Y342612D01*
X293455Y342694D01*
X293310Y342754D01*
X293157Y342791D01*
X293000Y342800D01*
X276000Y342795D01*
Y342805D01*
X293157Y342809D01*
X293310Y342846D01*
X293455Y342906D01*
X293590Y342988D01*
X293709Y343091D01*
X293812Y343210D01*
X293894Y343345D01*
X293954Y343490D01*
X293991Y343643D01*
X294000Y343800D01*
X293991Y345957D01*
X293954Y346110D01*
X293894Y346255D01*
X293812Y346390D01*
X293709Y346509D01*
X293590Y346612D01*
X293455Y346694D01*
X293310Y346754D01*
X293157Y346791D01*
X293000Y346800D01*
X276000Y346795D01*
Y346805D01*
X293157Y346809D01*
X293310Y346846D01*
X293455Y346906D01*
X293590Y346988D01*
X293709Y347091D01*
X293812Y347210D01*
X293894Y347345D01*
X293954Y347490D01*
X293991Y347643D01*
X294000Y347800D01*
X293991Y349957D01*
X293954Y350110D01*
X293894Y350255D01*
X293812Y350390D01*
X293709Y350509D01*
X293590Y350612D01*
X293455Y350694D01*
X293310Y350754D01*
X293157Y350791D01*
X293000Y350800D01*
X276000Y350795D01*
Y350805D01*
X293157Y350809D01*
X293310Y350846D01*
X293455Y350906D01*
X293590Y350988D01*
X293709Y351091D01*
X293812Y351210D01*
X293894Y351345D01*
X293954Y351490D01*
X293991Y351643D01*
X294000Y351800D01*
X293991Y353957D01*
X293954Y354110D01*
X293894Y354255D01*
X293812Y354390D01*
X293709Y354509D01*
X293590Y354612D01*
X293455Y354694D01*
X293310Y354754D01*
X293157Y354791D01*
X293000Y354800D01*
X276000Y354795D01*
Y354805D01*
X293157Y354809D01*
X293310Y354846D01*
X293455Y354906D01*
X293590Y354988D01*
X293709Y355091D01*
X293812Y355210D01*
X293894Y355345D01*
X293954Y355490D01*
X293991Y355643D01*
X294000Y355800D01*
X293991Y357957D01*
X293954Y358110D01*
X293894Y358255D01*
X293812Y358390D01*
X293709Y358509D01*
X293590Y358612D01*
X293455Y358694D01*
X293310Y358754D01*
X293157Y358791D01*
X293000Y358800D01*
X276000Y358795D01*
Y358805D01*
X293157Y358809D01*
X293310Y358846D01*
X293455Y358906D01*
X293590Y358988D01*
X293709Y359091D01*
X293812Y359210D01*
X293894Y359345D01*
X293954Y359490D01*
X293991Y359643D01*
X294000Y359800D01*
X293991Y361957D01*
X293954Y362110D01*
X293894Y362255D01*
X293812Y362390D01*
X293709Y362509D01*
X293590Y362612D01*
X293455Y362694D01*
X293310Y362754D01*
X293157Y362791D01*
X293000Y362800D01*
X276000Y362795D01*
Y362805D01*
X293157Y362809D01*
X293310Y362846D01*
X293455Y362906D01*
X293590Y362988D01*
X293709Y363091D01*
X293812Y363210D01*
X293894Y363345D01*
X293954Y363490D01*
X293991Y363643D01*
X294000Y363800D01*
X293991Y365957D01*
X293954Y366110D01*
X293894Y366255D01*
X293812Y366390D01*
X293709Y366509D01*
X293590Y366612D01*
X293455Y366694D01*
X293310Y366754D01*
X293157Y366791D01*
X293000Y366800D01*
X276000Y366795D01*
Y366805D01*
X293157Y366809D01*
X293310Y366846D01*
X293455Y366906D01*
X293590Y366988D01*
X293709Y367091D01*
X293812Y367210D01*
X293894Y367345D01*
X293954Y367490D01*
X293991Y367643D01*
X294000Y367800D01*
X293991Y369957D01*
X293954Y370110D01*
X293894Y370255D01*
X293812Y370390D01*
X293709Y370509D01*
X293590Y370612D01*
X293455Y370694D01*
X293310Y370754D01*
X293157Y370791D01*
X293000Y370800D01*
X295122D01*
X295200Y370794D01*
X295514Y370819D01*
X295820Y370892D01*
X296111Y371012D01*
X296379Y371177D01*
X296619Y371381D01*
X296670Y371441D01*
X299359Y374130D01*
X299419Y374181D01*
X299623Y374421D01*
X299623Y374421D01*
X299788Y374689D01*
X299908Y374980D01*
X299981Y375286D01*
X300006Y375600D01*
X300000Y375678D01*
Y385522D01*
X300006Y385600D01*
X299981Y385914D01*
X299908Y386220D01*
X299788Y386511D01*
X299623Y386779D01*
X299623Y386779D01*
X299419Y387019D01*
X299359Y387070D01*
X296270Y390159D01*
X296219Y390219D01*
X295979Y390423D01*
X295979Y390423D01*
X295711Y390588D01*
X295420Y390708D01*
X295114Y390781D01*
X294800Y390806D01*
X294722Y390800D01*
X276000D01*
X276078Y390805D01*
X293157Y390809D01*
X293310Y390846D01*
X293455Y390906D01*
X293590Y390988D01*
X293709Y391091D01*
X293812Y391210D01*
X293894Y391345D01*
X293954Y391490D01*
X293991Y391643D01*
X294000Y391800D01*
X293991Y393957D01*
X293954Y394110D01*
X293894Y394255D01*
X293812Y394390D01*
X293709Y394509D01*
X293590Y394612D01*
X293455Y394694D01*
X293310Y394754D01*
X293157Y394791D01*
X293000Y394800D01*
X276078Y394795D01*
X276000Y394800D01*
Y394805D01*
X293157Y394809D01*
X293310Y394846D01*
X293455Y394906D01*
X293590Y394988D01*
X293709Y395091D01*
X293812Y395210D01*
X293894Y395345D01*
X293954Y395490D01*
X293991Y395643D01*
X294000Y395800D01*
X293991Y397957D01*
X293954Y398110D01*
X293894Y398255D01*
X293812Y398390D01*
X293709Y398509D01*
X293590Y398612D01*
X293455Y398694D01*
X293310Y398754D01*
X293157Y398791D01*
X293000Y398800D01*
X276000Y398795D01*
Y398805D01*
X293157Y398809D01*
X293310Y398846D01*
X293455Y398906D01*
X293590Y398988D01*
X293709Y399091D01*
X293812Y399210D01*
X293894Y399345D01*
X293954Y399490D01*
X293991Y399643D01*
X294000Y399800D01*
X293991Y411957D01*
X293954Y412110D01*
X293894Y412255D01*
X293812Y412390D01*
X293709Y412509D01*
X293590Y412612D01*
X293455Y412694D01*
X293310Y412754D01*
X293157Y412791D01*
X293000Y412800D01*
X276000Y412795D01*
Y441600D01*
G37*
G36*
Y262800D02*X259000D01*
X276000Y262805D01*
Y262800D01*
G37*
G36*
Y378795D02*X258843Y378791D01*
X258690Y378754D01*
X258545Y378694D01*
X258410Y378612D01*
X258291Y378509D01*
X258188Y378390D01*
X258134Y378300D01*
X179259D01*
X179200Y378305D01*
X178965Y378286D01*
X178735Y378231D01*
X178517Y378141D01*
X178316Y378017D01*
X178315Y378017D01*
X178136Y377864D01*
X178098Y377819D01*
X149981Y349702D01*
X149936Y349664D01*
X149783Y349484D01*
X149659Y349283D01*
X149569Y349065D01*
X149514Y348835D01*
X149514Y348835D01*
X149495Y348600D01*
X149500Y348541D01*
Y343221D01*
X149404Y343125D01*
X149400Y343126D01*
X149000Y343158D01*
X148600Y343126D01*
X148210Y343033D01*
X147839Y342879D01*
X147497Y342669D01*
X147191Y342409D01*
X146931Y342103D01*
X146721Y341761D01*
X146567Y341390D01*
X146500Y341110D01*
Y346979D01*
X178821Y379300D01*
X258134D01*
X258188Y379210D01*
X258291Y379091D01*
X258410Y378988D01*
X258545Y378906D01*
X258690Y378846D01*
X258843Y378809D01*
X259000Y378800D01*
X276000Y378805D01*
Y378795D01*
G37*
G36*
Y374800D02*X275922Y374795D01*
X258843Y374791D01*
X258690Y374754D01*
X258545Y374694D01*
X258410Y374612D01*
X258291Y374509D01*
X258188Y374390D01*
X258106Y374255D01*
X258046Y374110D01*
X258009Y373957D01*
X258000Y373800D01*
X258009Y371643D01*
X258046Y371490D01*
X258106Y371345D01*
X258188Y371210D01*
X258291Y371091D01*
X258410Y370988D01*
X258545Y370906D01*
X258690Y370846D01*
X258843Y370809D01*
X259000Y370800D01*
X275922Y370805D01*
X276000Y370800D01*
Y370795D01*
X258843Y370791D01*
X258690Y370754D01*
X258545Y370694D01*
X258410Y370612D01*
X258291Y370509D01*
X258188Y370390D01*
X258134Y370300D01*
X177259D01*
X177200Y370305D01*
X176965Y370286D01*
X176735Y370231D01*
X176517Y370141D01*
X176316Y370017D01*
X176315Y370017D01*
X176136Y369864D01*
X176098Y369819D01*
X157404Y351125D01*
X157400Y351126D01*
X157000Y351158D01*
X156600Y351126D01*
X156210Y351033D01*
X155839Y350879D01*
X155497Y350669D01*
X155191Y350409D01*
X154931Y350103D01*
X154721Y349761D01*
X154567Y349390D01*
X154474Y349000D01*
X154442Y348600D01*
X154474Y348200D01*
X154567Y347810D01*
X154721Y347439D01*
X154931Y347097D01*
X155191Y346791D01*
X155497Y346531D01*
X155839Y346321D01*
X156210Y346167D01*
X156600Y346074D01*
X157000Y346042D01*
X157400Y346074D01*
X157790Y346167D01*
X158161Y346321D01*
X158260Y346382D01*
X151218Y339340D01*
X151279Y339439D01*
X151433Y339810D01*
X151526Y340200D01*
X151550Y340600D01*
X151526Y341000D01*
X151525Y341004D01*
X152019Y341498D01*
X152064Y341536D01*
X152217Y341715D01*
X152217Y341716D01*
X152341Y341917D01*
X152431Y342135D01*
X152486Y342365D01*
X152505Y342600D01*
X152500Y342659D01*
Y347979D01*
X179821Y375300D01*
X258134D01*
X258188Y375210D01*
X258291Y375091D01*
X258410Y374988D01*
X258545Y374906D01*
X258690Y374846D01*
X258843Y374809D01*
X259000Y374800D01*
X276000Y374805D01*
Y374800D01*
G37*
G36*
Y394800D02*X259000D01*
X276000Y394805D01*
Y394800D01*
G37*
G36*
Y366795D02*X258843Y366791D01*
X258690Y366754D01*
X258545Y366694D01*
X258410Y366612D01*
X258291Y366509D01*
X258188Y366390D01*
X258134Y366300D01*
X178859D01*
X178800Y366305D01*
X178565Y366286D01*
X178335Y366231D01*
X178117Y366141D01*
X177916Y366017D01*
X177915Y366017D01*
X177736Y365864D01*
X177698Y365819D01*
X159218Y347340D01*
X159279Y347439D01*
X159433Y347810D01*
X159526Y348200D01*
X159550Y348600D01*
X159526Y349000D01*
X159525Y349004D01*
X177821Y367300D01*
X258134D01*
X258188Y367210D01*
X258291Y367091D01*
X258410Y366988D01*
X258545Y366906D01*
X258690Y366846D01*
X258843Y366809D01*
X259000Y366800D01*
X276000Y366805D01*
Y366795D01*
G37*
G36*
Y362795D02*X258843Y362791D01*
X258690Y362754D01*
X258545Y362694D01*
X258410Y362612D01*
X258291Y362509D01*
X258188Y362390D01*
X258134Y362300D01*
X180059D01*
X180000Y362305D01*
X179765Y362286D01*
X179535Y362231D01*
X179317Y362141D01*
X179116Y362017D01*
X179115Y362017D01*
X178936Y361864D01*
X178898Y361819D01*
X142635Y325557D01*
X142503Y325669D01*
X142161Y325879D01*
X141790Y326033D01*
X141510Y326100D01*
X141790Y326167D01*
X142161Y326321D01*
X142503Y326531D01*
X142809Y326791D01*
X143069Y327097D01*
X143130Y327196D01*
X143283Y327259D01*
X143484Y327383D01*
X143664Y327536D01*
X143702Y327581D01*
X179421Y363300D01*
X258134D01*
X258188Y363210D01*
X258291Y363091D01*
X258410Y362988D01*
X258545Y362906D01*
X258690Y362846D01*
X258843Y362809D01*
X259000Y362800D01*
X276000Y362805D01*
Y362795D01*
G37*
G36*
Y358795D02*X258843Y358791D01*
X258690Y358754D01*
X258545Y358694D01*
X258410Y358612D01*
X258291Y358509D01*
X258188Y358390D01*
X258134Y358300D01*
X181259D01*
X181200Y358305D01*
X180965Y358286D01*
X180735Y358231D01*
X180517Y358141D01*
X180316Y358017D01*
X180315Y358017D01*
X180136Y357864D01*
X180098Y357819D01*
X142743Y320465D01*
X142503Y320669D01*
X142161Y320879D01*
X141790Y321033D01*
X141510Y321100D01*
X141790Y321167D01*
X142161Y321321D01*
X142503Y321531D01*
X142809Y321791D01*
X143069Y322097D01*
X143088Y322126D01*
X143265Y322169D01*
X143483Y322259D01*
X143684Y322383D01*
X143864Y322536D01*
X143902Y322581D01*
X180621Y359300D01*
X258134D01*
X258188Y359210D01*
X258291Y359091D01*
X258410Y358988D01*
X258545Y358906D01*
X258690Y358846D01*
X258843Y358809D01*
X259000Y358800D01*
X276000Y358805D01*
Y358795D01*
G37*
G36*
Y354795D02*X258843Y354791D01*
X258690Y354754D01*
X258545Y354694D01*
X258410Y354612D01*
X258291Y354509D01*
X258188Y354390D01*
X258134Y354300D01*
X183259D01*
X183200Y354305D01*
X182965Y354286D01*
X182735Y354231D01*
X182517Y354141D01*
X182316Y354017D01*
X182315Y354017D01*
X182136Y353864D01*
X182098Y353819D01*
X143379Y315100D01*
X143071D01*
X143069Y315103D01*
X142809Y315409D01*
X142503Y315669D01*
X142161Y315879D01*
X141790Y316033D01*
X141510Y316100D01*
X141790Y316167D01*
X142161Y316321D01*
X142503Y316531D01*
X142809Y316791D01*
X143069Y317097D01*
X143072Y317101D01*
X143235Y317114D01*
X143235Y317114D01*
X143465Y317169D01*
X143683Y317259D01*
X143884Y317383D01*
X144064Y317536D01*
X144102Y317581D01*
X181821Y355300D01*
X258134D01*
X258188Y355210D01*
X258291Y355091D01*
X258410Y354988D01*
X258545Y354906D01*
X258690Y354846D01*
X258843Y354809D01*
X259000Y354800D01*
X276000Y354805D01*
Y354795D01*
G37*
G36*
Y350795D02*X258843Y350791D01*
X258690Y350754D01*
X258545Y350694D01*
X258410Y350612D01*
X258291Y350509D01*
X258188Y350390D01*
X258134Y350300D01*
X184259D01*
X184200Y350305D01*
X183965Y350286D01*
X183735Y350231D01*
X183517Y350141D01*
X183316Y350017D01*
X183315Y350017D01*
X183136Y349864D01*
X183098Y349819D01*
X143379Y310100D01*
X143071D01*
X143069Y310103D01*
X142809Y310409D01*
X142503Y310669D01*
X142161Y310879D01*
X141790Y311033D01*
X141510Y311100D01*
X141790Y311167D01*
X142161Y311321D01*
X142503Y311531D01*
X142809Y311791D01*
X143069Y312097D01*
X143071Y312100D01*
X143941D01*
X144000Y312095D01*
X144235Y312114D01*
X144235Y312114D01*
X144465Y312169D01*
X144683Y312259D01*
X144884Y312383D01*
X145064Y312536D01*
X145102Y312581D01*
X183821Y351300D01*
X258134D01*
X258188Y351210D01*
X258291Y351091D01*
X258410Y350988D01*
X258545Y350906D01*
X258690Y350846D01*
X258843Y350809D01*
X259000Y350800D01*
X276000Y350805D01*
Y350795D01*
G37*
G36*
Y346795D02*X258843Y346791D01*
X258690Y346754D01*
X258545Y346694D01*
X258410Y346612D01*
X258291Y346509D01*
X258188Y346390D01*
X258134Y346300D01*
X186259D01*
X186200Y346305D01*
X185965Y346286D01*
X185735Y346231D01*
X185517Y346141D01*
X185316Y346017D01*
X185315Y346017D01*
X185136Y345864D01*
X185098Y345819D01*
X144379Y305100D01*
X143071D01*
X143069Y305103D01*
X142809Y305409D01*
X142503Y305669D01*
X142161Y305879D01*
X141790Y306033D01*
X141510Y306100D01*
X141790Y306167D01*
X142161Y306321D01*
X142503Y306531D01*
X142809Y306791D01*
X143069Y307097D01*
X143071Y307100D01*
X143941D01*
X144000Y307095D01*
X144235Y307114D01*
X144235Y307114D01*
X144465Y307169D01*
X144683Y307259D01*
X144884Y307383D01*
X145064Y307536D01*
X145102Y307581D01*
X184821Y347300D01*
X258134D01*
X258188Y347210D01*
X258291Y347091D01*
X258410Y346988D01*
X258545Y346906D01*
X258690Y346846D01*
X258843Y346809D01*
X259000Y346800D01*
X276000Y346805D01*
Y346795D01*
G37*
G36*
Y342795D02*X258843Y342791D01*
X258690Y342754D01*
X258545Y342694D01*
X258410Y342612D01*
X258291Y342509D01*
X258188Y342390D01*
X258134Y342300D01*
X187259D01*
X187200Y342305D01*
X186965Y342286D01*
X186735Y342231D01*
X186517Y342141D01*
X186316Y342017D01*
X186315Y342017D01*
X186136Y341864D01*
X186098Y341819D01*
X144379Y300100D01*
X143071D01*
X143069Y300103D01*
X142809Y300409D01*
X142503Y300669D01*
X142161Y300879D01*
X141790Y301033D01*
X141510Y301100D01*
X141790Y301167D01*
X142161Y301321D01*
X142503Y301531D01*
X142809Y301791D01*
X143069Y302097D01*
X143071Y302100D01*
X144941D01*
X145000Y302095D01*
X145235Y302114D01*
X145235Y302114D01*
X145465Y302169D01*
X145683Y302259D01*
X145884Y302383D01*
X146064Y302536D01*
X146102Y302581D01*
X186821Y343300D01*
X258134D01*
X258188Y343210D01*
X258291Y343091D01*
X258410Y342988D01*
X258545Y342906D01*
X258690Y342846D01*
X258843Y342809D01*
X259000Y342800D01*
X276000Y342805D01*
Y342795D01*
G37*
G36*
Y338795D02*X258843Y338791D01*
X258690Y338754D01*
X258545Y338694D01*
X258410Y338612D01*
X258291Y338509D01*
X258188Y338390D01*
X258134Y338300D01*
X188259D01*
X188200Y338305D01*
X187965Y338286D01*
X187735Y338231D01*
X187517Y338141D01*
X187316Y338017D01*
X187315Y338017D01*
X187136Y337864D01*
X187098Y337819D01*
X144379Y295100D01*
X143071D01*
X143069Y295103D01*
X142809Y295409D01*
X142503Y295669D01*
X142161Y295879D01*
X141790Y296033D01*
X141510Y296100D01*
X141790Y296167D01*
X142161Y296321D01*
X142503Y296531D01*
X142809Y296791D01*
X143069Y297097D01*
X143071Y297100D01*
X144941D01*
X145000Y297095D01*
X145235Y297114D01*
X145235Y297114D01*
X145465Y297169D01*
X145683Y297259D01*
X145884Y297383D01*
X146064Y297536D01*
X146102Y297581D01*
X187821Y339300D01*
X258134D01*
X258188Y339210D01*
X258291Y339091D01*
X258410Y338988D01*
X258545Y338906D01*
X258690Y338846D01*
X258843Y338809D01*
X259000Y338800D01*
X276000Y338805D01*
Y338795D01*
G37*
G36*
X202259Y326300D02*X202200Y326305D01*
X201965Y326286D01*
X201735Y326231D01*
X201517Y326141D01*
X201316Y326017D01*
X201315Y326017D01*
X201136Y325864D01*
X201098Y325819D01*
X190379Y315100D01*
X178071D01*
X178069Y315103D01*
X177809Y315409D01*
X177503Y315669D01*
X177161Y315879D01*
X176790Y316033D01*
X176400Y316126D01*
X176000Y316158D01*
X175600Y316126D01*
X175210Y316033D01*
X174839Y315879D01*
X174497Y315669D01*
X174191Y315409D01*
X173931Y315103D01*
X173721Y314761D01*
X173567Y314390D01*
X173474Y314000D01*
X173442Y313600D01*
X173474Y313200D01*
X173567Y312810D01*
X173721Y312439D01*
X173931Y312097D01*
X174191Y311791D01*
X174497Y311531D01*
X174839Y311321D01*
X175210Y311167D01*
X175600Y311074D01*
X176000Y311042D01*
X176400Y311074D01*
X176790Y311167D01*
X177161Y311321D01*
X177503Y311531D01*
X177809Y311791D01*
X178069Y312097D01*
X178071Y312100D01*
X190941D01*
X191000Y312095D01*
X191235Y312114D01*
X191235Y312114D01*
X191465Y312169D01*
X191683Y312259D01*
X191884Y312383D01*
X192064Y312536D01*
X192102Y312581D01*
X202821Y323300D01*
X258134D01*
X258188Y323210D01*
X258291Y323091D01*
X258410Y322988D01*
X258545Y322906D01*
X258690Y322846D01*
X258843Y322809D01*
X259000Y322800D01*
X276000Y322805D01*
Y322795D01*
X258843Y322791D01*
X258690Y322754D01*
X258545Y322694D01*
X258410Y322612D01*
X258291Y322509D01*
X258188Y322390D01*
X258134Y322300D01*
X203259D01*
X203200Y322305D01*
X202965Y322286D01*
X202735Y322231D01*
X202517Y322141D01*
X202316Y322017D01*
X202315Y322017D01*
X202136Y321864D01*
X202098Y321819D01*
X190379Y310100D01*
X172071D01*
X172069Y310103D01*
X171809Y310409D01*
X171503Y310669D01*
X171161Y310879D01*
X170790Y311033D01*
X170400Y311126D01*
X170000Y311158D01*
X169600Y311126D01*
X169210Y311033D01*
X168839Y310879D01*
X168497Y310669D01*
X168191Y310409D01*
X167931Y310103D01*
X167721Y309761D01*
X167567Y309390D01*
X167474Y309000D01*
X167442Y308600D01*
X167474Y308200D01*
X167567Y307810D01*
X167721Y307439D01*
X167931Y307097D01*
X168191Y306791D01*
X168497Y306531D01*
X168839Y306321D01*
X169210Y306167D01*
X169600Y306074D01*
X170000Y306042D01*
X170400Y306074D01*
X170790Y306167D01*
X171161Y306321D01*
X171503Y306531D01*
X171809Y306791D01*
X172069Y307097D01*
X172071Y307100D01*
X190941D01*
X191000Y307095D01*
X191235Y307114D01*
X191235Y307114D01*
X191465Y307169D01*
X191683Y307259D01*
X191884Y307383D01*
X192064Y307536D01*
X192102Y307581D01*
X203821Y319300D01*
X258134D01*
X258188Y319210D01*
X258291Y319091D01*
X258410Y318988D01*
X258545Y318906D01*
X258690Y318846D01*
X258843Y318809D01*
X259000Y318800D01*
X276000Y318805D01*
Y318795D01*
X258843Y318791D01*
X258690Y318754D01*
X258545Y318694D01*
X258410Y318612D01*
X258291Y318509D01*
X258188Y318390D01*
X258134Y318300D01*
X204259D01*
X204200Y318305D01*
X203965Y318286D01*
X203735Y318231D01*
X203517Y318141D01*
X203316Y318017D01*
X203315Y318017D01*
X203136Y317864D01*
X203098Y317819D01*
X190379Y305100D01*
X166071D01*
X166069Y305103D01*
X165809Y305409D01*
X165503Y305669D01*
X165161Y305879D01*
X164790Y306033D01*
X164400Y306126D01*
X164000Y306158D01*
X163600Y306126D01*
X163210Y306033D01*
X162839Y305879D01*
X162497Y305669D01*
X162191Y305409D01*
X161931Y305103D01*
X161721Y304761D01*
X161567Y304390D01*
X161474Y304000D01*
X161442Y303600D01*
X161474Y303200D01*
X161567Y302810D01*
X161721Y302439D01*
X161931Y302097D01*
X162191Y301791D01*
X162497Y301531D01*
X162839Y301321D01*
X163210Y301167D01*
X163600Y301074D01*
X164000Y301042D01*
X164400Y301074D01*
X164790Y301167D01*
X165161Y301321D01*
X165503Y301531D01*
X165809Y301791D01*
X166069Y302097D01*
X166071Y302100D01*
X190941D01*
X191000Y302095D01*
X191235Y302114D01*
X191235Y302114D01*
X191465Y302169D01*
X191683Y302259D01*
X191884Y302383D01*
X192064Y302536D01*
X192102Y302581D01*
X204821Y315300D01*
X258134D01*
X258188Y315210D01*
X258291Y315091D01*
X258410Y314988D01*
X258545Y314906D01*
X258690Y314846D01*
X258843Y314809D01*
X259000Y314800D01*
X276000Y314805D01*
Y314795D01*
X258843Y314791D01*
X258690Y314754D01*
X258545Y314694D01*
X258410Y314612D01*
X258291Y314509D01*
X258188Y314390D01*
X258134Y314300D01*
X205259D01*
X205200Y314305D01*
X204965Y314286D01*
X204735Y314231D01*
X204517Y314141D01*
X204316Y314017D01*
X204315Y314017D01*
X204136Y313864D01*
X204098Y313819D01*
X190379Y300100D01*
X160071D01*
X160069Y300103D01*
X159809Y300409D01*
X159503Y300669D01*
X159161Y300879D01*
X158790Y301033D01*
X158400Y301126D01*
X158000Y301158D01*
X157600Y301126D01*
X157210Y301033D01*
X156839Y300879D01*
X156497Y300669D01*
X156191Y300409D01*
X155931Y300103D01*
X155721Y299761D01*
X155567Y299390D01*
X155474Y299000D01*
X155442Y298600D01*
X155474Y298200D01*
X155567Y297810D01*
X155721Y297439D01*
X155931Y297097D01*
X156191Y296791D01*
X156497Y296531D01*
X156839Y296321D01*
X157210Y296167D01*
X157600Y296074D01*
X158000Y296042D01*
X158400Y296074D01*
X158790Y296167D01*
X159161Y296321D01*
X159503Y296531D01*
X159809Y296791D01*
X160069Y297097D01*
X160071Y297100D01*
X190941D01*
X191000Y297095D01*
X191235Y297114D01*
X191235Y297114D01*
X191465Y297169D01*
X191683Y297259D01*
X191884Y297383D01*
X192064Y297536D01*
X192102Y297581D01*
X205821Y311300D01*
X258134D01*
X258188Y311210D01*
X258291Y311091D01*
X258410Y310988D01*
X258545Y310906D01*
X258690Y310846D01*
X258843Y310809D01*
X259000Y310800D01*
X276000Y310805D01*
Y310795D01*
X258843Y310791D01*
X258690Y310754D01*
X258545Y310694D01*
X258410Y310612D01*
X258291Y310509D01*
X258188Y310390D01*
X258134Y310300D01*
X206259D01*
X206200Y310305D01*
X205965Y310286D01*
X205735Y310231D01*
X205517Y310141D01*
X205316Y310017D01*
X205315Y310017D01*
X205136Y309864D01*
X205098Y309819D01*
X190379Y295100D01*
X154071D01*
X154069Y295103D01*
X153809Y295409D01*
X153503Y295669D01*
X153161Y295879D01*
X152790Y296033D01*
X152400Y296126D01*
X152000Y296158D01*
X151600Y296126D01*
X151210Y296033D01*
X150839Y295879D01*
X150497Y295669D01*
X150191Y295409D01*
X149931Y295103D01*
X149721Y294761D01*
X149567Y294390D01*
X149474Y294000D01*
X149442Y293600D01*
X149474Y293200D01*
X149567Y292810D01*
X149721Y292439D01*
X149931Y292097D01*
X150191Y291791D01*
X150497Y291531D01*
X150839Y291321D01*
X151210Y291167D01*
X151600Y291074D01*
X152000Y291042D01*
X152400Y291074D01*
X152790Y291167D01*
X153161Y291321D01*
X153503Y291531D01*
X153809Y291791D01*
X154069Y292097D01*
X154071Y292100D01*
X190941D01*
X191000Y292095D01*
X191235Y292114D01*
X191235Y292114D01*
X191465Y292169D01*
X191683Y292259D01*
X191884Y292383D01*
X192064Y292536D01*
X192102Y292581D01*
X206821Y307300D01*
X258134D01*
X258188Y307210D01*
X258291Y307091D01*
X258410Y306988D01*
X258545Y306906D01*
X258690Y306846D01*
X258843Y306809D01*
X259000Y306800D01*
X276000Y306805D01*
Y306795D01*
X258843Y306791D01*
X258690Y306754D01*
X258545Y306694D01*
X258410Y306612D01*
X258291Y306509D01*
X258188Y306390D01*
X258134Y306300D01*
X207259D01*
X207200Y306305D01*
X206965Y306286D01*
X206735Y306231D01*
X206517Y306141D01*
X206316Y306017D01*
X206315Y306017D01*
X206136Y305864D01*
X206098Y305819D01*
X190379Y290100D01*
X143071D01*
X143069Y290103D01*
X142809Y290409D01*
X142503Y290669D01*
X142161Y290879D01*
X141790Y291033D01*
X141510Y291100D01*
X141790Y291167D01*
X142161Y291321D01*
X142503Y291531D01*
X142809Y291791D01*
X143069Y292097D01*
X143071Y292100D01*
X144941D01*
X145000Y292095D01*
X145235Y292114D01*
X145235Y292114D01*
X145465Y292169D01*
X145683Y292259D01*
X145884Y292383D01*
X146064Y292536D01*
X146102Y292581D01*
X188821Y335300D01*
X258134D01*
X258188Y335210D01*
X258291Y335091D01*
X258410Y334988D01*
X258545Y334906D01*
X258690Y334846D01*
X258843Y334809D01*
X259000Y334800D01*
X276000Y334805D01*
Y334795D01*
X258843Y334791D01*
X258690Y334754D01*
X258545Y334694D01*
X258410Y334612D01*
X258291Y334509D01*
X258188Y334390D01*
X258134Y334300D01*
X197259D01*
X197200Y334305D01*
X196965Y334286D01*
X196735Y334231D01*
X196517Y334141D01*
X196316Y334017D01*
X196315Y334017D01*
X196136Y333864D01*
X196098Y333819D01*
X188404Y326125D01*
X188400Y326126D01*
X188000Y326158D01*
X187600Y326126D01*
X187210Y326033D01*
X186839Y325879D01*
X186497Y325669D01*
X186191Y325409D01*
X185931Y325103D01*
X185721Y324761D01*
X185567Y324390D01*
X185474Y324000D01*
X185442Y323600D01*
X185474Y323200D01*
X185567Y322810D01*
X185721Y322439D01*
X185931Y322097D01*
X186191Y321791D01*
X186497Y321531D01*
X186839Y321321D01*
X187210Y321167D01*
X187600Y321074D01*
X188000Y321042D01*
X188400Y321074D01*
X188790Y321167D01*
X189161Y321321D01*
X189503Y321531D01*
X189809Y321791D01*
X190069Y322097D01*
X190279Y322439D01*
X190433Y322810D01*
X190526Y323200D01*
X190550Y323600D01*
X190526Y324000D01*
X190525Y324004D01*
X197821Y331300D01*
X258134D01*
X258188Y331210D01*
X258291Y331091D01*
X258410Y330988D01*
X258545Y330906D01*
X258690Y330846D01*
X258843Y330809D01*
X259000Y330800D01*
X276000Y330805D01*
Y330795D01*
X258843Y330791D01*
X258690Y330754D01*
X258545Y330694D01*
X258410Y330612D01*
X258291Y330509D01*
X258188Y330390D01*
X258134Y330300D01*
X200259D01*
X200200Y330305D01*
X199965Y330286D01*
X199735Y330231D01*
X199517Y330141D01*
X199316Y330017D01*
X199315Y330017D01*
X199136Y329864D01*
X199098Y329819D01*
X189379Y320100D01*
X184071D01*
X184069Y320103D01*
X183809Y320409D01*
X183503Y320669D01*
X183161Y320879D01*
X182790Y321033D01*
X182400Y321126D01*
X182000Y321158D01*
X181600Y321126D01*
X181210Y321033D01*
X180839Y320879D01*
X180497Y320669D01*
X180191Y320409D01*
X179931Y320103D01*
X179721Y319761D01*
X179567Y319390D01*
X179474Y319000D01*
X179442Y318600D01*
X179474Y318200D01*
X179567Y317810D01*
X179721Y317439D01*
X179931Y317097D01*
X180191Y316791D01*
X180497Y316531D01*
X180839Y316321D01*
X181210Y316167D01*
X181600Y316074D01*
X182000Y316042D01*
X182400Y316074D01*
X182790Y316167D01*
X183161Y316321D01*
X183503Y316531D01*
X183809Y316791D01*
X184069Y317097D01*
X184071Y317100D01*
X189941D01*
X190000Y317095D01*
X190235Y317114D01*
X190235Y317114D01*
X190465Y317169D01*
X190683Y317259D01*
X190884Y317383D01*
X191064Y317536D01*
X191102Y317581D01*
X200821Y327300D01*
X258134D01*
X258188Y327210D01*
X258291Y327091D01*
X258410Y326988D01*
X258545Y326906D01*
X258690Y326846D01*
X258843Y326809D01*
X259000Y326800D01*
X276000Y326805D01*
Y326795D01*
X258843Y326791D01*
X258690Y326754D01*
X258545Y326694D01*
X258410Y326612D01*
X258291Y326509D01*
X258188Y326390D01*
X258134Y326300D01*
X202259D01*
G37*
G36*
X206496Y383300D02*X258134D01*
X258188Y383210D01*
X258291Y383091D01*
X258410Y382988D01*
X258545Y382906D01*
X258690Y382846D01*
X258843Y382809D01*
X259000Y382800D01*
X276000Y382805D01*
Y382795D01*
X258843Y382791D01*
X258690Y382754D01*
X258545Y382694D01*
X258410Y382612D01*
X258291Y382509D01*
X258188Y382390D01*
X258134Y382300D01*
X206496D01*
Y383300D01*
G37*
G36*
Y441600D02*X276000D01*
Y412795D01*
X258843Y412791D01*
X258690Y412754D01*
X258545Y412694D01*
X258410Y412612D01*
X258291Y412509D01*
X258188Y412390D01*
X258106Y412255D01*
X258046Y412110D01*
X258009Y411957D01*
X258000Y411800D01*
X258009Y399643D01*
X258046Y399490D01*
X258106Y399345D01*
X258188Y399210D01*
X258291Y399091D01*
X258410Y398988D01*
X258545Y398906D01*
X258690Y398846D01*
X258843Y398809D01*
X259000Y398800D01*
X276000Y398805D01*
Y398795D01*
X258843Y398791D01*
X258690Y398754D01*
X258545Y398694D01*
X258410Y398612D01*
X258291Y398509D01*
X258188Y398390D01*
X258106Y398255D01*
X258046Y398110D01*
X258009Y397957D01*
X258000Y397800D01*
X258009Y395643D01*
X258046Y395490D01*
X258106Y395345D01*
X258188Y395210D01*
X258291Y395091D01*
X258410Y394988D01*
X258545Y394906D01*
X258690Y394846D01*
X258843Y394809D01*
X259000Y394800D01*
X255278D01*
X255200Y394806D01*
X254886Y394781D01*
X254580Y394708D01*
X254289Y394588D01*
X254021Y394423D01*
X254021Y394423D01*
X253781Y394219D01*
X253730Y394159D01*
X253168Y393596D01*
X253000Y393609D01*
X252529Y393572D01*
X252070Y393462D01*
X251634Y393281D01*
X251231Y393035D01*
X250872Y392728D01*
X250565Y392369D01*
X250319Y391966D01*
X250138Y391530D01*
X250028Y391071D01*
X249991Y390600D01*
X250028Y390129D01*
X250138Y389670D01*
X250319Y389234D01*
X250565Y388831D01*
X250872Y388472D01*
X251231Y388165D01*
X251634Y387919D01*
X252070Y387738D01*
X252529Y387628D01*
X253000Y387591D01*
X253168Y387604D01*
X253330Y387441D01*
X253381Y387381D01*
X253621Y387177D01*
X253621Y387177D01*
X253889Y387012D01*
X254095Y386927D01*
X254180Y386892D01*
X254254Y386874D01*
X254486Y386819D01*
X254800Y386794D01*
X254878Y386800D01*
X276000D01*
Y386795D01*
X258843Y386791D01*
X258690Y386754D01*
X258545Y386694D01*
X258410Y386612D01*
X258291Y386509D01*
X258188Y386390D01*
X258134Y386300D01*
X206496D01*
Y441600D01*
G37*
G36*
X236019Y214498D02*X236064Y214536D01*
X236217Y214715D01*
X236217Y214716D01*
X236341Y214917D01*
X236431Y215135D01*
X236486Y215365D01*
X236505Y215600D01*
X236500Y215659D01*
Y285979D01*
X247596Y297075D01*
X247600Y297074D01*
X248000Y297042D01*
X248400Y297074D01*
X248790Y297167D01*
X249161Y297321D01*
X249503Y297531D01*
X249809Y297791D01*
X250069Y298097D01*
X250279Y298439D01*
X250433Y298810D01*
X250526Y299200D01*
X250550Y299600D01*
X250526Y300000D01*
X250433Y300390D01*
X250279Y300761D01*
X250069Y301103D01*
X249809Y301409D01*
X249503Y301669D01*
X249161Y301879D01*
X248790Y302033D01*
X248400Y302126D01*
X248000Y302158D01*
X247600Y302126D01*
X247210Y302033D01*
X246839Y301879D01*
X246497Y301669D01*
X246191Y301409D01*
X245931Y301103D01*
X245721Y300761D01*
X245567Y300390D01*
X245474Y300000D01*
X245442Y299600D01*
X245474Y299200D01*
X245475Y299196D01*
X233981Y287702D01*
X233936Y287664D01*
X233783Y287484D01*
X233659Y287283D01*
X233569Y287065D01*
X233514Y286835D01*
X233514Y286835D01*
X233495Y286600D01*
X233500Y286541D01*
Y216221D01*
X232379Y215100D01*
X229059D01*
X229000Y215105D01*
X228765Y215086D01*
X228535Y215031D01*
X228317Y214941D01*
X228116Y214817D01*
X228115Y214817D01*
X227936Y214664D01*
X227898Y214619D01*
X227404Y214125D01*
X227400Y214126D01*
X227000Y214158D01*
X226600Y214126D01*
X226210Y214033D01*
X225839Y213879D01*
X225497Y213669D01*
X225191Y213409D01*
X224931Y213103D01*
X224721Y212761D01*
X224567Y212390D01*
X224474Y212000D01*
X224442Y211600D01*
X224474Y211200D01*
X224567Y210810D01*
X224721Y210439D01*
X224931Y210097D01*
X225191Y209791D01*
X225415Y209600D01*
X206496D01*
Y259975D01*
X207621Y261100D01*
X216929D01*
X216931Y261097D01*
X217191Y260791D01*
X217497Y260531D01*
X217839Y260321D01*
X218210Y260167D01*
X218600Y260074D01*
X219000Y260042D01*
X219400Y260074D01*
X219790Y260167D01*
X220161Y260321D01*
X220503Y260531D01*
X220809Y260791D01*
X221069Y261097D01*
X221279Y261439D01*
X221433Y261810D01*
X221526Y262200D01*
X221550Y262600D01*
X221526Y263000D01*
X221433Y263390D01*
X221279Y263761D01*
X221069Y264103D01*
X220809Y264409D01*
X220503Y264669D01*
X220161Y264879D01*
X219790Y265033D01*
X219400Y265126D01*
X219000Y265158D01*
X218600Y265126D01*
X218210Y265033D01*
X217839Y264879D01*
X217497Y264669D01*
X217191Y264409D01*
X216931Y264103D01*
X216929Y264100D01*
X207059D01*
X207000Y264105D01*
X206765Y264086D01*
X206535Y264031D01*
X206496Y264015D01*
Y301975D01*
X207821Y303300D01*
X258134D01*
X258188Y303210D01*
X258291Y303091D01*
X258410Y302988D01*
X258545Y302906D01*
X258690Y302846D01*
X258843Y302809D01*
X259000Y302800D01*
X276000Y302805D01*
Y302795D01*
X258843Y302791D01*
X258690Y302754D01*
X258545Y302694D01*
X258410Y302612D01*
X258291Y302509D01*
X258188Y302390D01*
X258106Y302255D01*
X258046Y302110D01*
X258009Y301957D01*
X258000Y301800D01*
X258009Y299643D01*
X258046Y299490D01*
X258106Y299345D01*
X258188Y299210D01*
X258291Y299091D01*
X258410Y298988D01*
X258545Y298906D01*
X258690Y298846D01*
X258843Y298809D01*
X259000Y298800D01*
X276000Y298805D01*
Y298795D01*
X258843Y298791D01*
X258690Y298754D01*
X258545Y298694D01*
X258410Y298612D01*
X258291Y298509D01*
X258188Y298390D01*
X258106Y298255D01*
X258046Y298110D01*
X258009Y297957D01*
X258000Y297800D01*
X258009Y295643D01*
X258046Y295490D01*
X258106Y295345D01*
X258188Y295210D01*
X258291Y295091D01*
X258410Y294988D01*
X258545Y294906D01*
X258690Y294846D01*
X258843Y294809D01*
X259000Y294800D01*
X276000Y294805D01*
Y294795D01*
X258843Y294791D01*
X258690Y294754D01*
X258545Y294694D01*
X258410Y294612D01*
X258291Y294509D01*
X258188Y294390D01*
X258106Y294255D01*
X258046Y294110D01*
X258009Y293957D01*
X258000Y293800D01*
X258009Y291643D01*
X258046Y291490D01*
X258106Y291345D01*
X258188Y291210D01*
X258291Y291091D01*
X258410Y290988D01*
X258545Y290906D01*
X258690Y290846D01*
X258843Y290809D01*
X259000Y290800D01*
X276000Y290805D01*
Y290795D01*
X258843Y290791D01*
X258690Y290754D01*
X258545Y290694D01*
X258410Y290612D01*
X258291Y290509D01*
X258188Y290390D01*
X258106Y290255D01*
X258046Y290110D01*
X258009Y289957D01*
X258000Y289800D01*
X258009Y287643D01*
X258046Y287490D01*
X258106Y287345D01*
X258188Y287210D01*
X258291Y287091D01*
X258410Y286988D01*
X258545Y286906D01*
X258690Y286846D01*
X258843Y286809D01*
X259000Y286800D01*
X276000Y286805D01*
Y286795D01*
X258843Y286791D01*
X258690Y286754D01*
X258545Y286694D01*
X258410Y286612D01*
X258291Y286509D01*
X258188Y286390D01*
X258106Y286255D01*
X258046Y286110D01*
X258009Y285957D01*
X258000Y285800D01*
X258009Y283643D01*
X258046Y283490D01*
X258106Y283345D01*
X258188Y283210D01*
X258291Y283091D01*
X258410Y282988D01*
X258545Y282906D01*
X258690Y282846D01*
X258843Y282809D01*
X259000Y282800D01*
X276000Y282805D01*
Y282795D01*
X258843Y282791D01*
X258690Y282754D01*
X258545Y282694D01*
X258410Y282612D01*
X258291Y282509D01*
X258188Y282390D01*
X258106Y282255D01*
X258046Y282110D01*
X258009Y281957D01*
X258000Y281800D01*
X258009Y279643D01*
X258046Y279490D01*
X258106Y279345D01*
X258188Y279210D01*
X258291Y279091D01*
X258410Y278988D01*
X258545Y278906D01*
X258690Y278846D01*
X258843Y278809D01*
X259000Y278800D01*
X276000Y278805D01*
Y278795D01*
X258843Y278791D01*
X258690Y278754D01*
X258545Y278694D01*
X258410Y278612D01*
X258291Y278509D01*
X258188Y278390D01*
X258106Y278255D01*
X258046Y278110D01*
X258009Y277957D01*
X258000Y277800D01*
X258009Y275643D01*
X258046Y275490D01*
X258106Y275345D01*
X258188Y275210D01*
X258291Y275091D01*
X258410Y274988D01*
X258545Y274906D01*
X258690Y274846D01*
X258843Y274809D01*
X259000Y274800D01*
X276000Y274805D01*
Y274795D01*
X258843Y274791D01*
X258690Y274754D01*
X258545Y274694D01*
X258410Y274612D01*
X258291Y274509D01*
X258188Y274390D01*
X258106Y274255D01*
X258046Y274110D01*
X258009Y273957D01*
X258000Y273800D01*
X258009Y271643D01*
X258046Y271490D01*
X258106Y271345D01*
X258188Y271210D01*
X258291Y271091D01*
X258410Y270988D01*
X258545Y270906D01*
X258690Y270846D01*
X258843Y270809D01*
X259000Y270800D01*
X276000Y270805D01*
Y270795D01*
X258843Y270791D01*
X258690Y270754D01*
X258545Y270694D01*
X258410Y270612D01*
X258291Y270509D01*
X258188Y270390D01*
X258106Y270255D01*
X258046Y270110D01*
X258009Y269957D01*
X258000Y269800D01*
X258009Y267643D01*
X258046Y267490D01*
X258106Y267345D01*
X258188Y267210D01*
X258291Y267091D01*
X258410Y266988D01*
X258545Y266906D01*
X258690Y266846D01*
X258843Y266809D01*
X259000Y266800D01*
X276000Y266805D01*
Y266795D01*
X258843Y266791D01*
X258690Y266754D01*
X258545Y266694D01*
X258410Y266612D01*
X258291Y266509D01*
X258188Y266390D01*
X258106Y266255D01*
X258046Y266110D01*
X258009Y265957D01*
X258000Y265800D01*
X258009Y263643D01*
X258046Y263490D01*
X258106Y263345D01*
X258188Y263210D01*
X258291Y263091D01*
X258410Y262988D01*
X258545Y262906D01*
X258690Y262846D01*
X258843Y262809D01*
X259000Y262800D01*
X255000D01*
Y269363D01*
X255128Y269472D01*
X255435Y269831D01*
X255681Y270234D01*
X255862Y270670D01*
X255972Y271129D01*
X256000Y271600D01*
X255972Y272071D01*
X255862Y272530D01*
X255681Y272966D01*
X255435Y273369D01*
X255128Y273728D01*
X254769Y274035D01*
X254366Y274281D01*
X253930Y274462D01*
X253471Y274572D01*
X253000Y274609D01*
X252529Y274572D01*
X252070Y274462D01*
X251634Y274281D01*
X251231Y274035D01*
X250872Y273728D01*
X250565Y273369D01*
X250319Y272966D01*
X250138Y272530D01*
X250028Y272071D01*
X249991Y271600D01*
X250028Y271129D01*
X250138Y270670D01*
X250319Y270234D01*
X250565Y269831D01*
X250872Y269472D01*
X251000Y269363D01*
Y261678D01*
X250994Y261600D01*
X251019Y261286D01*
X251074Y261054D01*
X251092Y260980D01*
X251127Y260895D01*
X251212Y260689D01*
X251377Y260421D01*
X251377Y260421D01*
X251581Y260181D01*
X251641Y260130D01*
X252330Y259441D01*
X252381Y259381D01*
X252508Y259273D01*
X252586Y259186D01*
X256330Y255441D01*
X256381Y255381D01*
X256621Y255177D01*
X256621Y255177D01*
X256889Y255012D01*
X257095Y254927D01*
X257180Y254892D01*
X257254Y254874D01*
X257486Y254819D01*
X257800Y254794D01*
X257878Y254800D01*
X276000D01*
Y254795D01*
X258843Y254791D01*
X258690Y254754D01*
X258545Y254694D01*
X258410Y254612D01*
X258291Y254509D01*
X258188Y254390D01*
X258106Y254255D01*
X258046Y254110D01*
X258009Y253957D01*
X258000Y253800D01*
X258009Y251643D01*
X258046Y251490D01*
X258106Y251345D01*
X258188Y251210D01*
X258291Y251091D01*
X258410Y250988D01*
X258545Y250906D01*
X258690Y250846D01*
X258843Y250809D01*
X259000Y250800D01*
X276000Y250805D01*
Y250795D01*
X258843Y250791D01*
X258690Y250754D01*
X258545Y250694D01*
X258410Y250612D01*
X258291Y250509D01*
X258188Y250390D01*
X258106Y250255D01*
X258046Y250110D01*
X258009Y249957D01*
X258000Y249800D01*
X258009Y237643D01*
X258046Y237490D01*
X258106Y237345D01*
X258188Y237210D01*
X258291Y237091D01*
X258410Y236988D01*
X258545Y236906D01*
X258690Y236846D01*
X258843Y236809D01*
X259000Y236800D01*
X276000Y236805D01*
Y209600D01*
X257585D01*
X257809Y209791D01*
X258069Y210097D01*
X258279Y210439D01*
X258433Y210810D01*
X258526Y211200D01*
X258550Y211600D01*
X258526Y212000D01*
X258433Y212390D01*
X258279Y212761D01*
X258069Y213103D01*
X257809Y213409D01*
X257503Y213669D01*
X257500Y213671D01*
Y215541D01*
X257505Y215600D01*
X257486Y215835D01*
X257431Y216065D01*
X257341Y216283D01*
X257217Y216484D01*
X257064Y216664D01*
X257019Y216702D01*
X255500Y218221D01*
Y226529D01*
X255503Y226531D01*
X255809Y226791D01*
X256069Y227097D01*
X256279Y227439D01*
X256433Y227810D01*
X256526Y228200D01*
X256550Y228600D01*
X256526Y229000D01*
X256433Y229390D01*
X256279Y229761D01*
X256069Y230103D01*
X255809Y230409D01*
X255503Y230669D01*
X255161Y230879D01*
X254790Y231033D01*
X254400Y231126D01*
X254000Y231158D01*
X253600Y231126D01*
X253210Y231033D01*
X252839Y230879D01*
X252497Y230669D01*
X252191Y230409D01*
X251931Y230103D01*
X251721Y229761D01*
X251567Y229390D01*
X251474Y229000D01*
X251442Y228600D01*
X251474Y228200D01*
X251567Y227810D01*
X251721Y227439D01*
X251931Y227097D01*
X252191Y226791D01*
X252497Y226531D01*
X252500Y226529D01*
Y217659D01*
X252495Y217600D01*
X252514Y217365D01*
X252569Y217135D01*
X252659Y216917D01*
X252783Y216716D01*
X252936Y216536D01*
X252981Y216498D01*
X254500Y214979D01*
Y213671D01*
X254497Y213669D01*
X254191Y213409D01*
X253931Y213103D01*
X253721Y212761D01*
X253567Y212390D01*
X253500Y212110D01*
X253433Y212390D01*
X253279Y212761D01*
X253069Y213103D01*
X252809Y213409D01*
X252503Y213669D01*
X252500Y213671D01*
Y214541D01*
X252505Y214600D01*
X252486Y214835D01*
X252431Y215065D01*
X252341Y215283D01*
X252217Y215484D01*
X252064Y215664D01*
X252019Y215702D01*
X249500Y218221D01*
Y283529D01*
X249503Y283531D01*
X249809Y283791D01*
X250069Y284097D01*
X250279Y284439D01*
X250433Y284810D01*
X250526Y285200D01*
X250550Y285600D01*
X250526Y286000D01*
X250433Y286390D01*
X250279Y286761D01*
X250069Y287103D01*
X249809Y287409D01*
X249503Y287669D01*
X249161Y287879D01*
X248790Y288033D01*
X248400Y288126D01*
X248000Y288158D01*
X247600Y288126D01*
X247210Y288033D01*
X246839Y287879D01*
X246497Y287669D01*
X246191Y287409D01*
X245931Y287103D01*
X245721Y286761D01*
X245567Y286390D01*
X245474Y286000D01*
X245442Y285600D01*
X245474Y285200D01*
X245567Y284810D01*
X245721Y284439D01*
X245931Y284097D01*
X246191Y283791D01*
X246497Y283531D01*
X246500Y283529D01*
Y217659D01*
X246495Y217600D01*
X246514Y217365D01*
X246569Y217135D01*
X246659Y216917D01*
X246783Y216716D01*
X246936Y216536D01*
X246981Y216498D01*
X249500Y213979D01*
Y213671D01*
X249497Y213669D01*
X249191Y213409D01*
X248931Y213103D01*
X248721Y212761D01*
X248567Y212390D01*
X248474Y212000D01*
X248442Y211600D01*
X248474Y211200D01*
X248567Y210810D01*
X248721Y210439D01*
X248931Y210097D01*
X249191Y209791D01*
X249415Y209600D01*
X240585D01*
X240809Y209791D01*
X241069Y210097D01*
X241279Y210439D01*
X241433Y210810D01*
X241526Y211200D01*
X241550Y211600D01*
X241526Y212000D01*
X241433Y212390D01*
X241279Y212761D01*
X241069Y213103D01*
X240865Y213343D01*
X242019Y214498D01*
X242064Y214536D01*
X242217Y214715D01*
X242217Y214716D01*
X242341Y214917D01*
X242431Y215135D01*
X242486Y215365D01*
X242505Y215600D01*
X242500Y215659D01*
Y283979D01*
X250596Y292075D01*
X250600Y292074D01*
X251000Y292042D01*
X251400Y292074D01*
X251790Y292167D01*
X252161Y292321D01*
X252503Y292531D01*
X252809Y292791D01*
X253069Y293097D01*
X253279Y293439D01*
X253433Y293810D01*
X253526Y294200D01*
X253550Y294600D01*
X253526Y295000D01*
X253433Y295390D01*
X253279Y295761D01*
X253069Y296103D01*
X252809Y296409D01*
X252503Y296669D01*
X252161Y296879D01*
X251790Y297033D01*
X251400Y297126D01*
X251000Y297158D01*
X250600Y297126D01*
X250210Y297033D01*
X249839Y296879D01*
X249497Y296669D01*
X249191Y296409D01*
X248931Y296103D01*
X248721Y295761D01*
X248567Y295390D01*
X248474Y295000D01*
X248442Y294600D01*
X248474Y294200D01*
X248475Y294196D01*
X239981Y285702D01*
X239936Y285664D01*
X239783Y285484D01*
X239659Y285283D01*
X239569Y285065D01*
X239514Y284835D01*
X239514Y284835D01*
X239495Y284600D01*
X239500Y284541D01*
Y216221D01*
X237981Y214702D01*
X237936Y214664D01*
X237783Y214484D01*
X237659Y214283D01*
X237569Y214065D01*
X237514Y213835D01*
X237514Y213835D01*
X237501Y213672D01*
X237497Y213669D01*
X237191Y213409D01*
X236931Y213103D01*
X236721Y212761D01*
X236567Y212390D01*
X236474Y212000D01*
X236442Y211600D01*
X236474Y211200D01*
X236567Y210810D01*
X236721Y210439D01*
X236931Y210097D01*
X237191Y209791D01*
X237415Y209600D01*
X228585D01*
X228809Y209791D01*
X229069Y210097D01*
X229279Y210439D01*
X229433Y210810D01*
X229526Y211200D01*
X229550Y211600D01*
X229526Y212000D01*
X229525Y212004D01*
X229621Y212100D01*
X232941D01*
X233000Y212095D01*
X233235Y212114D01*
X233235Y212114D01*
X233465Y212169D01*
X233683Y212259D01*
X233884Y212383D01*
X234064Y212536D01*
X234102Y212581D01*
X236019Y214498D01*
G37*
G36*
X137995Y441600D02*X206496D01*
Y386300D01*
X177259D01*
X177200Y386305D01*
X176965Y386286D01*
X176735Y386231D01*
X176517Y386141D01*
X176316Y386017D01*
X176315Y386017D01*
X176136Y385864D01*
X176098Y385819D01*
X140481Y350202D01*
X140436Y350164D01*
X140283Y349984D01*
X140159Y349783D01*
X140069Y349565D01*
X140014Y349335D01*
X140014Y349335D01*
X139995Y349100D01*
X140000Y349041D01*
Y346721D01*
X139404Y346125D01*
X139400Y346126D01*
X139000Y346158D01*
X138600Y346126D01*
X138210Y346033D01*
X137995Y345944D01*
Y432491D01*
X138000Y432490D01*
X138486Y432529D01*
X138961Y432643D01*
X139412Y432829D01*
X139828Y433084D01*
X140199Y433401D01*
X140516Y433772D01*
X140771Y434188D01*
X140957Y434639D01*
X141071Y435114D01*
X141100Y435600D01*
X141071Y436086D01*
X140957Y436561D01*
X140771Y437012D01*
X140516Y437428D01*
X140199Y437799D01*
X139828Y438116D01*
X139412Y438371D01*
X138961Y438557D01*
X138486Y438671D01*
X138000Y438710D01*
X137995Y438709D01*
Y441600D01*
G37*
G36*
X206496Y209600D02*X177828D01*
X166990Y220438D01*
X167000Y220600D01*
X166972Y221071D01*
X166862Y221530D01*
X166681Y221966D01*
X166435Y222369D01*
X166128Y222728D01*
X165769Y223035D01*
X165366Y223281D01*
X164930Y223462D01*
X164471Y223572D01*
X164000Y223609D01*
X163529Y223572D01*
X163070Y223462D01*
X162634Y223281D01*
X162231Y223035D01*
X161872Y222728D01*
X161565Y222369D01*
X161319Y221966D01*
X161138Y221530D01*
X161028Y221071D01*
X160991Y220600D01*
X161028Y220129D01*
X161138Y219670D01*
X161319Y219234D01*
X161565Y218831D01*
X161872Y218472D01*
X162231Y218165D01*
X162634Y217919D01*
X163070Y217738D01*
X163529Y217628D01*
X164000Y217591D01*
X164168Y217604D01*
X174172Y207600D01*
X137995D01*
Y210891D01*
X138000Y210890D01*
X138486Y210929D01*
X138961Y211043D01*
X139412Y211229D01*
X139828Y211484D01*
X140199Y211801D01*
X140516Y212172D01*
X140771Y212588D01*
X140957Y213039D01*
X141071Y213514D01*
X141100Y214000D01*
X141071Y214486D01*
X140957Y214961D01*
X140771Y215412D01*
X140516Y215828D01*
X140199Y216199D01*
X139828Y216516D01*
X139412Y216771D01*
X138961Y216957D01*
X138486Y217071D01*
X138000Y217110D01*
X137995Y217109D01*
Y341256D01*
X138210Y341167D01*
X138600Y341074D01*
X139000Y341042D01*
X139400Y341074D01*
X139790Y341167D01*
X140161Y341321D01*
X140503Y341531D01*
X140809Y341791D01*
X141069Y342097D01*
X141279Y342439D01*
X141433Y342810D01*
X141526Y343200D01*
X141550Y343600D01*
X141526Y344000D01*
X141525Y344004D01*
X142519Y344998D01*
X142564Y345036D01*
X142717Y345215D01*
X142717Y345216D01*
X142841Y345417D01*
X142931Y345635D01*
X142986Y345865D01*
X143005Y346100D01*
X143000Y346159D01*
Y348479D01*
X177821Y383300D01*
X206496D01*
Y382300D01*
X178259D01*
X178200Y382305D01*
X177965Y382286D01*
X177735Y382231D01*
X177517Y382141D01*
X177316Y382017D01*
X177315Y382017D01*
X177136Y381864D01*
X177098Y381819D01*
X143981Y348702D01*
X143936Y348664D01*
X143783Y348484D01*
X143659Y348283D01*
X143569Y348065D01*
X143514Y347835D01*
X143514Y347835D01*
X143495Y347600D01*
X143500Y347541D01*
Y338221D01*
X141404Y336125D01*
X141400Y336126D01*
X141000Y336158D01*
X140600Y336126D01*
X140210Y336033D01*
X139839Y335879D01*
X139497Y335669D01*
X139191Y335409D01*
X138931Y335103D01*
X138721Y334761D01*
X138567Y334390D01*
X138474Y334000D01*
X138442Y333600D01*
X138474Y333200D01*
X138567Y332810D01*
X138721Y332439D01*
X138931Y332097D01*
X139191Y331791D01*
X139497Y331531D01*
X139839Y331321D01*
X140210Y331167D01*
X140490Y331100D01*
X140210Y331033D01*
X139839Y330879D01*
X139497Y330669D01*
X139191Y330409D01*
X138931Y330103D01*
X138721Y329761D01*
X138567Y329390D01*
X138474Y329000D01*
X138442Y328600D01*
X138474Y328200D01*
X138567Y327810D01*
X138721Y327439D01*
X138931Y327097D01*
X139191Y326791D01*
X139497Y326531D01*
X139839Y326321D01*
X140210Y326167D01*
X140490Y326100D01*
X140210Y326033D01*
X139839Y325879D01*
X139497Y325669D01*
X139191Y325409D01*
X138931Y325103D01*
X138721Y324761D01*
X138567Y324390D01*
X138474Y324000D01*
X138442Y323600D01*
X138474Y323200D01*
X138567Y322810D01*
X138721Y322439D01*
X138931Y322097D01*
X139191Y321791D01*
X139497Y321531D01*
X139839Y321321D01*
X140210Y321167D01*
X140490Y321100D01*
X140210Y321033D01*
X139839Y320879D01*
X139497Y320669D01*
X139191Y320409D01*
X138931Y320103D01*
X138721Y319761D01*
X138567Y319390D01*
X138474Y319000D01*
X138442Y318600D01*
X138474Y318200D01*
X138567Y317810D01*
X138721Y317439D01*
X138931Y317097D01*
X139191Y316791D01*
X139497Y316531D01*
X139839Y316321D01*
X140210Y316167D01*
X140490Y316100D01*
X140210Y316033D01*
X139839Y315879D01*
X139497Y315669D01*
X139191Y315409D01*
X138931Y315103D01*
X138721Y314761D01*
X138567Y314390D01*
X138474Y314000D01*
X138442Y313600D01*
X138474Y313200D01*
X138567Y312810D01*
X138721Y312439D01*
X138931Y312097D01*
X139191Y311791D01*
X139497Y311531D01*
X139839Y311321D01*
X140210Y311167D01*
X140490Y311100D01*
X140210Y311033D01*
X139839Y310879D01*
X139497Y310669D01*
X139191Y310409D01*
X138931Y310103D01*
X138721Y309761D01*
X138567Y309390D01*
X138474Y309000D01*
X138442Y308600D01*
X138474Y308200D01*
X138567Y307810D01*
X138721Y307439D01*
X138931Y307097D01*
X139191Y306791D01*
X139497Y306531D01*
X139839Y306321D01*
X140210Y306167D01*
X140490Y306100D01*
X140210Y306033D01*
X139839Y305879D01*
X139497Y305669D01*
X139191Y305409D01*
X138931Y305103D01*
X138721Y304761D01*
X138567Y304390D01*
X138474Y304000D01*
X138442Y303600D01*
X138474Y303200D01*
X138567Y302810D01*
X138721Y302439D01*
X138931Y302097D01*
X139191Y301791D01*
X139497Y301531D01*
X139839Y301321D01*
X140210Y301167D01*
X140490Y301100D01*
X140210Y301033D01*
X139839Y300879D01*
X139497Y300669D01*
X139191Y300409D01*
X138931Y300103D01*
X138721Y299761D01*
X138567Y299390D01*
X138474Y299000D01*
X138442Y298600D01*
X138474Y298200D01*
X138567Y297810D01*
X138721Y297439D01*
X138931Y297097D01*
X139191Y296791D01*
X139497Y296531D01*
X139839Y296321D01*
X140210Y296167D01*
X140490Y296100D01*
X140210Y296033D01*
X139839Y295879D01*
X139497Y295669D01*
X139191Y295409D01*
X138931Y295103D01*
X138721Y294761D01*
X138567Y294390D01*
X138474Y294000D01*
X138442Y293600D01*
X138474Y293200D01*
X138567Y292810D01*
X138721Y292439D01*
X138931Y292097D01*
X139191Y291791D01*
X139497Y291531D01*
X139839Y291321D01*
X140210Y291167D01*
X140490Y291100D01*
X140210Y291033D01*
X139839Y290879D01*
X139497Y290669D01*
X139191Y290409D01*
X138931Y290103D01*
X138721Y289761D01*
X138567Y289390D01*
X138474Y289000D01*
X138442Y288600D01*
X138474Y288200D01*
X138567Y287810D01*
X138721Y287439D01*
X138931Y287097D01*
X139191Y286791D01*
X139497Y286531D01*
X139839Y286321D01*
X140210Y286167D01*
X140600Y286074D01*
X141000Y286042D01*
X141400Y286074D01*
X141790Y286167D01*
X142161Y286321D01*
X142503Y286531D01*
X142809Y286791D01*
X143069Y287097D01*
X143071Y287100D01*
X190941D01*
X191000Y287095D01*
X191235Y287114D01*
X191235Y287114D01*
X191465Y287169D01*
X191683Y287259D01*
X191884Y287383D01*
X192064Y287536D01*
X192102Y287581D01*
X206496Y301975D01*
Y264015D01*
X206317Y263941D01*
X206116Y263817D01*
X206115Y263817D01*
X205936Y263664D01*
X205898Y263619D01*
X194404Y252125D01*
X194400Y252126D01*
X194000Y252158D01*
X193600Y252126D01*
X193210Y252033D01*
X192839Y251879D01*
X192497Y251669D01*
X192191Y251409D01*
X191931Y251103D01*
X191721Y250761D01*
X191567Y250390D01*
X191474Y250000D01*
X191442Y249600D01*
X191474Y249200D01*
X191567Y248810D01*
X191721Y248439D01*
X191931Y248097D01*
X192191Y247791D01*
X192497Y247531D01*
X192839Y247321D01*
X193210Y247167D01*
X193600Y247074D01*
X194000Y247042D01*
X194400Y247074D01*
X194790Y247167D01*
X195161Y247321D01*
X195503Y247531D01*
X195809Y247791D01*
X196069Y248097D01*
X196279Y248439D01*
X196433Y248810D01*
X196526Y249200D01*
X196550Y249600D01*
X196526Y250000D01*
X196525Y250004D01*
X206496Y259975D01*
Y209600D01*
G37*
G36*
X137995Y207600D02*X132000D01*
Y441600D01*
X137995D01*
Y438709D01*
X137514Y438671D01*
X137039Y438557D01*
X136588Y438371D01*
X136172Y438116D01*
X135801Y437799D01*
X135484Y437428D01*
X135229Y437012D01*
X135043Y436561D01*
X134929Y436086D01*
X134890Y435600D01*
X134929Y435114D01*
X135043Y434639D01*
X135229Y434188D01*
X135484Y433772D01*
X135801Y433401D01*
X136172Y433084D01*
X136588Y432829D01*
X137039Y432643D01*
X137514Y432529D01*
X137995Y432491D01*
Y345944D01*
X137839Y345879D01*
X137497Y345669D01*
X137191Y345409D01*
X136931Y345103D01*
X136721Y344761D01*
X136567Y344390D01*
X136474Y344000D01*
X136442Y343600D01*
X136474Y343200D01*
X136567Y342810D01*
X136721Y342439D01*
X136931Y342097D01*
X137191Y341791D01*
X137497Y341531D01*
X137839Y341321D01*
X137995Y341256D01*
Y217109D01*
X137514Y217071D01*
X137039Y216957D01*
X136588Y216771D01*
X136172Y216516D01*
X135801Y216199D01*
X135484Y215828D01*
X135229Y215412D01*
X135043Y214961D01*
X134929Y214486D01*
X134890Y214000D01*
X134929Y213514D01*
X135043Y213039D01*
X135229Y212588D01*
X135484Y212172D01*
X135801Y211801D01*
X136172Y211484D01*
X136588Y211229D01*
X137039Y211043D01*
X137514Y210929D01*
X137995Y210891D01*
Y207600D01*
G37*
G36*
X335603Y129811D02*X335606Y129810D01*
X337494Y130097D01*
X338970Y131095D01*
X339930Y132924D01*
X340283Y135756D01*
Y136939D01*
X340304Y138040D01*
X340321Y139163D01*
X340283D01*
X337413Y136005D01*
X335603Y135600D01*
Y139098D01*
X337244Y139413D01*
X338807Y140617D01*
X339908Y142928D01*
X340321Y146547D01*
X339908Y150079D01*
X338829Y152347D01*
X337288Y153551D01*
X335603Y153896D01*
Y157414D01*
X337494Y156964D01*
X340283Y153866D01*
X340386D01*
X340408Y154864D01*
X340489Y155965D01*
X340570Y156920D01*
X340679Y157479D01*
X346207D01*
X346120Y155379D01*
X346082Y152281D01*
Y135669D01*
X345371Y131410D01*
X343293Y128372D01*
X339946Y126565D01*
X335603Y125985D01*
Y129811D01*
G37*
G36*
Y135600D02*X333051Y135029D01*
X329351Y135859D01*
X326790Y138208D01*
X325276Y141805D01*
X324799Y146422D01*
X325314Y151120D01*
X326898Y154755D01*
X329600Y157088D01*
X333485Y157918D01*
X335603Y157414D01*
Y153896D01*
X335563Y153904D01*
X333566Y153470D01*
X332112Y152119D01*
X331201Y149786D01*
X330886Y146422D01*
X331173Y143232D01*
X332052Y140932D01*
X333501Y139548D01*
X335519Y139082D01*
X335603Y139098D01*
Y135600D01*
G37*
G36*
X335438Y125963D02*X331510Y126419D01*
X328624Y127667D01*
X326708Y129576D01*
X325732Y132012D01*
X331575Y132696D01*
X332904Y130575D01*
X335603Y129811D01*
Y125985D01*
X335438Y125963D01*
G37*
G36*
X399435Y146254D02*X398709Y141534D01*
X396566Y137834D01*
X392991Y135419D01*
X388110Y134586D01*
Y138594D01*
X390228Y139000D01*
X391932Y140389D01*
X392974Y142782D01*
X393327Y146254D01*
X392995Y149721D01*
X392013Y152075D01*
X390407Y153432D01*
X388210Y153882D01*
X388110Y153862D01*
Y157894D01*
X388129Y157897D01*
X393304Y157023D01*
X396799Y154593D01*
X398789Y150909D01*
X399435Y146254D01*
G37*
G36*
X388110Y134586D02*X388004Y134568D01*
X383159Y135419D01*
X379627Y137812D01*
X377484Y141490D01*
X376757Y146254D01*
X377446Y150893D01*
X379567Y154593D01*
X383121Y157023D01*
X388110Y157894D01*
Y153862D01*
X385932Y153426D01*
X384260Y152054D01*
X383235Y149694D01*
X382893Y146254D01*
X383246Y142782D01*
X384282Y140389D01*
X385882Y139000D01*
X387939Y138561D01*
X388110Y138594D01*
Y134586D01*
G37*
G36*
X448360Y466083D02*X445262Y466522D01*
X442973Y467830D01*
X441551Y470054D01*
X441078Y473168D01*
Y489781D01*
X437216D01*
Y494729D01*
X441476D01*
X443960Y501348D01*
X448919D01*
Y494729D01*
X454702D01*
Y489781D01*
X448919D01*
Y475149D01*
X449764Y472100D01*
X452391Y471139D01*
X453714Y471242D01*
X455038Y471503D01*
Y466973D01*
X451941Y466322D01*
X448360Y466083D01*
G37*
G36*
X459834Y466555D02*Y488115D01*
X459807Y490041D01*
X459748Y491973D01*
X459694Y493638D01*
X459606Y494729D01*
X467170D01*
X467278Y493638D01*
X467392Y491973D01*
X467478Y490150D01*
X467533Y488717D01*
X467646D01*
X468830Y491452D01*
X470213Y493508D01*
X472160Y494810D01*
X474949Y495277D01*
X476333Y495146D01*
X477402Y494886D01*
Y488766D01*
X475851Y489027D01*
X474021Y489157D01*
X471380Y488604D01*
X469394Y486943D01*
X468167Y484198D01*
X467760Y480384D01*
Y466555D01*
X459834D01*
G37*
G36*
X511017Y466034D02*X504648Y467076D01*
X500134Y470016D01*
X497427Y474574D01*
X496526Y480487D01*
X497513Y486737D01*
X500362Y491371D01*
X504930Y494262D01*
X511131Y495250D01*
X516377Y494523D01*
X520355Y492515D01*
X523034Y489548D01*
X524471Y485853D01*
X516491Y485484D01*
X514799Y488924D01*
X510963Y490226D01*
X508202Y489624D01*
X506308Y487806D01*
X505206Y484838D01*
X504844Y480775D01*
X505228Y476516D01*
X506401Y473472D01*
X508348Y471644D01*
X511077Y471031D01*
X514853Y472333D01*
X516746Y476266D01*
X524695Y475930D01*
X523398Y472181D01*
X520691Y469029D01*
X516573Y466842D01*
X511017Y466034D01*
G37*
G36*
X58169Y472051D02*X61370Y472311D01*
X64207Y472984D01*
X66573Y473977D01*
X68320Y475149D01*
Y480227D01*
X59362D01*
Y485902D01*
X75351D01*
Y472414D01*
X72329Y469967D01*
X68347Y467933D01*
X63502Y466555D01*
X57957Y466034D01*
X49575Y467439D01*
X43797Y471400D01*
X40439Y477438D01*
X39370Y485072D01*
X40515Y492830D01*
X43976Y498716D01*
X49836Y502465D01*
X58142Y503795D01*
X64283Y503116D01*
X68998Y501190D01*
X72378Y498168D01*
X74570Y494235D01*
X67484Y492103D01*
X66236Y494262D01*
X64283Y496058D01*
X61603Y497284D01*
X58142Y497751D01*
X53194Y496839D01*
X49760Y494289D01*
X47752Y490280D01*
X47101Y485072D01*
X47752Y479809D01*
X49781Y475697D01*
X53248Y473011D01*
X58169Y472051D01*
G37*
G36*
X140721Y472463D02*X147774Y494729D01*
X155429D01*
X145039Y466555D01*
X136294D01*
X126219Y494729D01*
X133950D01*
X140721Y472463D01*
G37*
G36*
X207339Y466555D02*Y482359D01*
X207078Y485354D01*
X206221Y487698D01*
X204659Y489238D01*
X202314Y489781D01*
X199895Y489184D01*
X198045Y487519D01*
X196819Y484941D01*
X196406Y481659D01*
Y466555D01*
X189088D01*
Y488430D01*
X189060Y490302D01*
X189012Y492125D01*
X188958Y493687D01*
X188881Y494729D01*
X195859D01*
X195962Y493714D01*
X196064Y492206D01*
X196146Y490540D01*
X196195Y489130D01*
X196298D01*
X200026Y493817D01*
X205359Y495277D01*
X209655Y494447D01*
X212520Y492152D01*
X214131Y488717D01*
X214626Y484442D01*
Y466555D01*
X207339D01*
G37*
G36*
X239934D02*Y482359D01*
X239674Y485354D01*
X238812Y487698D01*
X237249Y489238D01*
X234910Y489781D01*
X232485Y489184D01*
X230641Y487519D01*
X229414Y484941D01*
X228996Y481659D01*
Y466555D01*
X221684D01*
Y488430D01*
X221656Y490302D01*
X221607Y492125D01*
X221553Y493687D01*
X221477Y494729D01*
X228455D01*
X228557Y493714D01*
X228660Y492206D01*
X228737Y490540D01*
X228791Y489130D01*
X228894D01*
X232616Y493817D01*
X237953Y495277D01*
X242251Y494447D01*
X245116Y492152D01*
X246727Y488717D01*
X247220Y484442D01*
Y466555D01*
X239934D01*
G37*
G36*
X169657Y483554D02*X174434Y483639D01*
Y485072D01*
X174147Y487622D01*
X173365Y489314D01*
X172063Y490226D01*
X170316Y490513D01*
X169657Y490439D01*
Y495130D01*
X170631Y495250D01*
X175318Y494599D01*
X178807Y492646D01*
X180994Y489499D01*
X181748Y485148D01*
Y474888D01*
X181823Y473114D01*
X182166Y471790D01*
X182864Y470982D01*
X184064Y470722D01*
X185681Y470879D01*
Y466918D01*
X184509Y466631D01*
X183467Y466425D01*
X182344Y466295D01*
X180994Y466240D01*
X178589Y466582D01*
X176902Y467597D01*
X175345Y471579D01*
X175188D01*
X171439Y467494D01*
X169657Y467022D01*
Y471465D01*
X170815Y471736D01*
X172741Y473299D01*
X173989Y475566D01*
X174434Y478171D01*
Y479603D01*
X170685Y479549D01*
X169657Y479454D01*
Y483554D01*
G37*
G36*
Y490439D02*X168678Y490329D01*
X167457Y489678D01*
X166594Y488457D01*
X166155Y486526D01*
X158527Y486895D01*
X159672Y490253D01*
X161961Y492906D01*
X165580Y494626D01*
X169657Y495130D01*
Y490439D01*
G37*
G36*
X165922Y466034D02*X162276Y466582D01*
X159569Y468221D01*
X157849Y470901D01*
X157252Y474525D01*
X158109Y478713D01*
X160502Y481475D01*
X164044Y483010D01*
X168368Y483531D01*
X169657Y483554D01*
Y479454D01*
X168444Y479342D01*
X166594Y478740D01*
X165347Y477438D01*
X164880Y475094D01*
X165791Y472100D01*
X168260Y471139D01*
X169657Y471465D01*
Y467022D01*
X165922Y466034D01*
G37*
G36*
X123902Y480666D02*X122991Y474758D01*
X120311Y470119D01*
X115829Y467103D01*
X109712Y466056D01*
Y471071D01*
X112368Y471579D01*
X114500Y473326D01*
X115802Y476321D01*
X116247Y480666D01*
X115835Y485007D01*
X114609Y487958D01*
X112591Y489661D01*
X109845Y490226D01*
X109712Y490199D01*
Y495246D01*
X109737Y495250D01*
X116220Y494159D01*
X120593Y491110D01*
X123094Y486504D01*
X123902Y480666D01*
G37*
G36*
X109712Y466056D02*X109585Y466034D01*
X103519Y467103D01*
X99092Y470098D01*
X96412Y474704D01*
X95501Y480666D01*
X96358Y486477D01*
X99011Y491110D01*
X103465Y494159D01*
X109712Y495246D01*
Y490199D01*
X106992Y489656D01*
X104897Y487936D01*
X103606Y484974D01*
X103177Y480666D01*
X103622Y476321D01*
X104924Y473326D01*
X106926Y471579D01*
X109503Y471031D01*
X109712Y471071D01*
Y466056D01*
G37*
G36*
X369562Y477020D02*X368352Y472230D01*
X365027Y468975D01*
X360144Y467125D01*
X354224Y466555D01*
X351940D01*
Y472257D01*
X353520D01*
X356563Y472490D01*
X358988Y473353D01*
X360627Y475018D01*
X361217Y477623D01*
X360594Y480070D01*
X358874Y481659D01*
X356341Y482516D01*
X353210Y482777D01*
X351940D01*
Y488457D01*
X352189D01*
X355228Y488739D01*
X357295Y489575D01*
X358906Y492987D01*
X358473Y495103D01*
X357181Y496503D01*
X352135Y497545D01*
X351940D01*
Y503247D01*
X352533D01*
X358792Y502671D01*
X363442Y500979D01*
X366291Y498092D01*
X367278Y494029D01*
X366806Y491148D01*
X365389Y488739D01*
X363030Y486954D01*
X359694Y485853D01*
X363937Y484893D01*
X367028Y483037D01*
X368927Y480406D01*
X369562Y477020D01*
G37*
G36*
X351940Y466555D02*X334341D01*
Y503247D01*
X351940D01*
Y497545D01*
X342663D01*
Y488457D01*
X351940D01*
Y482777D01*
X342663D01*
Y472257D01*
X351940D01*
Y466555D01*
G37*
G36*
X388770Y471006D02*X389137Y470928D01*
X392549Y471736D01*
X394437Y474286D01*
X401908Y473689D01*
X400470Y471139D01*
X398045Y468638D01*
X394242Y466761D01*
X388770Y466038D01*
Y471006D01*
G37*
G36*
Y495238D02*X388855Y495250D01*
X395002Y494078D01*
X399201Y490850D01*
X401599Y485853D01*
X402363Y479446D01*
Y479234D01*
X388770D01*
Y483818D01*
X394692D01*
X394134Y486802D01*
X392913Y488924D01*
X391095Y490215D01*
X388770Y490639D01*
Y495238D01*
G37*
G36*
X388741Y466034D02*X382789Y466918D01*
X378308Y469653D01*
X375459Y474264D01*
X374471Y480775D01*
X375627Y487567D01*
X378785Y492021D01*
X383381Y494496D01*
X388770Y495238D01*
Y490639D01*
X388741Y490644D01*
X386456Y490253D01*
X384623Y489054D01*
X383381Y486943D01*
X382849Y483818D01*
X388770D01*
Y479234D01*
X382789D01*
X383131Y475930D01*
X384227Y473299D01*
X386202Y471552D01*
X388770Y471006D01*
Y466038D01*
X388741Y466034D01*
G37*
G36*
X419494Y483554D02*X424667Y483639D01*
Y485072D01*
X424358Y487622D01*
X423512Y489314D01*
X422101Y490226D01*
X420213Y490513D01*
X419494Y490439D01*
Y495130D01*
X420549Y495250D01*
X425627Y494599D01*
X429403Y492646D01*
X431774Y489499D01*
X432594Y485148D01*
Y474888D01*
X432676Y473114D01*
X433044Y471790D01*
X433803Y470982D01*
X435101Y470722D01*
X436853Y470879D01*
Y466918D01*
X435583Y466631D01*
X434455Y466425D01*
X433239Y466295D01*
X431774Y466240D01*
X429170Y466582D01*
X427348Y467597D01*
X425655Y471579D01*
X425487D01*
X421423Y467494D01*
X419494Y467023D01*
Y471465D01*
X420751Y471736D01*
X422834Y473299D01*
X424189Y475566D01*
X424667Y478171D01*
Y479603D01*
X420609Y479549D01*
X419494Y479454D01*
Y483554D01*
G37*
G36*
Y490439D02*X418434Y490329D01*
X417110Y489678D01*
X416182Y488457D01*
X415699Y486526D01*
X407437Y486895D01*
X408678Y490253D01*
X411159Y492906D01*
X415081Y494626D01*
X419494Y495130D01*
Y490439D01*
G37*
G36*
X415444Y466034D02*X411501Y466582D01*
X408564Y468221D01*
X406703Y470901D01*
X406059Y474525D01*
X406987Y478713D01*
X409580Y481475D01*
X413416Y483010D01*
X418098Y483531D01*
X419494Y483554D01*
Y479454D01*
X418184Y479342D01*
X416182Y478740D01*
X414826Y477438D01*
X414321Y475094D01*
X415303Y472100D01*
X417984Y471139D01*
X419494Y471465D01*
Y467023D01*
X415444Y466034D01*
G37*
G36*
X542969Y471006D02*X543335Y470928D01*
X546749Y471736D01*
X548637Y474286D01*
X556113Y473689D01*
X554676Y471139D01*
X552249Y468638D01*
X548441Y466761D01*
X542969Y466038D01*
Y471006D01*
G37*
G36*
Y495238D02*X543053Y495250D01*
X549201Y494078D01*
X553405Y490850D01*
X555803Y485853D01*
X556563Y479446D01*
Y479234D01*
X542969D01*
Y483818D01*
X548891D01*
X548333Y486802D01*
X547117Y488924D01*
X545295Y490215D01*
X542969Y490638D01*
Y495238D01*
G37*
G36*
X542939Y466034D02*X536994Y466918D01*
X532507Y469653D01*
X529659Y474264D01*
X528671Y480775D01*
X529827Y487567D01*
X532989Y492021D01*
X537585Y494496D01*
X542969Y495238D01*
Y490638D01*
X542939Y490644D01*
X540656Y490253D01*
X538827Y489054D01*
X537585Y486943D01*
X537048Y483818D01*
X542969D01*
Y479234D01*
X536994D01*
X537330Y475930D01*
X538431Y473299D01*
X540406Y471552D01*
X542969Y471006D01*
Y466038D01*
X542939Y466034D01*
G37*
G54D12*X291115Y163100D03*
G54D13*X292000Y213600D02*Y220600D01*
X315000Y243600D01*
Y377600D01*
X276000Y300800D02*X297200D01*
X276000Y280800D02*X295800D01*
X276000Y276800D02*X297800D01*
X276000Y272800D02*X296800D01*
X276000Y268800D02*X297800D01*
X276000Y264800D02*X296800D01*
G54D14*X344000Y229600D02*Y214600D01*
X341000Y211600D01*
G54D15*X249000Y405600D02*X306000D01*
G54D13*X276000Y396800D02*X300800D01*
G54D12*X291115Y154557D02*Y137907D01*
G54D14*X235000Y215600D02*Y286600D01*
X241000Y215600D02*Y284600D01*
X248000Y285600D02*Y217600D01*
X239000Y211600D02*Y213600D01*
X241000Y215600D01*
G54D13*X276000Y260800D02*X253800D01*
X276000Y256800D02*X257800D01*
X254000Y260600D01*
G54D15*Y243600D02*X299000D01*
G54D13*X276000Y252800D02*X300200D01*
X253800Y260800D02*X253000Y261600D01*
Y271600D01*
G54D14*X254000Y228600D02*Y217600D01*
X251000Y211600D02*Y214600D01*
X248000Y217600D01*
X256000Y211600D02*Y215600D01*
X254000Y217600D01*
G54D16*X257935Y500986D03*
Y491072D02*Y470212D01*
X486245Y500986D03*
Y490768D02*Y470516D01*
X86009Y491069D02*Y470214D01*
Y500986D03*
G54D14*X181200Y356800D02*X143000Y318600D01*
X151000Y348600D02*Y342600D01*
X145000Y347600D02*Y337600D01*
X183200Y352800D02*X144000Y313600D01*
X184200Y348800D02*X144000Y308600D01*
X142800Y323600D02*X180000Y360800D01*
X141500Y346100D02*Y349100D01*
X142600Y328600D02*X178800Y364800D01*
X177200Y368800D02*X157000Y348600D01*
X179200Y376800D02*X151000Y348600D01*
X178200Y380800D02*X145000Y347600D01*
X177200Y384800D02*X141500Y349100D01*
X144000Y308600D02*X141000D01*
X145000Y303600D02*X141000D01*
X145000Y298600D02*X141000D01*
X145000Y293600D02*X141000D01*
X197200Y332800D02*X188000Y323600D01*
X200200Y328800D02*X190000Y318600D01*
X182000D01*
X202200Y324800D02*X191000Y313600D01*
X176000D01*
X203200Y320800D02*X191000Y308600D01*
X170000D01*
X204200Y316800D02*X191000Y303600D01*
X205200Y312800D02*X191000Y298600D01*
X206200Y308800D02*X191000Y293600D01*
X207200Y304800D02*X191000Y288600D01*
Y303600D02*X164000D01*
X191000Y298600D02*X158000D01*
X191000Y293600D02*X152000D01*
X191000Y288600D02*X141000D01*
X145000Y293600D02*X188200Y336800D01*
X145000Y298600D02*X187200Y340800D01*
X145000Y303600D02*X186200Y344800D01*
X276000D02*X193200D01*
X276000Y356800D02*X181200D01*
X276000Y352800D02*X183200D01*
X276000Y348800D02*X184200D01*
X194800Y344800D02*X186200D01*
X276000Y364800D02*X178800D01*
X276000Y360800D02*X180000D01*
X276000Y368800D02*X177200D01*
X196800Y376800D02*X179200D01*
X276000Y380800D02*X178200D01*
X276000Y384800D02*X177200D01*
G54D13*X255200Y392800D02*X253000Y390600D01*
X254800Y388800D02*X253000Y390600D01*
G54D14*X144000Y313600D02*X141000D01*
X143000Y318600D02*X141000D01*
Y323600D02*X142800D01*
X141000Y328600D02*X142600D01*
X151000Y342600D02*X149000Y340600D01*
X145000Y337600D02*X141000Y333600D01*
X139000Y343600D02*X141500Y346100D01*
X276000Y376800D02*X196200D01*
G54D13*X276000Y372800D02*X295200D01*
X298000Y375600D01*
X276000Y388800D02*X294800D01*
X298000Y385600D01*
Y375600D02*Y385600D01*
X276000Y392800D02*X255200D01*
X276200Y388800D02*X254800D01*
G54D14*X276000Y324800D02*X221000D01*
X276000Y320800D02*X223200D01*
X276000Y304800D02*X228800D01*
X276000Y308800D02*X227200D01*
X276000Y296800D02*X300200D01*
X301000Y297600D01*
X276000Y292800D02*X307200D01*
X276000Y284800D02*X300800D01*
X301000Y284600D01*
X307200Y292800D02*X308000Y293600D01*
X276000Y288800D02*X307800D01*
X308000Y288600D01*
X235000Y286600D02*X248000Y299600D01*
X241000Y284600D02*X251000Y294600D01*
X276000Y328800D02*X218000D01*
X276000Y336800D02*X188200D01*
X276000Y340800D02*X187200D01*
X276000Y332800D02*X197200D01*
X218200Y328800D02*X200200D01*
X221200Y324800D02*X202200D01*
X223800Y320800D02*X203200D01*
X276000Y316800D02*X204200D01*
X276000Y312800D02*X205200D01*
X227800Y308800D02*X206200D01*
X229000Y304800D02*X207200D01*
X194000Y249600D02*X207000Y262600D01*
G54D13*X164000Y220600D02*X177000Y207600D01*
G54D14*X233000Y213600D02*X235000Y215600D01*
X233000Y213600D02*X229000D01*
X227000Y211600D01*
X207000Y262600D02*X219000D01*
G54D13*X177000Y207600D02*X408000D01*
X421000Y220600D01*
G54D11*G36*
X259000Y389800D02*Y387800D01*
X293000D01*
Y389800D01*
X259000D01*
G37*
G36*
Y393800D02*Y391800D01*
X293000D01*
Y393800D01*
X259000D01*
G37*
G36*
Y397800D02*Y395800D01*
X293000D01*
Y397800D01*
X259000D01*
G37*
G36*
Y253800D02*Y251800D01*
X293000D01*
Y253800D01*
X259000D01*
G37*
G36*
Y249800D02*Y237800D01*
X293000D01*
Y249800D01*
X259000D01*
G37*
G36*
Y257800D02*Y255800D01*
X293000D01*
Y257800D01*
X259000D01*
G37*
G36*
Y261800D02*Y259800D01*
X293000D01*
Y261800D01*
X259000D01*
G37*
G36*
Y265800D02*Y263800D01*
X293000D01*
Y265800D01*
X259000D01*
G37*
G36*
Y269800D02*Y267800D01*
X293000D01*
Y269800D01*
X259000D01*
G37*
G36*
Y273800D02*Y271800D01*
X293000D01*
Y273800D01*
X259000D01*
G37*
G36*
Y277800D02*Y275800D01*
X293000D01*
Y277800D01*
X259000D01*
G37*
G36*
Y325800D02*Y323800D01*
X293000D01*
Y325800D01*
X259000D01*
G37*
G36*
Y329800D02*Y327800D01*
X293000D01*
Y329800D01*
X259000D01*
G37*
G36*
Y333800D02*Y331800D01*
X293000D01*
Y333800D01*
X259000D01*
G37*
G36*
Y337800D02*Y335800D01*
X293000D01*
Y337800D01*
X259000D01*
G37*
G36*
Y341800D02*Y339800D01*
X293000D01*
Y341800D01*
X259000D01*
G37*
G36*
Y345800D02*Y343800D01*
X293000D01*
Y345800D01*
X259000D01*
G37*
G36*
Y281800D02*Y279800D01*
X293000D01*
Y281800D01*
X259000D01*
G37*
G36*
Y285800D02*Y283800D01*
X293000D01*
Y285800D01*
X259000D01*
G37*
G36*
Y289800D02*Y287800D01*
X293000D01*
Y289800D01*
X259000D01*
G37*
G36*
Y293800D02*Y291800D01*
X293000D01*
Y293800D01*
X259000D01*
G37*
G36*
Y297800D02*Y295800D01*
X293000D01*
Y297800D01*
X259000D01*
G37*
G36*
Y301800D02*Y299800D01*
X293000D01*
Y301800D01*
X259000D01*
G37*
G36*
Y305800D02*Y303800D01*
X293000D01*
Y305800D01*
X259000D01*
G37*
G36*
Y309800D02*Y307800D01*
X293000D01*
Y309800D01*
X259000D01*
G37*
G36*
Y313800D02*Y311800D01*
X293000D01*
Y313800D01*
X259000D01*
G37*
G36*
Y317800D02*Y315800D01*
X293000D01*
Y317800D01*
X259000D01*
G37*
G36*
Y321800D02*Y319800D01*
X293000D01*
Y321800D01*
X259000D01*
G37*
G36*
Y369800D02*Y367800D01*
X293000D01*
Y369800D01*
X259000D01*
G37*
G36*
Y373800D02*Y371800D01*
X293000D01*
Y373800D01*
X259000D01*
G37*
G36*
Y349800D02*Y347800D01*
X293000D01*
Y349800D01*
X259000D01*
G37*
G36*
Y353800D02*Y351800D01*
X293000D01*
Y353800D01*
X259000D01*
G37*
G36*
Y357800D02*Y355800D01*
X293000D01*
Y357800D01*
X259000D01*
G37*
G36*
Y361800D02*Y359800D01*
X293000D01*
Y361800D01*
X259000D01*
G37*
G36*
Y365800D02*Y363800D01*
X293000D01*
Y365800D01*
X259000D01*
G37*
G36*
Y411800D02*Y399800D01*
X293000D01*
Y411800D01*
X259000D01*
G37*
G36*
Y377800D02*Y375800D01*
X293000D01*
Y377800D01*
X259000D01*
G37*
G36*
Y381800D02*Y379800D01*
X293000D01*
Y381800D01*
X259000D01*
G37*
G36*
Y385800D02*Y383800D01*
X293000D01*
Y385800D01*
X259000D01*
G37*
G54D17*X141000Y468600D03*
X165000D03*
X193000D03*
X226000D03*
X58000D03*
X86000D03*
X110000D03*
X389000D03*
X414000D03*
X448000D03*
X464000D03*
X486000D03*
X511000D03*
X543000D03*
X258000D03*
G54D15*X284000Y438600D03*
X274000Y427600D03*
G54D17*X338000Y468600D03*
G54D15*X315000Y377600D03*
X334000Y438600D03*
X324000Y427600D03*
X253000Y390600D03*
X409000Y416600D03*
X441000Y426600D03*
X418000Y385600D03*
X207000Y400600D03*
X195000D03*
G54D17*X141000Y323600D03*
Y318600D03*
Y313600D03*
Y308600D03*
Y303600D03*
Y298600D03*
Y293600D03*
Y288600D03*
G54D15*X138000Y221600D03*
G54D17*X152000Y293600D03*
X164000Y303600D03*
X158000Y298600D03*
X157000Y348600D03*
X149000Y340600D03*
X170000Y308600D03*
X176000Y313600D03*
X182000Y318600D03*
X188000Y323600D03*
X141000Y333600D03*
Y328600D03*
X139000Y343600D03*
G54D15*X144000Y364600D03*
X138000Y413600D03*
X143000Y417600D03*
G54D17*X194000Y249600D03*
G54D15*X164000Y220600D03*
X198000Y213600D03*
G54D17*X248000Y299600D03*
X251000Y294600D03*
X239000Y211600D03*
X227000D03*
X251000D03*
X248000Y285600D03*
X301000Y297600D03*
Y284600D03*
X308000Y293600D03*
Y288600D03*
G54D15*X320000Y308600D03*
Y322600D03*
X253000Y271600D03*
X211000Y297600D03*
X217000D03*
X305000Y214600D03*
G54D17*X256000Y211600D03*
X341000D03*
X254000Y228600D03*
X344000Y229600D03*
G54D15*X421000Y220600D03*
X383000Y222600D03*
G54D17*X219000Y262600D03*
G54D15*X436000Y255600D03*
Y243600D03*
X292000Y213600D03*
X436000D03*
G54D18*G54D19*G54D13*G54D18*G54D13*G54D18*G54D13*G54D18*G54D13*G54D18*G54D13*G54D18*G54D13*G54D18*G54D13*G54D18*G54D13*G54D20*M02*
