M48
INCH
T39C0.020
T38C0.015
%
T38
X005800Y046860
X008600Y046860
X011000Y046860
X013900Y034360
X014100Y046860
X014100Y033360
X014100Y032860
X014100Y032360
X014100Y031860
X014100Y031360
X014100Y030860
X014100Y030360
X014100Y029860
X014100Y029360
X014100Y028860
X014900Y034060
X015200Y029360
X015700Y034860
X015800Y029860
X016400Y030360
X016500Y046860
X017000Y030860
X017600Y031360
X018200Y031860
X018800Y032360
X019300Y046860
X019400Y024960
X021900Y026260
X022600Y046860
X022700Y021160
X023900Y021160
X024800Y029960
X024800Y028560
X025100Y029460
X025100Y021160
X025400Y022860
X025600Y021160
X025800Y046860
X030100Y029760
X030100Y028460
X030800Y029360
X030800Y028860
X033800Y046860
X034100Y021160
X034400Y022960
X038900Y046860
X041400Y046860
X044800Y046860
X046400Y046860
X048600Y046860
X051100Y046860
X054300Y046860
T39
X013800Y041360
X013800Y022160
X014300Y041760
X014400Y036460
X016400Y022060
X019500Y040060
X019800Y021360
X020700Y040060
X021100Y029760
X021700Y029760
X025300Y039060
X025300Y027160
X027400Y042760
X028400Y043860
X029200Y021360
X030500Y021460
X031500Y037760
X032000Y032260
X032000Y030860
X032400Y042760
X033400Y043860
X038300Y022260
X040900Y041660
X041800Y038560
X042100Y022060
X043600Y025560
X043600Y024360
X043600Y021360
X044100Y042660
M30
