G04 start of page 13 for group -3984 idx -3984 *
G04 Title: Heart, fab *
G04 Creator: pcb 4.0.2 *
G04 CreationDate: Wed Apr  3 09:48:59 2019 UTC *
G04 For: alez *
G04 Format: Gerber/RS-274X *
G04 PCB-Dimensions (mil): 5906.00 5906.00 *
G04 PCB-Coordinate-Origin: lower left *
%MOIN*%
%FSLAX25Y25*%
%LNFAB*%
%ADD72C,0.0100*%
%ADD71C,0.0075*%
%ADD70C,0.0060*%
%ADD69R,0.0080X0.0080*%
G54D69*X294200Y458600D02*G75*G03X295800Y458600I800J0D01*G01*
G75*G03X294200Y458600I-800J0D01*G01*
X14200Y601850D02*G75*G03X15800Y601850I800J0D01*G01*
G75*G03X14200Y601850I-800J0D01*G01*
G54D70*X140000Y604100D02*Y598100D01*
Y604100D02*X143750Y598100D01*
Y604100D02*Y598100D01*
X145550Y603350D02*Y598850D01*
Y603350D02*X146300Y604100D01*
X147800D01*
X148550Y603350D01*
Y598850D01*
X147800Y598100D02*X148550Y598850D01*
X146300Y598100D02*X147800D01*
X145550Y598850D02*X146300Y598100D01*
X98000Y602900D02*X99200Y604100D01*
Y598100D01*
X98000D02*X100250D01*
X45000Y598850D02*X45750Y598100D01*
X45000Y603350D02*Y598850D01*
Y603350D02*X45750Y604100D01*
X47250D01*
X48000Y603350D01*
Y598850D01*
X47250Y598100D02*X48000Y598850D01*
X45750Y598100D02*X47250D01*
X45000Y599600D02*X48000Y602600D01*
X49800Y598100D02*X50550D01*
X52350Y602900D02*X53550Y604100D01*
Y598100D01*
X52350D02*X54600D01*
X56400Y603350D02*X57150Y604100D01*
X59400D01*
X60150Y603350D01*
Y601850D01*
X56400Y598100D02*X60150Y601850D01*
X56400Y598100D02*X60150D01*
X61950Y598850D02*X62700Y598100D01*
X61950Y603350D02*Y598850D01*
Y603350D02*X62700Y604100D01*
X64200D01*
X64950Y603350D01*
Y598850D01*
X64200Y598100D02*X64950Y598850D01*
X62700Y598100D02*X64200D01*
X61950Y599600D02*X64950Y602600D01*
X444800Y436800D02*X447200Y434400D01*
X444800D02*X447200Y436800D01*
X136800D02*X139200Y434400D01*
X136800D02*X139200Y436800D01*
X444800Y215200D02*X447200Y212800D01*
X444800D02*X447200Y215200D01*
X136800D02*X139200Y212800D01*
X136800D02*X139200Y215200D01*
X13800Y618050D02*X16200Y615650D01*
X13800D02*X16200Y618050D01*
X140000Y619100D02*Y613100D01*
Y619100D02*X143750Y613100D01*
Y619100D02*Y613100D01*
X145550Y618350D02*Y613850D01*
Y618350D02*X146300Y619100D01*
X147800D01*
X148550Y618350D01*
Y613850D01*
X147800Y613100D02*X148550Y613850D01*
X146300Y613100D02*X147800D01*
X145550Y613850D02*X146300Y613100D01*
X98000Y615350D02*X101000Y619100D01*
X98000Y615350D02*X101750D01*
X101000Y619100D02*Y613100D01*
X45000Y613850D02*X45750Y613100D01*
X45000Y618350D02*Y613850D01*
Y618350D02*X45750Y619100D01*
X47250D01*
X48000Y618350D01*
Y613850D01*
X47250Y613100D02*X48000Y613850D01*
X45750Y613100D02*X47250D01*
X45000Y614600D02*X48000Y617600D01*
X49800Y613100D02*X50550D01*
X52350Y613850D02*X53100Y613100D01*
X52350Y618350D02*Y613850D01*
Y618350D02*X53100Y619100D01*
X54600D01*
X55350Y618350D01*
Y613850D01*
X54600Y613100D02*X55350Y613850D01*
X53100Y613100D02*X54600D01*
X52350Y614600D02*X55350Y617600D01*
X57150Y619100D02*X60150D01*
X57150D02*Y616100D01*
X57900Y616850D01*
X59400D01*
X60150Y616100D01*
Y613850D01*
X59400Y613100D02*X60150Y613850D01*
X57900Y613100D02*X59400D01*
X57150Y613850D02*X57900Y613100D01*
X61950Y613850D02*X62700Y613100D01*
X61950Y618350D02*Y613850D01*
Y618350D02*X62700Y619100D01*
X64200D01*
X64950Y618350D01*
Y613850D01*
X64200Y613100D02*X64950Y613850D01*
X62700Y613100D02*X64200D01*
X61950Y614600D02*X64950Y617600D01*
X292000Y215200D02*Y212000D01*
X290400Y213600D02*X293600D01*
X253000Y392200D02*Y389000D01*
X251400Y390600D02*X254600D01*
X315000Y379200D02*Y376000D01*
X313400Y377600D02*X316600D01*
X253000Y273200D02*Y270000D01*
X251400Y271600D02*X254600D01*
X164000Y222200D02*Y219000D01*
X162400Y220600D02*X165600D01*
X421000Y222200D02*Y219000D01*
X419400Y220600D02*X422600D01*
X409000Y418200D02*Y415000D01*
X407400Y416600D02*X410600D01*
X418000Y387200D02*Y384000D01*
X416400Y385600D02*X419600D01*
X320000Y310200D02*Y307000D01*
X318400Y308600D02*X321600D01*
X436000Y257200D02*Y254000D01*
X434400Y255600D02*X437600D01*
X436000Y245200D02*Y242000D01*
X434400Y243600D02*X437600D01*
X320000Y324200D02*Y321000D01*
X318400Y322600D02*X321600D01*
X211000Y299200D02*Y296000D01*
X209400Y297600D02*X212600D01*
X217000Y299200D02*Y296000D01*
X215400Y297600D02*X218600D01*
X207000Y402200D02*Y399000D01*
X205400Y400600D02*X208600D01*
X195000Y402200D02*Y399000D01*
X193400Y400600D02*X196600D01*
X144000Y366200D02*Y363000D01*
X142400Y364600D02*X145600D01*
X305000Y216200D02*Y213000D01*
X303400Y214600D02*X306600D01*
X198000Y215200D02*Y212000D01*
X196400Y213600D02*X199600D01*
X334000Y440200D02*Y437000D01*
X332400Y438600D02*X335600D01*
X324000Y429200D02*Y426000D01*
X322400Y427600D02*X325600D01*
X138000Y415200D02*Y412000D01*
X136400Y413600D02*X139600D01*
X143000Y419200D02*Y416000D01*
X141400Y417600D02*X144600D01*
X138000Y223200D02*Y220000D01*
X136400Y221600D02*X139600D01*
X436000Y215200D02*Y212000D01*
X434400Y213600D02*X437600D01*
X441000Y428200D02*Y425000D01*
X439400Y426600D02*X442600D01*
X383000Y224200D02*Y221000D01*
X381400Y222600D02*X384600D01*
X284000Y440200D02*Y437000D01*
X282400Y438600D02*X285600D01*
X274000Y429200D02*Y426000D01*
X272400Y427600D02*X275600D01*
X15000Y633450D02*Y630250D01*
X13400Y631850D02*X16600D01*
X135000Y634100D02*X136500Y631100D01*
X138000Y634100D01*
X136500Y631100D02*Y628100D01*
X139800Y631400D02*X142050D01*
X139800Y628100D02*X142800D01*
X139800Y634100D02*Y628100D01*
Y634100D02*X142800D01*
X147600D02*X148350Y633350D01*
X145350Y634100D02*X147600D01*
X144600Y633350D02*X145350Y634100D01*
X144600Y633350D02*Y631850D01*
X145350Y631100D01*
X147600D01*
X148350Y630350D01*
Y628850D01*
X147600Y628100D02*X148350Y628850D01*
X145350Y628100D02*X147600D01*
X144600Y628850D02*X145350Y628100D01*
X98000Y633350D02*X98750Y634100D01*
X101000D01*
X101750Y633350D01*
Y631850D01*
X98000Y628100D02*X101750Y631850D01*
X98000Y628100D02*X101750D01*
X104300D02*X106550Y631100D01*
Y633350D02*Y631100D01*
X105800Y634100D02*X106550Y633350D01*
X104300Y634100D02*X105800D01*
X103550Y633350D02*X104300Y634100D01*
X103550Y633350D02*Y631850D01*
X104300Y631100D01*
X106550D01*
X45000Y628850D02*X45750Y628100D01*
X45000Y633350D02*Y628850D01*
Y633350D02*X45750Y634100D01*
X47250D01*
X48000Y633350D01*
Y628850D01*
X47250Y628100D02*X48000Y628850D01*
X45750Y628100D02*X47250D01*
X45000Y629600D02*X48000Y632600D01*
X49800Y628100D02*X50550D01*
X52350Y628850D02*X53100Y628100D01*
X52350Y633350D02*Y628850D01*
Y633350D02*X53100Y634100D01*
X54600D01*
X55350Y633350D01*
Y628850D01*
X54600Y628100D02*X55350Y628850D01*
X53100Y628100D02*X54600D01*
X52350Y629600D02*X55350Y632600D01*
X57150Y633350D02*X57900Y634100D01*
X60150D01*
X60900Y633350D01*
Y631850D01*
X57150Y628100D02*X60900Y631850D01*
X57150Y628100D02*X60900D01*
X62700Y628850D02*X63450Y628100D01*
X62700Y633350D02*Y628850D01*
Y633350D02*X63450Y634100D01*
X64950D01*
X65700Y633350D01*
Y628850D01*
X64950Y628100D02*X65700Y628850D01*
X63450Y628100D02*X64950D01*
X62700Y629600D02*X65700Y632600D01*
X58000Y468600D02*Y467000D01*
Y468600D02*X59387Y469400D01*
X58000Y468600D02*X56613Y469400D01*
X86000Y468600D02*Y467000D01*
Y468600D02*X87387Y469400D01*
X86000Y468600D02*X84613Y469400D01*
X110000Y468600D02*Y467000D01*
Y468600D02*X111387Y469400D01*
X110000Y468600D02*X108613Y469400D01*
X141000Y468600D02*Y467000D01*
Y468600D02*X142387Y469400D01*
X141000Y468600D02*X139613Y469400D01*
X165000Y468600D02*Y467000D01*
Y468600D02*X166387Y469400D01*
X165000Y468600D02*X163613Y469400D01*
X193000Y468600D02*Y467000D01*
Y468600D02*X194387Y469400D01*
X193000Y468600D02*X191613Y469400D01*
X226000Y468600D02*Y467000D01*
Y468600D02*X227387Y469400D01*
X226000Y468600D02*X224613Y469400D01*
X258000Y468600D02*Y467000D01*
Y468600D02*X259387Y469400D01*
X258000Y468600D02*X256613Y469400D01*
X338000Y468600D02*Y467000D01*
Y468600D02*X339387Y469400D01*
X338000Y468600D02*X336613Y469400D01*
X389000Y468600D02*Y467000D01*
Y468600D02*X390387Y469400D01*
X389000Y468600D02*X387613Y469400D01*
X414000Y468600D02*Y467000D01*
Y468600D02*X415387Y469400D01*
X414000Y468600D02*X412613Y469400D01*
X448000Y468600D02*Y467000D01*
Y468600D02*X449387Y469400D01*
X448000Y468600D02*X446613Y469400D01*
X464000Y468600D02*Y467000D01*
Y468600D02*X465387Y469400D01*
X464000Y468600D02*X462613Y469400D01*
X486000Y468600D02*Y467000D01*
Y468600D02*X487387Y469400D01*
X486000Y468600D02*X484613Y469400D01*
X511000Y468600D02*Y467000D01*
Y468600D02*X512387Y469400D01*
X511000Y468600D02*X509613Y469400D01*
X543000Y468600D02*Y467000D01*
Y468600D02*X544387Y469400D01*
X543000Y468600D02*X541613Y469400D01*
X301000Y297600D02*Y296000D01*
Y297600D02*X302387Y298400D01*
X301000Y297600D02*X299613Y298400D01*
X301000Y284600D02*Y283000D01*
Y284600D02*X302387Y285400D01*
X301000Y284600D02*X299613Y285400D01*
X308000Y293600D02*Y292000D01*
Y293600D02*X309387Y294400D01*
X308000Y293600D02*X306613Y294400D01*
X308000Y288600D02*Y287000D01*
Y288600D02*X309387Y289400D01*
X308000Y288600D02*X306613Y289400D01*
X248000Y299600D02*Y298000D01*
Y299600D02*X249387Y300400D01*
X248000Y299600D02*X246613Y300400D01*
X251000Y294600D02*Y293000D01*
Y294600D02*X252387Y295400D01*
X251000Y294600D02*X249613Y295400D01*
X239000Y211600D02*Y210000D01*
Y211600D02*X240387Y212400D01*
X239000Y211600D02*X237613Y212400D01*
X227000Y211600D02*Y210000D01*
Y211600D02*X228387Y212400D01*
X227000Y211600D02*X225613Y212400D01*
X141000Y323600D02*Y322000D01*
Y323600D02*X142387Y324400D01*
X141000Y323600D02*X139613Y324400D01*
X141000Y318600D02*Y317000D01*
Y318600D02*X142387Y319400D01*
X141000Y318600D02*X139613Y319400D01*
X141000Y313600D02*Y312000D01*
Y313600D02*X142387Y314400D01*
X141000Y313600D02*X139613Y314400D01*
X141000Y308600D02*Y307000D01*
Y308600D02*X142387Y309400D01*
X141000Y308600D02*X139613Y309400D01*
X141000Y303600D02*Y302000D01*
Y303600D02*X142387Y304400D01*
X141000Y303600D02*X139613Y304400D01*
X141000Y298600D02*Y297000D01*
Y298600D02*X142387Y299400D01*
X141000Y298600D02*X139613Y299400D01*
X141000Y293600D02*Y292000D01*
Y293600D02*X142387Y294400D01*
X141000Y293600D02*X139613Y294400D01*
X141000Y288600D02*Y287000D01*
Y288600D02*X142387Y289400D01*
X141000Y288600D02*X139613Y289400D01*
X152000Y293600D02*Y292000D01*
Y293600D02*X153387Y294400D01*
X152000Y293600D02*X150613Y294400D01*
X164000Y303600D02*Y302000D01*
Y303600D02*X165387Y304400D01*
X164000Y303600D02*X162613Y304400D01*
X158000Y298600D02*Y297000D01*
Y298600D02*X159387Y299400D01*
X158000Y298600D02*X156613Y299400D01*
X170000Y308600D02*Y307000D01*
Y308600D02*X171387Y309400D01*
X170000Y308600D02*X168613Y309400D01*
X176000Y313600D02*Y312000D01*
Y313600D02*X177387Y314400D01*
X176000Y313600D02*X174613Y314400D01*
X182000Y318600D02*Y317000D01*
Y318600D02*X183387Y319400D01*
X182000Y318600D02*X180613Y319400D01*
X188000Y323600D02*Y322000D01*
Y323600D02*X189387Y324400D01*
X188000Y323600D02*X186613Y324400D01*
X141000Y333600D02*Y332000D01*
Y333600D02*X142387Y334400D01*
X141000Y333600D02*X139613Y334400D01*
X157000Y348600D02*Y347000D01*
Y348600D02*X158387Y349400D01*
X157000Y348600D02*X155613Y349400D01*
X141000Y328600D02*Y327000D01*
Y328600D02*X142387Y329400D01*
X141000Y328600D02*X139613Y329400D01*
X149000Y340600D02*Y339000D01*
Y340600D02*X150387Y341400D01*
X149000Y340600D02*X147613Y341400D01*
X139000Y343600D02*Y342000D01*
Y343600D02*X140387Y344400D01*
X139000Y343600D02*X137613Y344400D01*
X251000Y211600D02*Y210000D01*
Y211600D02*X252387Y212400D01*
X251000Y211600D02*X249613Y212400D01*
X248000Y285600D02*Y284000D01*
Y285600D02*X249387Y286400D01*
X248000Y285600D02*X246613Y286400D01*
X256000Y211600D02*Y210000D01*
Y211600D02*X257387Y212400D01*
X256000Y211600D02*X254613Y212400D01*
X254000Y228600D02*Y227000D01*
Y228600D02*X255387Y229400D01*
X254000Y228600D02*X252613Y229400D01*
X194000Y249600D02*Y248000D01*
Y249600D02*X195387Y250400D01*
X194000Y249600D02*X192613Y250400D01*
X219000Y262600D02*Y261000D01*
Y262600D02*X220387Y263400D01*
X219000Y262600D02*X217613Y263400D01*
X344000Y229600D02*Y228000D01*
Y229600D02*X345387Y230400D01*
X344000Y229600D02*X342613Y230400D01*
X341000Y211600D02*Y210000D01*
Y211600D02*X342387Y212400D01*
X341000Y211600D02*X339613Y212400D01*
X15000Y646850D02*Y645250D01*
Y646850D02*X16387Y647650D01*
X15000Y646850D02*X13613Y647650D01*
X135000Y649100D02*X136500Y646100D01*
X138000Y649100D01*
X136500Y646100D02*Y643100D01*
X139800Y646400D02*X142050D01*
X139800Y643100D02*X142800D01*
X139800Y649100D02*Y643100D01*
Y649100D02*X142800D01*
X147600D02*X148350Y648350D01*
X145350Y649100D02*X147600D01*
X144600Y648350D02*X145350Y649100D01*
X144600Y648350D02*Y646850D01*
X145350Y646100D01*
X147600D01*
X148350Y645350D01*
Y643850D01*
X147600Y643100D02*X148350Y643850D01*
X145350Y643100D02*X147600D01*
X144600Y643850D02*X145350Y643100D01*
X98000Y649100D02*X101000D01*
X98000D02*Y646100D01*
X98750Y646850D01*
X100250D01*
X101000Y646100D01*
Y643850D01*
X100250Y643100D02*X101000Y643850D01*
X98750Y643100D02*X100250D01*
X98000Y643850D02*X98750Y643100D01*
X102800Y648350D02*X103550Y649100D01*
X105800D01*
X106550Y648350D01*
Y646850D01*
X102800Y643100D02*X106550Y646850D01*
X102800Y643100D02*X106550D01*
X45000Y643850D02*X45750Y643100D01*
X45000Y648350D02*Y643850D01*
Y648350D02*X45750Y649100D01*
X47250D01*
X48000Y648350D01*
Y643850D01*
X47250Y643100D02*X48000Y643850D01*
X45750Y643100D02*X47250D01*
X45000Y644600D02*X48000Y647600D01*
X49800Y643100D02*X50550D01*
X52350Y643850D02*X53100Y643100D01*
X52350Y648350D02*Y643850D01*
Y648350D02*X53100Y649100D01*
X54600D01*
X55350Y648350D01*
Y643850D01*
X54600Y643100D02*X55350Y643850D01*
X53100Y643100D02*X54600D01*
X52350Y644600D02*X55350Y647600D01*
X57150Y647900D02*X58350Y649100D01*
Y643100D01*
X57150D02*X59400D01*
X61200Y649100D02*X64200D01*
X61200D02*Y646100D01*
X61950Y646850D01*
X63450D01*
X64200Y646100D01*
Y643850D01*
X63450Y643100D02*X64200Y643850D01*
X61950Y643100D02*X63450D01*
X61200Y643850D02*X61950Y643100D01*
X3000Y664100D02*X3750Y663350D01*
X750Y664100D02*X3000D01*
X0Y663350D02*X750Y664100D01*
X0Y663350D02*Y661850D01*
X750Y661100D01*
X3000D01*
X3750Y660350D01*
Y658850D01*
X3000Y658100D02*X3750Y658850D01*
X750Y658100D02*X3000D01*
X0Y658850D02*X750Y658100D01*
X5550Y661100D02*Y658850D01*
X6300Y658100D01*
X8550Y661100D02*Y656600D01*
X7800Y655850D02*X8550Y656600D01*
X6300Y655850D02*X7800D01*
X5550Y656600D02*X6300Y655850D01*
Y658100D02*X7800D01*
X8550Y658850D01*
X11100Y660350D02*Y658100D01*
Y660350D02*X11850Y661100D01*
X12600D01*
X13350Y660350D01*
Y658100D01*
Y660350D02*X14100Y661100D01*
X14850D01*
X15600Y660350D01*
Y658100D01*
X10350Y661100D02*X11100Y660350D01*
X17400Y664100D02*Y658100D01*
Y658850D02*X18150Y658100D01*
X19650D01*
X20400Y658850D01*
Y660350D02*Y658850D01*
X19650Y661100D02*X20400Y660350D01*
X18150Y661100D02*X19650D01*
X17400Y660350D02*X18150Y661100D01*
X22200Y660350D02*Y658850D01*
Y660350D02*X22950Y661100D01*
X24450D01*
X25200Y660350D01*
Y658850D01*
X24450Y658100D02*X25200Y658850D01*
X22950Y658100D02*X24450D01*
X22200Y658850D02*X22950Y658100D01*
X27000Y664100D02*Y658850D01*
X27750Y658100D01*
X0Y654850D02*X29250D01*
X41750Y664100D02*Y658100D01*
X43700Y664100D02*X44750Y663050D01*
Y659150D01*
X43700Y658100D02*X44750Y659150D01*
X41000Y658100D02*X43700D01*
X41000Y664100D02*X43700D01*
G54D71*X46550Y662600D02*Y662450D01*
G54D70*Y660350D02*Y658100D01*
X50300Y661100D02*X51050Y660350D01*
X48800Y661100D02*X50300D01*
X48050Y660350D02*X48800Y661100D01*
X48050Y660350D02*Y658850D01*
X48800Y658100D01*
X51050Y661100D02*Y658850D01*
X51800Y658100D01*
X48800D02*X50300D01*
X51050Y658850D01*
X54350Y660350D02*Y658100D01*
Y660350D02*X55100Y661100D01*
X55850D01*
X56600Y660350D01*
Y658100D01*
Y660350D02*X57350Y661100D01*
X58100D01*
X58850Y660350D01*
Y658100D01*
X53600Y661100D02*X54350Y660350D01*
X60650Y658100D02*X61400D01*
X65900Y658850D02*X66650Y658100D01*
X65900Y663350D02*X66650Y664100D01*
X65900Y663350D02*Y658850D01*
X68450Y664100D02*X69950D01*
X69200D02*Y658100D01*
X68450D02*X69950D01*
X72500Y660350D02*Y658100D01*
Y660350D02*X73250Y661100D01*
X74000D01*
X74750Y660350D01*
Y658100D01*
X71750Y661100D02*X72500Y660350D01*
X77300Y661100D02*X79550D01*
X76550Y660350D02*X77300Y661100D01*
X76550Y660350D02*Y658850D01*
X77300Y658100D01*
X79550D01*
X81350Y664100D02*Y658100D01*
Y660350D02*X82100Y661100D01*
X83600D01*
X84350Y660350D01*
Y658100D01*
X86150Y664100D02*X86900Y663350D01*
Y658850D01*
X86150Y658100D02*X86900Y658850D01*
X41000Y654850D02*X88700D01*
X96050Y658100D02*X98000D01*
X95000Y659150D02*X96050Y658100D01*
X95000Y663050D02*Y659150D01*
Y663050D02*X96050Y664100D01*
X98000D01*
X99800Y660350D02*Y658850D01*
Y660350D02*X100550Y661100D01*
X102050D01*
X102800Y660350D01*
Y658850D01*
X102050Y658100D02*X102800Y658850D01*
X100550Y658100D02*X102050D01*
X99800Y658850D02*X100550Y658100D01*
X104600Y661100D02*Y658850D01*
X105350Y658100D01*
X106850D01*
X107600Y658850D01*
Y661100D02*Y658850D01*
X110150Y660350D02*Y658100D01*
Y660350D02*X110900Y661100D01*
X111650D01*
X112400Y660350D01*
Y658100D01*
X109400Y661100D02*X110150Y660350D01*
X114950Y664100D02*Y658850D01*
X115700Y658100D01*
X114200Y661850D02*X115700D01*
X95000Y654850D02*X117200D01*
X130750Y664100D02*Y658100D01*
X130000Y664100D02*X133000D01*
X133750Y663350D01*
Y661850D01*
X133000Y661100D02*X133750Y661850D01*
X130750Y661100D02*X133000D01*
X135550Y664100D02*Y658850D01*
X136300Y658100D01*
X140050Y661100D02*X140800Y660350D01*
X138550Y661100D02*X140050D01*
X137800Y660350D02*X138550Y661100D01*
X137800Y660350D02*Y658850D01*
X138550Y658100D01*
X140800Y661100D02*Y658850D01*
X141550Y658100D01*
X138550D02*X140050D01*
X140800Y658850D01*
X144100Y664100D02*Y658850D01*
X144850Y658100D01*
X143350Y661850D02*X144850D01*
X147100Y658100D02*X149350D01*
X146350Y658850D02*X147100Y658100D01*
X146350Y660350D02*Y658850D01*
Y660350D02*X147100Y661100D01*
X148600D01*
X149350Y660350D01*
X146350Y659600D02*X149350D01*
Y660350D02*Y659600D01*
X154150Y664100D02*Y658100D01*
X153400D02*X154150Y658850D01*
X151900Y658100D02*X153400D01*
X151150Y658850D02*X151900Y658100D01*
X151150Y660350D02*Y658850D01*
Y660350D02*X151900Y661100D01*
X153400D01*
X154150Y660350D01*
X157450Y661100D02*Y660350D01*
Y658850D02*Y658100D01*
X155950Y663350D02*Y662600D01*
Y663350D02*X156700Y664100D01*
X158200D01*
X158950Y663350D01*
Y662600D01*
X157450Y661100D02*X158950Y662600D01*
X130000Y654850D02*X160750D01*
X0Y679100D02*X3000D01*
X1500D02*Y673100D01*
X4800Y679100D02*Y673100D01*
Y675350D02*X5550Y676100D01*
X7050D01*
X7800Y675350D01*
Y673100D01*
X10350D02*X12600D01*
X9600Y673850D02*X10350Y673100D01*
X9600Y675350D02*Y673850D01*
Y675350D02*X10350Y676100D01*
X11850D01*
X12600Y675350D01*
X9600Y674600D02*X12600D01*
Y675350D02*Y674600D01*
X15150Y675350D02*Y673100D01*
Y675350D02*X15900Y676100D01*
X17400D01*
X14400D02*X15150Y675350D01*
X19950Y673100D02*X22200D01*
X19200Y673850D02*X19950Y673100D01*
X19200Y675350D02*Y673850D01*
Y675350D02*X19950Y676100D01*
X21450D01*
X22200Y675350D01*
X19200Y674600D02*X22200D01*
Y675350D02*Y674600D01*
X28950Y676100D02*X29700Y675350D01*
X27450Y676100D02*X28950D01*
X26700Y675350D02*X27450Y676100D01*
X26700Y675350D02*Y673850D01*
X27450Y673100D01*
X29700Y676100D02*Y673850D01*
X30450Y673100D01*
X27450D02*X28950D01*
X29700Y673850D01*
X33000Y675350D02*Y673100D01*
Y675350D02*X33750Y676100D01*
X35250D01*
X32250D02*X33000Y675350D01*
X37800Y673100D02*X40050D01*
X37050Y673850D02*X37800Y673100D01*
X37050Y675350D02*Y673850D01*
Y675350D02*X37800Y676100D01*
X39300D01*
X40050Y675350D01*
X37050Y674600D02*X40050D01*
Y675350D02*Y674600D01*
X44550Y675350D02*X47550Y679100D01*
X44550Y675350D02*X48300D01*
X47550Y679100D02*Y673100D01*
X55800Y679100D02*Y673100D01*
X55050D02*X55800Y673850D01*
X53550Y673100D02*X55050D01*
X52800Y673850D02*X53550Y673100D01*
X52800Y675350D02*Y673850D01*
Y675350D02*X53550Y676100D01*
X55050D01*
X55800Y675350D01*
G54D71*X57600Y677600D02*Y677450D01*
G54D70*Y675350D02*Y673100D01*
X59850Y678350D02*Y673100D01*
Y678350D02*X60600Y679100D01*
X61350D01*
X59100Y676100D02*X60600D01*
X63600Y678350D02*Y673100D01*
Y678350D02*X64350Y679100D01*
X65100D01*
X62850Y676100D02*X64350D01*
X67350Y673100D02*X69600D01*
X66600Y673850D02*X67350Y673100D01*
X66600Y675350D02*Y673850D01*
Y675350D02*X67350Y676100D01*
X68850D01*
X69600Y675350D01*
X66600Y674600D02*X69600D01*
Y675350D02*Y674600D01*
X72150Y675350D02*Y673100D01*
Y675350D02*X72900Y676100D01*
X74400D01*
X71400D02*X72150Y675350D01*
X76950Y673100D02*X79200D01*
X76200Y673850D02*X76950Y673100D01*
X76200Y675350D02*Y673850D01*
Y675350D02*X76950Y676100D01*
X78450D01*
X79200Y675350D01*
X76200Y674600D02*X79200D01*
Y675350D02*Y674600D01*
X81750Y675350D02*Y673100D01*
Y675350D02*X82500Y676100D01*
X83250D01*
X84000Y675350D01*
Y673100D01*
X81000Y676100D02*X81750Y675350D01*
X86550Y679100D02*Y673850D01*
X87300Y673100D01*
X85800Y676850D02*X87300D01*
X94500Y679100D02*Y673100D01*
X93750D02*X94500Y673850D01*
X92250Y673100D02*X93750D01*
X91500Y673850D02*X92250Y673100D01*
X91500Y675350D02*Y673850D01*
Y675350D02*X92250Y676100D01*
X93750D01*
X94500Y675350D01*
X97050D02*Y673100D01*
Y675350D02*X97800Y676100D01*
X99300D01*
X96300D02*X97050Y675350D01*
G54D71*X101100Y677600D02*Y677450D01*
G54D70*Y675350D02*Y673100D01*
X102600Y679100D02*Y673850D01*
X103350Y673100D01*
X104850Y679100D02*Y673850D01*
X105600Y673100D01*
X110550D02*X112800D01*
X113550Y673850D01*
X112800Y674600D02*X113550Y673850D01*
X110550Y674600D02*X112800D01*
X109800Y675350D02*X110550Y674600D01*
X109800Y675350D02*X110550Y676100D01*
X112800D01*
X113550Y675350D01*
X109800Y673850D02*X110550Y673100D01*
G54D71*X115350Y677600D02*Y677450D01*
G54D70*Y675350D02*Y673100D01*
X116850Y676100D02*X119850D01*
X116850Y673100D02*X119850Y676100D01*
X116850Y673100D02*X119850D01*
X122400D02*X124650D01*
X121650Y673850D02*X122400Y673100D01*
X121650Y675350D02*Y673850D01*
Y675350D02*X122400Y676100D01*
X123900D01*
X124650Y675350D01*
X121650Y674600D02*X124650D01*
Y675350D02*Y674600D01*
X127200Y673100D02*X129450D01*
X130200Y673850D01*
X129450Y674600D02*X130200Y673850D01*
X127200Y674600D02*X129450D01*
X126450Y675350D02*X127200Y674600D01*
X126450Y675350D02*X127200Y676100D01*
X129450D01*
X130200Y675350D01*
X126450Y673850D02*X127200Y673100D01*
X134700Y676100D02*Y673850D01*
X135450Y673100D01*
X136950D01*
X137700Y673850D01*
Y676100D02*Y673850D01*
X140250Y673100D02*X142500D01*
X143250Y673850D01*
X142500Y674600D02*X143250Y673850D01*
X140250Y674600D02*X142500D01*
X139500Y675350D02*X140250Y674600D01*
X139500Y675350D02*X140250Y676100D01*
X142500D01*
X143250Y675350D01*
X139500Y673850D02*X140250Y673100D01*
X145800D02*X148050D01*
X145050Y673850D02*X145800Y673100D01*
X145050Y675350D02*Y673850D01*
Y675350D02*X145800Y676100D01*
X147300D01*
X148050Y675350D01*
X145050Y674600D02*X148050D01*
Y675350D02*Y674600D01*
X152850Y679100D02*Y673100D01*
X152100D02*X152850Y673850D01*
X150600Y673100D02*X152100D01*
X149850Y673850D02*X150600Y673100D01*
X149850Y675350D02*Y673850D01*
Y675350D02*X150600Y676100D01*
X152100D01*
X152850Y675350D01*
G54D71*X157350Y677600D02*Y677450D01*
G54D70*Y675350D02*Y673100D01*
X159600Y675350D02*Y673100D01*
Y675350D02*X160350Y676100D01*
X161100D01*
X161850Y675350D01*
Y673100D01*
X158850Y676100D02*X159600Y675350D01*
X167100Y679100D02*Y673850D01*
X167850Y673100D01*
X166350Y676850D02*X167850D01*
X169350Y679100D02*Y673100D01*
Y675350D02*X170100Y676100D01*
X171600D01*
X172350Y675350D01*
Y673100D01*
G54D71*X174150Y677600D02*Y677450D01*
G54D70*Y675350D02*Y673100D01*
X176400D02*X178650D01*
X179400Y673850D01*
X178650Y674600D02*X179400Y673850D01*
X176400Y674600D02*X178650D01*
X175650Y675350D02*X176400Y674600D01*
X175650Y675350D02*X176400Y676100D01*
X178650D01*
X179400Y675350D01*
X175650Y673850D02*X176400Y673100D01*
X183900Y679100D02*Y673850D01*
X184650Y673100D01*
X188400Y676100D02*X189150Y675350D01*
X186900Y676100D02*X188400D01*
X186150Y675350D02*X186900Y676100D01*
X186150Y675350D02*Y673850D01*
X186900Y673100D01*
X189150Y676100D02*Y673850D01*
X189900Y673100D01*
X186900D02*X188400D01*
X189150Y673850D01*
X191700Y676100D02*Y673850D01*
X192450Y673100D01*
X194700Y676100D02*Y671600D01*
X193950Y670850D02*X194700Y671600D01*
X192450Y670850D02*X193950D01*
X191700Y671600D02*X192450Y670850D01*
Y673100D02*X193950D01*
X194700Y673850D01*
X196500Y675350D02*Y673850D01*
Y675350D02*X197250Y676100D01*
X198750D01*
X199500Y675350D01*
Y673850D01*
X198750Y673100D02*X199500Y673850D01*
X197250Y673100D02*X198750D01*
X196500Y673850D02*X197250Y673100D01*
X201300Y676100D02*Y673850D01*
X202050Y673100D01*
X203550D01*
X204300Y673850D01*
Y676100D02*Y673850D01*
X206850Y679100D02*Y673850D01*
X207600Y673100D01*
X206100Y676850D02*X207600D01*
X209100Y671600D02*X210600Y673100D01*
X215100Y673850D02*X215850Y673100D01*
X215100Y675050D02*Y673850D01*
Y675050D02*X216150Y676100D01*
X217050D01*
X218100Y675050D01*
Y673850D01*
X217350Y673100D02*X218100Y673850D01*
X215850Y673100D02*X217350D01*
X215100Y677150D02*X216150Y676100D01*
X215100Y678350D02*Y677150D01*
Y678350D02*X215850Y679100D01*
X217350D01*
X218100Y678350D01*
Y677150D01*
X217050Y676100D02*X218100Y677150D01*
X222150Y679100D02*X222900Y678350D01*
X220650Y679100D02*X222150D01*
X219900Y678350D02*X220650Y679100D01*
X219900Y678350D02*Y673850D01*
X220650Y673100D01*
X222150Y676400D02*X222900Y675650D01*
X219900Y676400D02*X222150D01*
X220650Y673100D02*X222150D01*
X222900Y673850D01*
Y675650D02*Y673850D01*
X227400Y679100D02*Y673100D01*
Y675350D02*X228150Y676100D01*
X229650D01*
X230400Y675350D01*
Y673100D01*
X232200Y675350D02*Y673850D01*
Y675350D02*X232950Y676100D01*
X234450D01*
X235200Y675350D01*
Y673850D01*
X234450Y673100D02*X235200Y673850D01*
X232950Y673100D02*X234450D01*
X232200Y673850D02*X232950Y673100D01*
X237000Y679100D02*Y673850D01*
X237750Y673100D01*
X240000D02*X242250D01*
X239250Y673850D02*X240000Y673100D01*
X239250Y675350D02*Y673850D01*
Y675350D02*X240000Y676100D01*
X241500D01*
X242250Y675350D01*
X239250Y674600D02*X242250D01*
Y675350D02*Y674600D01*
X244800Y673100D02*X247050D01*
X247800Y673850D01*
X247050Y674600D02*X247800Y673850D01*
X244800Y674600D02*X247050D01*
X244050Y675350D02*X244800Y674600D01*
X244050Y675350D02*X244800Y676100D01*
X247050D01*
X247800Y675350D01*
X244050Y673850D02*X244800Y673100D01*
X253050Y679100D02*Y673850D01*
X253800Y673100D01*
X252300Y676850D02*X253800D01*
X255300Y675350D02*Y673850D01*
Y675350D02*X256050Y676100D01*
X257550D01*
X258300Y675350D01*
Y673850D01*
X257550Y673100D02*X258300Y673850D01*
X256050Y673100D02*X257550D01*
X255300Y673850D02*X256050Y673100D01*
X260850Y679100D02*Y673850D01*
X261600Y673100D01*
X260100Y676850D02*X261600D01*
X265350Y676100D02*X266100Y675350D01*
X263850Y676100D02*X265350D01*
X263100Y675350D02*X263850Y676100D01*
X263100Y675350D02*Y673850D01*
X263850Y673100D01*
X266100Y676100D02*Y673850D01*
X266850Y673100D01*
X263850D02*X265350D01*
X266100Y673850D01*
X268650Y679100D02*Y673850D01*
X269400Y673100D01*
G54D72*X574253Y382517D02*X583400Y411586D01*
X586331Y441914D01*
X582858Y472188D01*
X573190Y501083D01*
X557701Y527325D01*
X537106Y549786D01*
X512274Y567451D01*
X484322Y579582D01*
X454451Y585615D01*
X423982Y585317D01*
X394240Y578671D01*
X366533Y565997D01*
X342071Y547822D01*
X321915Y524971D01*
X306974Y498414D01*
X297860Y469333D01*
X292140D02*X283026Y498414D01*
X268085Y524971D01*
X247924Y547822D01*
X223467Y565997D01*
X195754Y578671D01*
X166018Y585317D01*
X135544Y585615D01*
X105677Y579582D01*
X77720Y567451D01*
X52894Y549786D01*
X32294Y527325D01*
X16810Y501083D01*
X7136Y472188D01*
X3670Y441914D01*
X6594Y411586D01*
X15746Y382517D01*
X39103Y327771D01*
X66034Y274689D01*
X96411Y223506D01*
X130113Y174439D01*
X166994Y127727D01*
X206892Y83559D01*
X249617Y42120D01*
X295000Y3600D01*
X340378Y42120D01*
X383103Y83559D01*
X423000Y127727D01*
X459887Y174439D01*
X493583Y223506D01*
X523961Y274689D01*
X550892Y327771D01*
X574253Y382517D01*
X292134Y469321D02*G75*G03X297866Y469321I2866J1043D01*G01*
G54D70*X208975Y-9500D02*X211975D01*
X212725Y-8750D01*
Y-6950D02*Y-8750D01*
X211975Y-6200D02*X212725Y-6950D01*
X209725Y-6200D02*X211975D01*
X209725Y-3500D02*Y-9500D01*
X208975Y-3500D02*X211975D01*
X212725Y-4250D01*
Y-5450D01*
X211975Y-6200D02*X212725Y-5450D01*
X214525Y-7250D02*Y-8750D01*
Y-7250D02*X215275Y-6500D01*
X216775D01*
X217525Y-7250D01*
Y-8750D01*
X216775Y-9500D02*X217525Y-8750D01*
X215275Y-9500D02*X216775D01*
X214525Y-8750D02*X215275Y-9500D01*
X221575Y-6500D02*X222325Y-7250D01*
X220075Y-6500D02*X221575D01*
X219325Y-7250D02*X220075Y-6500D01*
X219325Y-7250D02*Y-8750D01*
X220075Y-9500D01*
X222325Y-6500D02*Y-8750D01*
X223075Y-9500D01*
X220075D02*X221575D01*
X222325Y-8750D01*
X225625Y-7250D02*Y-9500D01*
Y-7250D02*X226375Y-6500D01*
X227875D01*
X224875D02*X225625Y-7250D01*
X232675Y-3500D02*Y-9500D01*
X231925D02*X232675Y-8750D01*
X230425Y-9500D02*X231925D01*
X229675Y-8750D02*X230425Y-9500D01*
X229675Y-7250D02*Y-8750D01*
Y-7250D02*X230425Y-6500D01*
X231925D01*
X232675Y-7250D01*
X237175D02*Y-8750D01*
Y-7250D02*X237925Y-6500D01*
X239425D01*
X240175Y-7250D01*
Y-8750D01*
X239425Y-9500D02*X240175Y-8750D01*
X237925Y-9500D02*X239425D01*
X237175Y-8750D02*X237925Y-9500D01*
X241975Y-6500D02*Y-8750D01*
X242725Y-9500D01*
X244225D01*
X244975Y-8750D01*
Y-6500D02*Y-8750D01*
X247525Y-3500D02*Y-8750D01*
X248275Y-9500D01*
X246775Y-5750D02*X248275D01*
X249775Y-3500D02*Y-8750D01*
X250525Y-9500D01*
G54D71*X252025Y-5000D02*Y-5150D01*
G54D70*Y-7250D02*Y-9500D01*
X254275Y-7250D02*Y-9500D01*
Y-7250D02*X255025Y-6500D01*
X255775D01*
X256525Y-7250D01*
Y-9500D01*
X253525Y-6500D02*X254275Y-7250D01*
X259075Y-9500D02*X261325D01*
X258325Y-8750D02*X259075Y-9500D01*
X258325Y-7250D02*Y-8750D01*
Y-7250D02*X259075Y-6500D01*
X260575D01*
X261325Y-7250D01*
X258325Y-8000D02*X261325D01*
Y-7250D02*Y-8000D01*
G54D71*X265825Y-5000D02*Y-5150D01*
G54D70*Y-7250D02*Y-9500D01*
X268075D02*X270325D01*
X271075Y-8750D01*
X270325Y-8000D02*X271075Y-8750D01*
X268075Y-8000D02*X270325D01*
X267325Y-7250D02*X268075Y-8000D01*
X267325Y-7250D02*X268075Y-6500D01*
X270325D01*
X271075Y-7250D01*
X267325Y-8750D02*X268075Y-9500D01*
X276325Y-3500D02*Y-8750D01*
X277075Y-9500D01*
X275575Y-5750D02*X277075D01*
X278575Y-3500D02*Y-9500D01*
Y-7250D02*X279325Y-6500D01*
X280825D01*
X281575Y-7250D01*
Y-9500D01*
X284125D02*X286375D01*
X283375Y-8750D02*X284125Y-9500D01*
X283375Y-7250D02*Y-8750D01*
Y-7250D02*X284125Y-6500D01*
X285625D01*
X286375Y-7250D01*
X283375Y-8000D02*X286375D01*
Y-7250D02*Y-8000D01*
X291625Y-6500D02*X293875D01*
X290875Y-7250D02*X291625Y-6500D01*
X290875Y-7250D02*Y-8750D01*
X291625Y-9500D01*
X293875D01*
X296425D02*X298675D01*
X295675Y-8750D02*X296425Y-9500D01*
X295675Y-7250D02*Y-8750D01*
Y-7250D02*X296425Y-6500D01*
X297925D01*
X298675Y-7250D01*
X295675Y-8000D02*X298675D01*
Y-7250D02*Y-8000D01*
X301225Y-7250D02*Y-9500D01*
Y-7250D02*X301975Y-6500D01*
X302725D01*
X303475Y-7250D01*
Y-9500D01*
X300475Y-6500D02*X301225Y-7250D01*
X306025Y-3500D02*Y-8750D01*
X306775Y-9500D01*
X305275Y-5750D02*X306775D01*
X309025Y-9500D02*X311275D01*
X308275Y-8750D02*X309025Y-9500D01*
X308275Y-7250D02*Y-8750D01*
Y-7250D02*X309025Y-6500D01*
X310525D01*
X311275Y-7250D01*
X308275Y-8000D02*X311275D01*
Y-7250D02*Y-8000D01*
X313825Y-7250D02*Y-9500D01*
Y-7250D02*X314575Y-6500D01*
X316075D01*
X313075D02*X313825Y-7250D01*
X317875Y-3500D02*Y-8750D01*
X318625Y-9500D01*
G54D71*X320125Y-5000D02*Y-5150D01*
G54D70*Y-7250D02*Y-9500D01*
X322375Y-7250D02*Y-9500D01*
Y-7250D02*X323125Y-6500D01*
X323875D01*
X324625Y-7250D01*
Y-9500D01*
X321625Y-6500D02*X322375Y-7250D01*
X327175Y-9500D02*X329425D01*
X326425Y-8750D02*X327175Y-9500D01*
X326425Y-7250D02*Y-8750D01*
Y-7250D02*X327175Y-6500D01*
X328675D01*
X329425Y-7250D01*
X326425Y-8000D02*X329425D01*
Y-7250D02*Y-8000D01*
X333925Y-7250D02*Y-8750D01*
Y-7250D02*X334675Y-6500D01*
X336175D01*
X336925Y-7250D01*
Y-8750D01*
X336175Y-9500D02*X336925Y-8750D01*
X334675Y-9500D02*X336175D01*
X333925Y-8750D02*X334675Y-9500D01*
X339475Y-4250D02*Y-9500D01*
Y-4250D02*X340225Y-3500D01*
X340975D01*
X338725Y-6500D02*X340225D01*
X345925Y-3500D02*Y-8750D01*
X346675Y-9500D01*
X345175Y-5750D02*X346675D01*
X348175Y-3500D02*Y-9500D01*
Y-7250D02*X348925Y-6500D01*
X350425D01*
X351175Y-7250D01*
Y-9500D01*
G54D71*X352975Y-5000D02*Y-5150D01*
G54D70*Y-7250D02*Y-9500D01*
X355225D02*X357475D01*
X358225Y-8750D01*
X357475Y-8000D02*X358225Y-8750D01*
X355225Y-8000D02*X357475D01*
X354475Y-7250D02*X355225Y-8000D01*
X354475Y-7250D02*X355225Y-6500D01*
X357475D01*
X358225Y-7250D01*
X354475Y-8750D02*X355225Y-9500D01*
X363475Y-7250D02*Y-11750D01*
X362725Y-6500D02*X363475Y-7250D01*
X364225Y-6500D01*
X365725D01*
X366475Y-7250D01*
Y-8750D01*
X365725Y-9500D02*X366475Y-8750D01*
X364225Y-9500D02*X365725D01*
X363475Y-8750D02*X364225Y-9500D01*
X370525Y-6500D02*X371275Y-7250D01*
X369025Y-6500D02*X370525D01*
X368275Y-7250D02*X369025Y-6500D01*
X368275Y-7250D02*Y-8750D01*
X369025Y-9500D01*
X371275Y-6500D02*Y-8750D01*
X372025Y-9500D01*
X369025D02*X370525D01*
X371275Y-8750D01*
X374575Y-3500D02*Y-8750D01*
X375325Y-9500D01*
X373825Y-5750D02*X375325D01*
X376825Y-3500D02*Y-9500D01*
Y-7250D02*X377575Y-6500D01*
X379075D01*
X379825Y-7250D01*
Y-9500D01*
X200750Y619100D02*Y613100D01*
X202700Y619100D02*X203750Y618050D01*
Y614150D01*
X202700Y613100D02*X203750Y614150D01*
X200000Y613100D02*X202700D01*
X200000Y619100D02*X202700D01*
X207800Y616100D02*X208550Y615350D01*
X206300Y616100D02*X207800D01*
X205550Y615350D02*X206300Y616100D01*
X205550Y615350D02*Y613850D01*
X206300Y613100D01*
X208550Y616100D02*Y613850D01*
X209300Y613100D01*
X206300D02*X207800D01*
X208550Y613850D01*
X211850Y619100D02*Y613850D01*
X212600Y613100D01*
X211100Y616850D02*X212600D01*
X214850Y613100D02*X217100D01*
X214100Y613850D02*X214850Y613100D01*
X214100Y615350D02*Y613850D01*
Y615350D02*X214850Y616100D01*
X216350D01*
X217100Y615350D01*
X214100Y614600D02*X217100D01*
Y615350D02*Y614600D01*
X218900Y616850D02*X219650D01*
X218900Y615350D02*X219650D01*
X224150Y619100D02*Y616100D01*
X224900Y613100D01*
X226400Y616100D01*
X227900Y613100D01*
X228650Y616100D01*
Y619100D02*Y616100D01*
X231200Y613100D02*X233450D01*
X230450Y613850D02*X231200Y613100D01*
X230450Y615350D02*Y613850D01*
Y615350D02*X231200Y616100D01*
X232700D01*
X233450Y615350D01*
X230450Y614600D02*X233450D01*
Y615350D02*Y614600D01*
X238250Y619100D02*Y613100D01*
X237500D02*X238250Y613850D01*
X236000Y613100D02*X237500D01*
X235250Y613850D02*X236000Y613100D01*
X235250Y615350D02*Y613850D01*
Y615350D02*X236000Y616100D01*
X237500D01*
X238250Y615350D01*
X242750Y617600D02*Y613100D01*
Y617600D02*X243800Y619100D01*
X245450D01*
X246500Y617600D01*
Y613100D01*
X242750Y616100D02*X246500D01*
X249050Y615350D02*Y610850D01*
X248300Y616100D02*X249050Y615350D01*
X249800Y616100D01*
X251300D01*
X252050Y615350D01*
Y613850D01*
X251300Y613100D02*X252050Y613850D01*
X249800Y613100D02*X251300D01*
X249050Y613850D02*X249800Y613100D01*
X254600Y615350D02*Y613100D01*
Y615350D02*X255350Y616100D01*
X256850D01*
X253850D02*X254600Y615350D01*
X264050Y618350D02*X264800Y619100D01*
X266300D01*
X267050Y618350D01*
X266300Y613100D02*X267050Y613850D01*
X264800Y613100D02*X266300D01*
X264050Y613850D02*X264800Y613100D01*
Y616400D02*X266300D01*
X267050Y618350D02*Y617150D01*
Y615650D02*Y613850D01*
Y615650D02*X266300Y616400D01*
X267050Y617150D02*X266300Y616400D01*
X271550Y613850D02*X272300Y613100D01*
X271550Y618350D02*Y613850D01*
Y618350D02*X272300Y619100D01*
X273800D01*
X274550Y618350D01*
Y613850D01*
X273800Y613100D02*X274550Y613850D01*
X272300Y613100D02*X273800D01*
X271550Y614600D02*X274550Y617600D01*
X277100Y613100D02*X279350Y616100D01*
Y618350D02*Y616100D01*
X278600Y619100D02*X279350Y618350D01*
X277100Y619100D02*X278600D01*
X276350Y618350D02*X277100Y619100D01*
X276350Y618350D02*Y616850D01*
X277100Y616100D01*
X279350D01*
X281150Y616850D02*X281900D01*
X281150Y615350D02*X281900D01*
X283700D02*X286700Y619100D01*
X283700Y615350D02*X287450D01*
X286700Y619100D02*Y613100D01*
X289250Y613850D02*X290000Y613100D01*
X289250Y615050D02*Y613850D01*
Y615050D02*X290300Y616100D01*
X291200D01*
X292250Y615050D01*
Y613850D01*
X291500Y613100D02*X292250Y613850D01*
X290000Y613100D02*X291500D01*
X289250Y617150D02*X290300Y616100D01*
X289250Y618350D02*Y617150D01*
Y618350D02*X290000Y619100D01*
X291500D01*
X292250Y618350D01*
Y617150D01*
X291200Y616100D02*X292250Y617150D01*
X294050Y616850D02*X294800D01*
X294050Y615350D02*X294800D01*
X296600Y619100D02*X299600D01*
X296600D02*Y616100D01*
X297350Y616850D01*
X298850D01*
X299600Y616100D01*
Y613850D01*
X298850Y613100D02*X299600Y613850D01*
X297350Y613100D02*X298850D01*
X296600Y613850D02*X297350Y613100D01*
X302150D02*X304400Y616100D01*
Y618350D02*Y616100D01*
X303650Y619100D02*X304400Y618350D01*
X302150Y619100D02*X303650D01*
X301400Y618350D02*X302150Y619100D01*
X301400Y618350D02*Y616850D01*
X302150Y616100D01*
X304400D01*
X308900Y618350D02*X309650Y619100D01*
X311900D01*
X312650Y618350D01*
Y616850D01*
X308900Y613100D02*X312650Y616850D01*
X308900Y613100D02*X312650D01*
X314450Y613850D02*X315200Y613100D01*
X314450Y618350D02*Y613850D01*
Y618350D02*X315200Y619100D01*
X316700D01*
X317450Y618350D01*
Y613850D01*
X316700Y613100D02*X317450Y613850D01*
X315200Y613100D02*X316700D01*
X314450Y614600D02*X317450Y617600D01*
X319250Y617900D02*X320450Y619100D01*
Y613100D01*
X319250D02*X321500D01*
X324050D02*X326300Y616100D01*
Y618350D02*Y616100D01*
X325550Y619100D02*X326300Y618350D01*
X324050Y619100D02*X325550D01*
X323300Y618350D02*X324050Y619100D01*
X323300Y618350D02*Y616850D01*
X324050Y616100D01*
X326300D01*
X330800Y619100D02*Y613850D01*
X331550Y613100D01*
X333050D01*
X333800Y613850D01*
Y619100D02*Y613850D01*
X335600Y619100D02*X338600D01*
X337100D02*Y613100D01*
X341450D02*X343400D01*
X340400Y614150D02*X341450Y613100D01*
X340400Y618050D02*Y614150D01*
Y618050D02*X341450Y619100D01*
X343400D01*
X200000Y632600D02*Y628100D01*
Y632600D02*X201050Y634100D01*
X202700D01*
X203750Y632600D01*
Y628100D01*
X200000Y631100D02*X203750D01*
X205550D02*Y628850D01*
X206300Y628100D01*
X207800D01*
X208550Y628850D01*
Y631100D02*Y628850D01*
X211100Y634100D02*Y628850D01*
X211850Y628100D01*
X210350Y631850D02*X211850D01*
X213350Y634100D02*Y628100D01*
Y630350D02*X214100Y631100D01*
X215600D01*
X216350Y630350D01*
Y628100D01*
X218150Y630350D02*Y628850D01*
Y630350D02*X218900Y631100D01*
X220400D01*
X221150Y630350D01*
Y628850D01*
X220400Y628100D02*X221150Y628850D01*
X218900Y628100D02*X220400D01*
X218150Y628850D02*X218900Y628100D01*
X223700Y630350D02*Y628100D01*
Y630350D02*X224450Y631100D01*
X225950D01*
X222950D02*X223700Y630350D01*
X227750Y631850D02*X228500D01*
X227750Y630350D02*X228500D01*
X235250Y631100D02*X236000Y630350D01*
X233750Y631100D02*X235250D01*
X233000Y630350D02*X233750Y631100D01*
X233000Y630350D02*Y628850D01*
X233750Y628100D01*
X236000Y631100D02*Y628850D01*
X236750Y628100D01*
X233750D02*X235250D01*
X236000Y628850D01*
X238550Y634100D02*Y628850D01*
X239300Y628100D01*
X241550D02*X243800D01*
X240800Y628850D02*X241550Y628100D01*
X240800Y630350D02*Y628850D01*
Y630350D02*X241550Y631100D01*
X243050D01*
X243800Y630350D01*
X240800Y629600D02*X243800D01*
Y630350D02*Y629600D01*
X246350Y628100D02*X248600D01*
X249350Y628850D01*
X248600Y629600D02*X249350Y628850D01*
X246350Y629600D02*X248600D01*
X245600Y630350D02*X246350Y629600D01*
X245600Y630350D02*X246350Y631100D01*
X248600D01*
X249350Y630350D01*
X245600Y628850D02*X246350Y628100D01*
X251900D02*X254150D01*
X254900Y628850D01*
X254150Y629600D02*X254900Y628850D01*
X251900Y629600D02*X254150D01*
X251150Y630350D02*X251900Y629600D01*
X251150Y630350D02*X251900Y631100D01*
X254150D01*
X254900Y630350D01*
X251150Y628850D02*X251900Y628100D01*
X258950Y631100D02*X259700Y630350D01*
X257450Y631100D02*X258950D01*
X256700Y630350D02*X257450Y631100D01*
X256700Y630350D02*Y628850D01*
X257450Y628100D01*
X259700Y631100D02*Y628850D01*
X260450Y628100D01*
X257450D02*X258950D01*
X259700Y628850D01*
X263000Y630350D02*Y628100D01*
Y630350D02*X263750Y631100D01*
X264500D01*
X265250Y630350D01*
Y628100D01*
X262250Y631100D02*X263000Y630350D01*
X270050Y634100D02*Y628100D01*
X269300D02*X270050Y628850D01*
X267800Y628100D02*X269300D01*
X267050Y628850D02*X267800Y628100D01*
X267050Y630350D02*Y628850D01*
Y630350D02*X267800Y631100D01*
X269300D01*
X270050Y630350D01*
X272600D02*Y628100D01*
Y630350D02*X273350Y631100D01*
X274850D01*
X271850D02*X272600Y630350D01*
X276650D02*Y628850D01*
Y630350D02*X277400Y631100D01*
X278900D01*
X279650Y630350D01*
Y628850D01*
X278900Y628100D02*X279650Y628850D01*
X277400Y628100D02*X278900D01*
X276650Y628850D02*X277400Y628100D01*
X200000Y649100D02*X203000D01*
X201500D02*Y643100D01*
G54D71*X204800Y647600D02*Y647450D01*
G54D70*Y645350D02*Y643100D01*
X207050Y649100D02*Y643850D01*
X207800Y643100D01*
X206300Y646850D02*X207800D01*
X209300Y649100D02*Y643850D01*
X210050Y643100D01*
X212300D02*X214550D01*
X211550Y643850D02*X212300Y643100D01*
X211550Y645350D02*Y643850D01*
Y645350D02*X212300Y646100D01*
X213800D01*
X214550Y645350D01*
X211550Y644600D02*X214550D01*
Y645350D02*Y644600D01*
X216350Y646850D02*X217100D01*
X216350Y645350D02*X217100D01*
X221600Y649100D02*Y643100D01*
X225350Y649100D02*Y643100D01*
X221600Y646100D02*X225350D01*
X227900Y643100D02*X230150D01*
X227150Y643850D02*X227900Y643100D01*
X227150Y645350D02*Y643850D01*
Y645350D02*X227900Y646100D01*
X229400D01*
X230150Y645350D01*
X227150Y644600D02*X230150D01*
Y645350D02*Y644600D01*
X234200Y646100D02*X234950Y645350D01*
X232700Y646100D02*X234200D01*
X231950Y645350D02*X232700Y646100D01*
X231950Y645350D02*Y643850D01*
X232700Y643100D01*
X234950Y646100D02*Y643850D01*
X235700Y643100D01*
X232700D02*X234200D01*
X234950Y643850D01*
X238250Y645350D02*Y643100D01*
Y645350D02*X239000Y646100D01*
X240500D01*
X237500D02*X238250Y645350D01*
X243050Y649100D02*Y643850D01*
X243800Y643100D01*
X242300Y646850D02*X243800D01*
X248000Y646100D02*X251000D01*
X255500Y649100D02*Y643100D01*
Y649100D02*X258500D01*
X255500Y646400D02*X257750D01*
X262550Y646100D02*X263300Y645350D01*
X261050Y646100D02*X262550D01*
X260300Y645350D02*X261050Y646100D01*
X260300Y645350D02*Y643850D01*
X261050Y643100D01*
X263300Y646100D02*Y643850D01*
X264050Y643100D01*
X261050D02*X262550D01*
X263300Y643850D01*
X265850Y649100D02*Y643100D01*
Y643850D02*X266600Y643100D01*
X268100D01*
X268850Y643850D01*
Y645350D02*Y643850D01*
X268100Y646100D02*X268850Y645350D01*
X266600Y646100D02*X268100D01*
X265850Y645350D02*X266600Y646100D01*
X271400Y645350D02*Y643100D01*
Y645350D02*X272150Y646100D01*
X273650D01*
X270650D02*X271400Y645350D01*
G54D71*X275450Y647600D02*Y647450D01*
G54D70*Y645350D02*Y643100D01*
X277700Y646100D02*X279950D01*
X276950Y645350D02*X277700Y646100D01*
X276950Y645350D02*Y643850D01*
X277700Y643100D01*
X279950D01*
X284000Y646100D02*X284750Y645350D01*
X282500Y646100D02*X284000D01*
X281750Y645350D02*X282500Y646100D01*
X281750Y645350D02*Y643850D01*
X282500Y643100D01*
X284750Y646100D02*Y643850D01*
X285500Y643100D01*
X282500D02*X284000D01*
X284750Y643850D01*
X288050Y649100D02*Y643850D01*
X288800Y643100D01*
X287300Y646850D02*X288800D01*
G54D71*X290300Y647600D02*Y647450D01*
G54D70*Y645350D02*Y643100D01*
X291800Y645350D02*Y643850D01*
Y645350D02*X292550Y646100D01*
X294050D01*
X294800Y645350D01*
Y643850D01*
X294050Y643100D02*X294800Y643850D01*
X292550Y643100D02*X294050D01*
X291800Y643850D02*X292550Y643100D01*
X297350Y645350D02*Y643100D01*
Y645350D02*X298100Y646100D01*
X298850D01*
X299600Y645350D01*
Y643100D01*
X296600Y646100D02*X297350Y645350D01*
X304850Y649100D02*Y643100D01*
X306800Y649100D02*X307850Y648050D01*
Y644150D01*
X306800Y643100D02*X307850Y644150D01*
X304100Y643100D02*X306800D01*
X304100Y649100D02*X306800D01*
X310400Y645350D02*Y643100D01*
Y645350D02*X311150Y646100D01*
X312650D01*
X309650D02*X310400Y645350D01*
X316700Y646100D02*X317450Y645350D01*
X315200Y646100D02*X316700D01*
X314450Y645350D02*X315200Y646100D01*
X314450Y645350D02*Y643850D01*
X315200Y643100D01*
X317450Y646100D02*Y643850D01*
X318200Y643100D01*
X315200D02*X316700D01*
X317450Y643850D01*
X320000Y646100D02*Y643850D01*
X320750Y643100D01*
X321500D01*
X322250Y643850D01*
Y646100D02*Y643850D01*
X323000Y643100D01*
X323750D01*
X324500Y643850D01*
Y646100D02*Y643850D01*
G54D71*X326300Y647600D02*Y647450D01*
G54D70*Y645350D02*Y643100D01*
X328550Y645350D02*Y643100D01*
Y645350D02*X329300Y646100D01*
X330050D01*
X330800Y645350D01*
Y643100D01*
X327800Y646100D02*X328550Y645350D01*
X334850Y646100D02*X335600Y645350D01*
X333350Y646100D02*X334850D01*
X332600Y645350D02*X333350Y646100D01*
X332600Y645350D02*Y643850D01*
X333350Y643100D01*
X334850D01*
X335600Y643850D01*
X332600Y641600D02*X333350Y640850D01*
X334850D01*
X335600Y641600D01*
Y646100D02*Y641600D01*
M02*
