G04 start of page 4 for group 2 idx 2 *
G04 Title: Heart, outline *
G04 Creator: pcb 4.0.2 *
G04 CreationDate: Wed Apr  3 09:48:58 2019 UTC *
G04 For: alez *
G04 Format: Gerber/RS-274X *
G04 PCB-Dimensions (mil): 5906.00 5906.00 *
G04 PCB-Coordinate-Origin: lower left *
%MOIN*%
%FSLAX25Y25*%
%LNOUTLINE*%
%ADD37C,0.0111*%
G54D37*X484322Y579582D02*X454451Y585615D01*
X423982Y585317D02*X394240Y578671D01*
X366533Y565997D01*
X342071Y547822D01*
X321915Y524971D01*
X306974Y498414D01*
X297860Y469333D01*
X292140D02*X283026Y498414D01*
X582858Y472188D02*X573190Y501083D01*
X557701Y527325D01*
X537106Y549786D01*
X512274Y567451D01*
X574253Y382517D02*X583400Y411586D01*
X586331Y441914D01*
X582858Y472188D01*
X512274Y567451D02*X484322Y579582D01*
X493583Y223506D02*X523961Y274689D01*
X550892Y327771D01*
X574253Y382517D01*
X454451Y585615D02*X423982Y585317D01*
X166018D02*X135544Y585615D01*
X105677Y579582D01*
X77720Y567451D01*
X283026Y498414D02*X268085Y524971D01*
X247924Y547822D01*
X223467Y565997D01*
X195754Y578671D01*
X166018Y585317D01*
X77720Y567451D02*X52894Y549786D01*
X32294Y527325D01*
X16810Y501083D01*
X7136Y472188D01*
X3670Y441914D01*
X6594Y411586D01*
X15746Y382517D01*
X39103Y327771D01*
X66034Y274689D01*
X96411Y223506D01*
X130113Y174439D01*
X166994Y127727D01*
X423000D02*X459887Y174439D01*
X493583Y223506D01*
X166994Y127727D02*X206892Y83559D01*
X249617Y42120D01*
X295000Y3600D01*
X340378Y42120D01*
X383103Y83559D01*
X423000Y127727D01*
X292134Y469321D02*G75*G03X297866Y469321I2866J1043D01*G01*
M02*
