G04 This is an RS-274x file exported by *
G04 gerbv version 2.6.1 *
G04 More information is available about gerbv at *
G04 http://gerbv.geda-project.org/ *
G04 --End of header info--*
%MOIN*%
%FSLAX34Y34*%
%IPPOS*%
G04 --Define apertures--*
%ADD10C,0.0001*%
%ADD11C,0.0584*%
%ADD12C,0.0200*%
%ADD13C,0.0100*%
%ADD14C,0.0400*%
%ADD15C,0.0732*%
%ADD16C,0.0310*%
%ADD17C,0.0150*%
%ADD18C,0.1200*%
%ADD19C,0.0500*%
G04 --Start main section--*
G54D10*
G36*
G01X0024940Y0006698D02*
G01X0024940Y0007104D01*
G01X0025184Y0007497D01*
G01X0025482Y0007819D01*
G01X0025794Y0008092D01*
G01X0026073Y0008335D01*
G01X0026275Y0008572D01*
G01X0026352Y0008823D01*
G01X0026254Y0009112D01*
G01X0025967Y0009206D01*
G01X0025680Y0009104D01*
G01X0025553Y0008803D01*
G01X0024965Y0008836D01*
G01X0025050Y0009160D01*
G01X0025233Y0009426D01*
G01X0025532Y0009605D01*
G01X0025963Y0009672D01*
G01X0026382Y0009616D01*
G01X0026690Y0009455D01*
G01X0026879Y0009195D01*
G01X0026944Y0008848D01*
G01X0026862Y0008476D01*
G01X0026655Y0008168D01*
G01X0026372Y0007906D01*
G01X0026073Y0007668D01*
G01X0025807Y0007433D01*
G01X0025630Y0007179D01*
G01X0026990Y0007179D01*
G01X0026990Y0006698D01*
G01X0024940Y0006698D01*
G37*
G36*
G01X0029800Y0006698D02*
G01X0029800Y0007133D01*
G01X0030525Y0007133D01*
G01X0030525Y0009131D01*
G01X0029823Y0008692D01*
G01X0029823Y0009152D01*
G01X0030556Y0009628D01*
G01X0031109Y0009628D01*
G01X0031109Y0007133D01*
G01X0031781Y0007133D01*
G01X0031781Y0006698D01*
G01X0029800Y0006698D01*
G37*
G36*
G01X0029355Y0008165D02*
G01X0029278Y0007455D01*
G01X0029064Y0006989D01*
G01X0028742Y0006734D01*
G01X0028342Y0006658D01*
G01X0028342Y0007117D01*
G01X0028536Y0007166D01*
G01X0028669Y0007337D01*
G01X0028744Y0007661D01*
G01X0028769Y0008165D01*
G01X0028746Y0008676D01*
G01X0028673Y0008998D01*
G01X0028542Y0009167D01*
G01X0028349Y0009214D01*
G01X0028342Y0009213D01*
G01X0028342Y0009670D01*
G01X0028353Y0009672D01*
G01X0028750Y0009601D01*
G01X0029068Y0009360D01*
G01X0029278Y0008896D01*
G01X0029355Y0008165D01*
G37*
G36*
G01X0028342Y0006658D02*
G01X0028336Y0006657D01*
G01X0027931Y0006734D01*
G01X0027613Y0006988D01*
G01X0027405Y0007453D01*
G01X0027330Y0008165D01*
G01X0027403Y0008896D01*
G01X0027613Y0009360D01*
G01X0027935Y0009601D01*
G01X0028342Y0009670D01*
G01X0028342Y0009213D01*
G01X0028143Y0009164D01*
G01X0028008Y0008996D01*
G01X0027935Y0008672D01*
G01X0027915Y0008165D01*
G01X0027937Y0007661D01*
G01X0028010Y0007337D01*
G01X0028141Y0007166D01*
G01X0028340Y0007116D01*
G01X0028342Y0007117D01*
G01X0028342Y0006658D01*
G37*
G36*
G01X0034137Y0007524D02*
G01X0034075Y0007174D01*
G01X0033884Y0006900D01*
G01X0033557Y0006721D01*
G01X0033088Y0006657D01*
G01X0033085Y0006657D01*
G01X0033085Y0007070D01*
G01X0033092Y0007069D01*
G01X0033308Y0007104D01*
G01X0033443Y0007208D01*
G01X0033512Y0007366D01*
G01X0033533Y0007572D01*
G01X0033512Y0007745D01*
G01X0033441Y0007890D01*
G01X0033302Y0007992D01*
G01X0033085Y0008029D01*
G01X0033085Y0008441D01*
G01X0033283Y0008478D01*
G01X0033400Y0008576D01*
G01X0033452Y0008711D01*
G01X0033464Y0008861D01*
G01X0033445Y0009021D01*
G01X0033383Y0009148D01*
G01X0033265Y0009231D01*
G01X0033085Y0009261D01*
G01X0033085Y0009671D01*
G01X0033520Y0009614D01*
G01X0033828Y0009454D01*
G01X0034007Y0009208D01*
G01X0034065Y0008892D01*
G01X0034027Y0008670D01*
G01X0033923Y0008476D01*
G01X0033755Y0008328D01*
G01X0033533Y0008243D01*
G01X0033533Y0008235D01*
G01X0033772Y0008158D01*
G01X0033965Y0008015D01*
G01X0034092Y0007803D01*
G01X0034137Y0007524D01*
G37*
G36*
G01X0033085Y0006657D02*
G01X0032618Y0006721D01*
G01X0032290Y0006900D01*
G01X0032099Y0007174D01*
G01X0032036Y0007520D01*
G01X0032086Y0007803D01*
G01X0032219Y0008017D01*
G01X0032410Y0008158D01*
G01X0032632Y0008231D01*
G01X0032632Y0008239D01*
G01X0032412Y0008328D01*
G01X0032246Y0008478D01*
G01X0032140Y0008672D01*
G01X0032105Y0008896D01*
G01X0032167Y0009214D01*
G01X0032354Y0009460D01*
G01X0032657Y0009616D01*
G01X0033080Y0009672D01*
G01X0033085Y0009671D01*
G01X0033085Y0009261D01*
G01X0033080Y0009262D01*
G01X0032899Y0009231D01*
G01X0032782Y0009148D01*
G01X0032720Y0009021D01*
G01X0032701Y0008861D01*
G01X0032716Y0008709D01*
G01X0032774Y0008574D01*
G01X0032890Y0008478D01*
G01X0033084Y0008441D01*
G01X0033085Y0008441D01*
G01X0033085Y0008029D01*
G01X0033075Y0008031D01*
G01X0032865Y0007992D01*
G01X0032730Y0007890D01*
G01X0032657Y0007740D01*
G01X0032637Y0007563D01*
G01X0032657Y0007362D01*
G01X0032732Y0007204D01*
G01X0032874Y0007104D01*
G01X0033085Y0007070D01*
G01X0033085Y0006657D01*
G37*
G36*
G01X0036662Y0013499D02*
G01X0036662Y0014761D01*
G01X0036641Y0015000D01*
G01X0036572Y0015187D01*
G01X0036447Y0015310D01*
G01X0036260Y0015353D01*
G01X0036067Y0015305D01*
G01X0035920Y0015172D01*
G01X0035822Y0014966D01*
G01X0035789Y0014705D01*
G01X0035789Y0013499D01*
G01X0035205Y0013499D01*
G01X0035205Y0015245D01*
G01X0035202Y0015395D01*
G01X0035199Y0015540D01*
G01X0035194Y0015665D01*
G01X0035188Y0015748D01*
G01X0035745Y0015748D01*
G01X0035754Y0015667D01*
G01X0035762Y0015547D01*
G01X0035768Y0015413D01*
G01X0035772Y0015301D01*
G01X0035780Y0015301D01*
G01X0036077Y0015675D01*
G01X0036504Y0015792D01*
G01X0036847Y0015725D01*
G01X0037075Y0015542D01*
G01X0037204Y0015268D01*
G01X0037243Y0014927D01*
G01X0037243Y0013499D01*
G01X0036662Y0013499D01*
G37*
G36*
G01X0023568Y0016462D02*
G01X0023613Y0016472D01*
G01X0023931Y0016434D01*
G01X0024187Y0016318D01*
G01X0024378Y0016108D01*
G01X0024505Y0015798D01*
G01X0023954Y0015721D01*
G01X0023818Y0015942D01*
G01X0023600Y0016010D01*
G01X0023568Y0016001D01*
G01X0023568Y0016462D01*
G37*
G36*
G01X0024583Y0014457D02*
G01X0024521Y0014051D01*
G01X0024334Y0013736D01*
G01X0024027Y0013530D01*
G01X0023598Y0013457D01*
G01X0023568Y0013463D01*
G01X0023568Y0013915D01*
G01X0023580Y0013913D01*
G01X0023887Y0014051D01*
G01X0023997Y0014440D01*
G01X0023970Y0014653D01*
G01X0023887Y0014815D01*
G01X0023752Y0014917D01*
G01X0023568Y0014953D01*
G01X0023568Y0015348D01*
G01X0023733Y0015384D01*
G01X0024082Y0015320D01*
G01X0024351Y0015137D01*
G01X0024523Y0014846D01*
G01X0024583Y0014457D01*
G37*
G36*
G01X0023568Y0013463D02*
G01X0023140Y0013547D01*
G01X0022802Y0013819D01*
G01X0022595Y0014270D01*
G01X0022526Y0014896D01*
G01X0022596Y0015582D01*
G01X0022807Y0016075D01*
G01X0023149Y0016372D01*
G01X0023568Y0016462D01*
G01X0023568Y0016001D01*
G01X0023390Y0015951D01*
G01X0023230Y0015775D01*
G01X0023130Y0015480D01*
G01X0023097Y0015062D01*
G01X0023357Y0015301D01*
G01X0023568Y0015348D01*
G01X0023568Y0014953D01*
G01X0023565Y0014954D01*
G01X0023411Y0014929D01*
G01X0023274Y0014848D01*
G01X0023177Y0014708D01*
G01X0023139Y0014503D01*
G01X0023170Y0014270D01*
G01X0023257Y0014081D01*
G01X0023397Y0013956D01*
G01X0023568Y0013915D01*
G01X0023568Y0013463D01*
G37*
G36*
G01X0020269Y0013499D02*
G01X0020269Y0013933D01*
G01X0020994Y0013933D01*
G01X0020994Y0015931D01*
G01X0020291Y0015492D01*
G01X0020291Y0015952D01*
G01X0021025Y0016428D01*
G01X0021578Y0016428D01*
G01X0021578Y0013933D01*
G01X0022249Y0013933D01*
G01X0022249Y0013499D01*
G01X0020269Y0013499D01*
G37*
G36*
G01X0030551Y0015748D02*
G01X0030551Y0014486D01*
G01X0030572Y0014245D01*
G01X0030640Y0014058D01*
G01X0030763Y0013938D01*
G01X0030950Y0013894D01*
G01X0031141Y0013939D01*
G01X0031291Y0014072D01*
G01X0031386Y0014278D01*
G01X0031422Y0014542D01*
G01X0031422Y0015748D01*
G01X0032006Y0015748D01*
G01X0032006Y0013852D01*
G01X0032010Y0013704D01*
G01X0032016Y0013579D01*
G01X0032023Y0013499D01*
G01X0031465Y0013499D01*
G01X0031457Y0013578D01*
G01X0031449Y0013700D01*
G01X0031443Y0013833D01*
G01X0031440Y0013946D01*
G01X0031430Y0013946D01*
G01X0031133Y0013573D01*
G01X0030707Y0013457D01*
G01X0030364Y0013524D01*
G01X0030133Y0013704D01*
G01X0030006Y0013979D01*
G01X0029967Y0014320D01*
G01X0029967Y0015748D01*
G01X0030551Y0015748D01*
G37*
G36*
G01X0027175Y0012981D02*
G01X0027176Y0012981D01*
G01X0027364Y0013010D01*
G01X0027512Y0013110D01*
G01X0027608Y0013292D01*
G01X0027643Y0013576D01*
G01X0027643Y0013694D01*
G01X0027645Y0013804D01*
G01X0027647Y0013916D01*
G01X0027643Y0013916D01*
G01X0027356Y0013601D01*
G01X0027175Y0013560D01*
G01X0027175Y0013910D01*
G01X0027339Y0013941D01*
G01X0027496Y0014062D01*
G01X0027606Y0014293D01*
G01X0027647Y0014655D01*
G01X0027606Y0015008D01*
G01X0027497Y0015235D01*
G01X0027344Y0015355D01*
G01X0027175Y0015390D01*
G01X0027175Y0015741D01*
G01X0027364Y0015696D01*
G01X0027643Y0015387D01*
G01X0027654Y0015387D01*
G01X0027656Y0015486D01*
G01X0027664Y0015597D01*
G01X0027672Y0015692D01*
G01X0027682Y0015748D01*
G01X0028236Y0015748D01*
G01X0028227Y0015538D01*
G01X0028223Y0015228D01*
G01X0028223Y0013567D01*
G01X0028152Y0013141D01*
G01X0027944Y0012837D01*
G01X0027609Y0012657D01*
G01X0027175Y0012599D01*
G01X0027175Y0012981D01*
G37*
G36*
G01X0027175Y0013560D02*
G01X0026919Y0013503D01*
G01X0026550Y0013586D01*
G01X0026294Y0013821D01*
G01X0026143Y0014181D01*
G01X0026095Y0014642D01*
G01X0026146Y0015112D01*
G01X0026304Y0015476D01*
G01X0026574Y0015709D01*
G01X0026963Y0015792D01*
G01X0027175Y0015741D01*
G01X0027175Y0015390D01*
G01X0027171Y0015390D01*
G01X0026972Y0015347D01*
G01X0026826Y0015212D01*
G01X0026734Y0014979D01*
G01X0026704Y0014642D01*
G01X0026732Y0014323D01*
G01X0026820Y0014093D01*
G01X0026965Y0013955D01*
G01X0027167Y0013908D01*
G01X0027175Y0013910D01*
G01X0027175Y0013560D01*
G37*
G36*
G01X0027159Y0012596D02*
G01X0026766Y0012642D01*
G01X0026477Y0012767D01*
G01X0026286Y0012958D01*
G01X0026188Y0013201D01*
G01X0026772Y0013270D01*
G01X0026905Y0013058D01*
G01X0027175Y0012981D01*
G01X0027175Y0012599D01*
G01X0027159Y0012596D01*
G37*
G36*
G01X0027600Y0037080D02*
G01X0029300Y0037080D01*
G01X0027600Y0037080D01*
G01X0027600Y0037080D01*
G37*
G36*
G01X0027600Y0038680D02*
G01X0029300Y0038680D01*
G01X0027600Y0038680D01*
G01X0027600Y0038680D01*
G37*
G36*
G01X0027600Y0026280D02*
G01X0025900Y0026280D01*
G01X0027600Y0026281D01*
G01X0027600Y0026280D01*
G37*
G36*
G01X0027600Y0039480D02*
G01X0025900Y0039480D01*
G01X0027600Y0039481D01*
G01X0027600Y0039480D01*
G37*
G36*
G01X0033560Y0012981D02*
G01X0033561Y0012981D01*
G01X0033749Y0013010D01*
G01X0033897Y0013110D01*
G01X0033993Y0013292D01*
G01X0034028Y0013576D01*
G01X0034028Y0013694D01*
G01X0034030Y0013804D01*
G01X0034032Y0013916D01*
G01X0034028Y0013916D01*
G01X0033741Y0013601D01*
G01X0033560Y0013560D01*
G01X0033560Y0013910D01*
G01X0033724Y0013941D01*
G01X0033881Y0014062D01*
G01X0033991Y0014293D01*
G01X0034032Y0014655D01*
G01X0033991Y0015008D01*
G01X0033883Y0015235D01*
G01X0033729Y0015355D01*
G01X0033560Y0015390D01*
G01X0033560Y0015741D01*
G01X0033749Y0015696D01*
G01X0034028Y0015387D01*
G01X0034039Y0015387D01*
G01X0034041Y0015486D01*
G01X0034049Y0015597D01*
G01X0034057Y0015692D01*
G01X0034068Y0015748D01*
G01X0034621Y0015748D01*
G01X0034612Y0015538D01*
G01X0034608Y0015228D01*
G01X0034608Y0013567D01*
G01X0034537Y0013141D01*
G01X0034329Y0012837D01*
G01X0033995Y0012657D01*
G01X0033560Y0012599D01*
G01X0033560Y0012981D01*
G37*
G36*
G01X0033560Y0013560D02*
G01X0033305Y0013503D01*
G01X0032935Y0013586D01*
G01X0032679Y0013821D01*
G01X0032528Y0014181D01*
G01X0032480Y0014642D01*
G01X0032531Y0015112D01*
G01X0032690Y0015476D01*
G01X0032960Y0015709D01*
G01X0033349Y0015792D01*
G01X0033560Y0015741D01*
G01X0033560Y0015390D01*
G01X0033556Y0015390D01*
G01X0033357Y0015347D01*
G01X0033211Y0015212D01*
G01X0033120Y0014979D01*
G01X0033089Y0014642D01*
G01X0033117Y0014323D01*
G01X0033205Y0014093D01*
G01X0033350Y0013955D01*
G01X0033552Y0013908D01*
G01X0033560Y0013910D01*
G01X0033560Y0013560D01*
G37*
G36*
G01X0033544Y0012596D02*
G01X0033151Y0012642D01*
G01X0032862Y0012767D01*
G01X0032671Y0012958D01*
G01X0032573Y0013201D01*
G01X0033158Y0013270D01*
G01X0033290Y0013058D01*
G01X0033560Y0012981D01*
G01X0033560Y0012599D01*
G01X0033544Y0012596D01*
G37*
G36*
G01X0039944Y0014625D02*
G01X0039871Y0014153D01*
G01X0039657Y0013783D01*
G01X0039299Y0013542D01*
G01X0038811Y0013459D01*
G01X0038811Y0013859D01*
G01X0039023Y0013900D01*
G01X0039193Y0014039D01*
G01X0039297Y0014278D01*
G01X0039333Y0014625D01*
G01X0039300Y0014972D01*
G01X0039201Y0015208D01*
G01X0039041Y0015343D01*
G01X0038821Y0015388D01*
G01X0038811Y0015386D01*
G01X0038811Y0015789D01*
G01X0038813Y0015790D01*
G01X0039330Y0015702D01*
G01X0039680Y0015459D01*
G01X0039879Y0015091D01*
G01X0039944Y0014625D01*
G37*
G36*
G01X0038811Y0013459D02*
G01X0038800Y0013457D01*
G01X0038316Y0013542D01*
G01X0037963Y0013781D01*
G01X0037748Y0014149D01*
G01X0037676Y0014625D01*
G01X0037745Y0015089D01*
G01X0037957Y0015459D01*
G01X0038312Y0015702D01*
G01X0038811Y0015789D01*
G01X0038811Y0015386D01*
G01X0038593Y0015343D01*
G01X0038426Y0015205D01*
G01X0038324Y0014969D01*
G01X0038289Y0014625D01*
G01X0038325Y0014278D01*
G01X0038428Y0014039D01*
G01X0038588Y0013900D01*
G01X0038794Y0013856D01*
G01X0038811Y0013859D01*
G01X0038811Y0013459D01*
G37*
G36*
G01X0044836Y0046608D02*
G01X0044526Y0046652D01*
G01X0044297Y0046783D01*
G01X0044155Y0047005D01*
G01X0044108Y0047317D01*
G01X0044108Y0048978D01*
G01X0043722Y0048978D01*
G01X0043722Y0049473D01*
G01X0044148Y0049473D01*
G01X0044396Y0050135D01*
G01X0044892Y0050135D01*
G01X0044892Y0049473D01*
G01X0045470Y0049473D01*
G01X0045470Y0048978D01*
G01X0044892Y0048978D01*
G01X0044892Y0047515D01*
G01X0044976Y0047210D01*
G01X0045239Y0047114D01*
G01X0045371Y0047124D01*
G01X0045504Y0047150D01*
G01X0045504Y0046697D01*
G01X0045194Y0046632D01*
G01X0044836Y0046608D01*
G37*
G36*
G01X0045983Y0046656D02*
G01X0045983Y0048812D01*
G01X0045981Y0049004D01*
G01X0045975Y0049197D01*
G01X0045969Y0049364D01*
G01X0045961Y0049473D01*
G01X0046717Y0049473D01*
G01X0046728Y0049364D01*
G01X0046739Y0049197D01*
G01X0046748Y0049015D01*
G01X0046753Y0048872D01*
G01X0046765Y0048872D01*
G01X0046883Y0049145D01*
G01X0047021Y0049351D01*
G01X0047216Y0049481D01*
G01X0047495Y0049528D01*
G01X0047633Y0049515D01*
G01X0047740Y0049489D01*
G01X0047740Y0048877D01*
G01X0047585Y0048903D01*
G01X0047402Y0048916D01*
G01X0047138Y0048860D01*
G01X0046939Y0048694D01*
G01X0046817Y0048420D01*
G01X0046776Y0048038D01*
G01X0046776Y0046656D01*
G01X0045983Y0046656D01*
G37*
G36*
G01X0051102Y0046603D02*
G01X0050465Y0046708D01*
G01X0050013Y0047002D01*
G01X0049743Y0047457D01*
G01X0049653Y0048049D01*
G01X0049751Y0048674D01*
G01X0050036Y0049137D01*
G01X0050493Y0049426D01*
G01X0051113Y0049525D01*
G01X0051638Y0049452D01*
G01X0052036Y0049252D01*
G01X0052303Y0048955D01*
G01X0052447Y0048585D01*
G01X0051649Y0048548D01*
G01X0051480Y0048892D01*
G01X0051096Y0049023D01*
G01X0050820Y0048962D01*
G01X0050631Y0048781D01*
G01X0050521Y0048484D01*
G01X0050484Y0048078D01*
G01X0050523Y0047652D01*
G01X0050640Y0047347D01*
G01X0050835Y0047164D01*
G01X0051108Y0047103D01*
G01X0051485Y0047233D01*
G01X0051675Y0047627D01*
G01X0052470Y0047593D01*
G01X0052340Y0047218D01*
G01X0052069Y0046903D01*
G01X0051657Y0046684D01*
G01X0051102Y0046603D01*
G37*
G36*
G01X0005817Y0047205D02*
G01X0006137Y0047231D01*
G01X0006421Y0047298D01*
G01X0006657Y0047398D01*
G01X0006832Y0047515D01*
G01X0006832Y0048023D01*
G01X0005936Y0048023D01*
G01X0005936Y0048590D01*
G01X0007535Y0048590D01*
G01X0007535Y0047241D01*
G01X0007233Y0046997D01*
G01X0006835Y0046793D01*
G01X0006350Y0046656D01*
G01X0005796Y0046603D01*
G01X0004958Y0046744D01*
G01X0004380Y0047140D01*
G01X0004044Y0047744D01*
G01X0003937Y0048507D01*
G01X0004052Y0049283D01*
G01X0004398Y0049872D01*
G01X0004984Y0050247D01*
G01X0005814Y0050380D01*
G01X0006428Y0050312D01*
G01X0006900Y0050119D01*
G01X0007238Y0049817D01*
G01X0007457Y0049424D01*
G01X0006748Y0049210D01*
G01X0006624Y0049426D01*
G01X0006428Y0049606D01*
G01X0006160Y0049728D01*
G01X0005814Y0049775D01*
G01X0005319Y0049684D01*
G01X0004976Y0049429D01*
G01X0004775Y0049028D01*
G01X0004710Y0048507D01*
G01X0004775Y0047981D01*
G01X0004978Y0047570D01*
G01X0005325Y0047301D01*
G01X0005817Y0047205D01*
G37*
G36*
G01X0014072Y0047246D02*
G01X0014777Y0049473D01*
G01X0015543Y0049473D01*
G01X0014504Y0046656D01*
G01X0013629Y0046656D01*
G01X0012622Y0049473D01*
G01X0013395Y0049473D01*
G01X0014072Y0047246D01*
G37*
G36*
G01X0020734Y0046656D02*
G01X0020734Y0048236D01*
G01X0020708Y0048535D01*
G01X0020622Y0048770D01*
G01X0020466Y0048924D01*
G01X0020231Y0048978D01*
G01X0019990Y0048918D01*
G01X0019805Y0048752D01*
G01X0019682Y0048494D01*
G01X0019641Y0048166D01*
G01X0019641Y0046656D01*
G01X0018909Y0046656D01*
G01X0018909Y0048843D01*
G01X0018906Y0049030D01*
G01X0018901Y0049213D01*
G01X0018896Y0049369D01*
G01X0018888Y0049473D01*
G01X0019586Y0049473D01*
G01X0019596Y0049371D01*
G01X0019606Y0049221D01*
G01X0019615Y0049054D01*
G01X0019620Y0048913D01*
G01X0019630Y0048913D01*
G01X0020003Y0049382D01*
G01X0020536Y0049528D01*
G01X0020966Y0049445D01*
G01X0021252Y0049215D01*
G01X0021413Y0048872D01*
G01X0021463Y0048444D01*
G01X0021463Y0046656D01*
G01X0020734Y0046656D01*
G37*
G36*
G01X0023993Y0046656D02*
G01X0023993Y0048236D01*
G01X0023967Y0048535D01*
G01X0023881Y0048770D01*
G01X0023725Y0048924D01*
G01X0023491Y0048978D01*
G01X0023249Y0048918D01*
G01X0023064Y0048752D01*
G01X0022941Y0048494D01*
G01X0022900Y0048166D01*
G01X0022900Y0046656D01*
G01X0022168Y0046656D01*
G01X0022168Y0048843D01*
G01X0022166Y0049030D01*
G01X0022161Y0049213D01*
G01X0022155Y0049369D01*
G01X0022148Y0049473D01*
G01X0022846Y0049473D01*
G01X0022856Y0049371D01*
G01X0022866Y0049221D01*
G01X0022874Y0049054D01*
G01X0022879Y0048913D01*
G01X0022889Y0048913D01*
G01X0023262Y0049382D01*
G01X0023795Y0049528D01*
G01X0024225Y0049445D01*
G01X0024512Y0049215D01*
G01X0024673Y0048872D01*
G01X0024722Y0048444D01*
G01X0024722Y0046656D01*
G01X0023993Y0046656D01*
G37*
G36*
G01X0016966Y0048355D02*
G01X0017443Y0048364D01*
G01X0017443Y0048507D01*
G01X0017415Y0048762D01*
G01X0017337Y0048931D01*
G01X0017206Y0049023D01*
G01X0017032Y0049051D01*
G01X0016966Y0049044D01*
G01X0016966Y0049513D01*
G01X0017063Y0049525D01*
G01X0017532Y0049460D01*
G01X0017881Y0049265D01*
G01X0018099Y0048950D01*
G01X0018175Y0048515D01*
G01X0018175Y0047489D01*
G01X0018182Y0047311D01*
G01X0018217Y0047179D01*
G01X0018286Y0047098D01*
G01X0018406Y0047072D01*
G01X0018568Y0047088D01*
G01X0018568Y0046692D01*
G01X0018451Y0046663D01*
G01X0018347Y0046643D01*
G01X0018234Y0046630D01*
G01X0018099Y0046624D01*
G01X0017859Y0046658D01*
G01X0017690Y0046760D01*
G01X0017535Y0047158D01*
G01X0017519Y0047158D01*
G01X0017144Y0046749D01*
G01X0016966Y0046702D01*
G01X0016966Y0047147D01*
G01X0017082Y0047174D01*
G01X0017274Y0047330D01*
G01X0017399Y0047557D01*
G01X0017443Y0047817D01*
G01X0017443Y0047960D01*
G01X0017069Y0047955D01*
G01X0016966Y0047945D01*
G01X0016966Y0048355D01*
G37*
G36*
G01X0016966Y0049044D02*
G01X0016868Y0049033D01*
G01X0016746Y0048968D01*
G01X0016659Y0048846D01*
G01X0016616Y0048653D01*
G01X0015853Y0048690D01*
G01X0015967Y0049025D01*
G01X0016196Y0049291D01*
G01X0016558Y0049463D01*
G01X0016966Y0049513D01*
G01X0016966Y0049044D01*
G37*
G36*
G01X0016592Y0046603D02*
G01X0016228Y0046658D01*
G01X0015957Y0046822D01*
G01X0015785Y0047090D01*
G01X0015725Y0047453D01*
G01X0015811Y0047871D01*
G01X0016050Y0048148D01*
G01X0016404Y0048301D01*
G01X0016837Y0048353D01*
G01X0016966Y0048355D01*
G01X0016966Y0047945D01*
G01X0016844Y0047934D01*
G01X0016659Y0047874D01*
G01X0016535Y0047744D01*
G01X0016488Y0047509D01*
G01X0016579Y0047210D01*
G01X0016826Y0047114D01*
G01X0016966Y0047147D01*
G01X0016966Y0046702D01*
G01X0016592Y0046603D01*
G37*
G36*
G01X0012390Y0048067D02*
G01X0012299Y0047476D01*
G01X0012031Y0047012D01*
G01X0011583Y0046710D01*
G01X0010971Y0046606D01*
G01X0010971Y0047107D01*
G01X0011237Y0047158D01*
G01X0011450Y0047333D01*
G01X0011580Y0047632D01*
G01X0011625Y0048067D01*
G01X0011584Y0048501D01*
G01X0011461Y0048796D01*
G01X0011259Y0048966D01*
G01X0010985Y0049023D01*
G01X0010971Y0049020D01*
G01X0010971Y0049525D01*
G01X0010974Y0049525D01*
G01X0011622Y0049416D01*
G01X0012059Y0049111D01*
G01X0012309Y0048650D01*
G01X0012390Y0048067D01*
G37*
G36*
G01X0010971Y0046606D02*
G01X0010959Y0046603D01*
G01X0010352Y0046710D01*
G01X0009909Y0047010D01*
G01X0009641Y0047470D01*
G01X0009550Y0048067D01*
G01X0009636Y0048648D01*
G01X0009901Y0049111D01*
G01X0010347Y0049416D01*
G01X0010971Y0049525D01*
G01X0010971Y0049020D01*
G01X0010699Y0048966D01*
G01X0010490Y0048794D01*
G01X0010361Y0048497D01*
G01X0010318Y0048067D01*
G01X0010362Y0047632D01*
G01X0010492Y0047333D01*
G01X0010693Y0047158D01*
G01X0010950Y0047103D01*
G01X0010971Y0047107D01*
G01X0010971Y0046606D01*
G37*
G36*
G01X0036956Y0047702D02*
G01X0036835Y0047223D01*
G01X0036503Y0046898D01*
G01X0036014Y0046713D01*
G01X0035422Y0046656D01*
G01X0035194Y0046656D01*
G01X0035194Y0047226D01*
G01X0035352Y0047226D01*
G01X0035656Y0047249D01*
G01X0035899Y0047335D01*
G01X0036063Y0047502D01*
G01X0036122Y0047762D01*
G01X0036059Y0048007D01*
G01X0035887Y0048166D01*
G01X0035634Y0048252D01*
G01X0035321Y0048278D01*
G01X0035194Y0048278D01*
G01X0035194Y0048846D01*
G01X0035219Y0048846D01*
G01X0035523Y0048874D01*
G01X0035730Y0048957D01*
G01X0035891Y0049299D01*
G01X0035847Y0049510D01*
G01X0035718Y0049650D01*
G01X0035214Y0049755D01*
G01X0035194Y0049755D01*
G01X0035194Y0050325D01*
G01X0035253Y0050325D01*
G01X0035879Y0050267D01*
G01X0036344Y0050098D01*
G01X0036629Y0049809D01*
G01X0036728Y0049403D01*
G01X0036681Y0049115D01*
G01X0036539Y0048874D01*
G01X0036303Y0048695D01*
G01X0035969Y0048585D01*
G01X0036394Y0048489D01*
G01X0036703Y0048304D01*
G01X0036893Y0048041D01*
G01X0036956Y0047702D01*
G37*
G36*
G01X0035194Y0046656D02*
G01X0033434Y0046656D01*
G01X0033434Y0050325D01*
G01X0035194Y0050325D01*
G01X0035194Y0049755D01*
G01X0034266Y0049755D01*
G01X0034266Y0048846D01*
G01X0035194Y0048846D01*
G01X0035194Y0048278D01*
G01X0034266Y0048278D01*
G01X0034266Y0047226D01*
G01X0035194Y0047226D01*
G01X0035194Y0046656D01*
G37*
G36*
G01X0038877Y0047101D02*
G01X0038914Y0047093D01*
G01X0039255Y0047174D01*
G01X0039444Y0047429D01*
G01X0040191Y0047369D01*
G01X0040047Y0047114D01*
G01X0039805Y0046864D01*
G01X0039424Y0046676D01*
G01X0038877Y0046604D01*
G01X0038877Y0047101D01*
G37*
G36*
G01X0038877Y0049524D02*
G01X0038886Y0049525D01*
G01X0039500Y0049408D01*
G01X0039920Y0049085D01*
G01X0040160Y0048585D01*
G01X0040236Y0047945D01*
G01X0040236Y0047923D01*
G01X0038877Y0047923D01*
G01X0038877Y0048382D01*
G01X0039469Y0048382D01*
G01X0039413Y0048680D01*
G01X0039291Y0048892D01*
G01X0039110Y0049022D01*
G01X0038877Y0049064D01*
G01X0038877Y0049524D01*
G37*
G36*
G01X0038874Y0046603D02*
G01X0038279Y0046692D01*
G01X0037831Y0046965D01*
G01X0037546Y0047426D01*
G01X0037447Y0048078D01*
G01X0037563Y0048757D01*
G01X0037879Y0049202D01*
G01X0038338Y0049450D01*
G01X0038877Y0049524D01*
G01X0038877Y0049064D01*
G01X0038874Y0049064D01*
G01X0038646Y0049025D01*
G01X0038462Y0048905D01*
G01X0038338Y0048694D01*
G01X0038285Y0048382D01*
G01X0038877Y0048382D01*
G01X0038877Y0047923D01*
G01X0038279Y0047923D01*
G01X0038313Y0047593D01*
G01X0038423Y0047330D01*
G01X0038620Y0047155D01*
G01X0038877Y0047101D01*
G01X0038877Y0046604D01*
G01X0038874Y0046603D01*
G37*
G36*
G01X0041949Y0048355D02*
G01X0042467Y0048364D01*
G01X0042467Y0048507D01*
G01X0042436Y0048762D01*
G01X0042351Y0048931D01*
G01X0042210Y0049023D01*
G01X0042021Y0049051D01*
G01X0041949Y0049044D01*
G01X0041949Y0049513D01*
G01X0042055Y0049525D01*
G01X0042563Y0049460D01*
G01X0042940Y0049265D01*
G01X0043177Y0048950D01*
G01X0043259Y0048515D01*
G01X0043259Y0047489D01*
G01X0043268Y0047311D01*
G01X0043304Y0047179D01*
G01X0043380Y0047098D01*
G01X0043510Y0047072D01*
G01X0043685Y0047088D01*
G01X0043685Y0046692D01*
G01X0043558Y0046663D01*
G01X0043446Y0046643D01*
G01X0043324Y0046630D01*
G01X0043177Y0046624D01*
G01X0042917Y0046658D01*
G01X0042735Y0046760D01*
G01X0042566Y0047158D01*
G01X0042549Y0047158D01*
G01X0042142Y0046749D01*
G01X0041949Y0046702D01*
G01X0041949Y0047147D01*
G01X0042075Y0047174D01*
G01X0042283Y0047330D01*
G01X0042419Y0047557D01*
G01X0042467Y0047817D01*
G01X0042467Y0047960D01*
G01X0042061Y0047955D01*
G01X0041949Y0047945D01*
G01X0041949Y0048355D01*
G37*
G36*
G01X0041949Y0049044D02*
G01X0041843Y0049033D01*
G01X0041711Y0048968D01*
G01X0041618Y0048846D01*
G01X0041570Y0048653D01*
G01X0040744Y0048690D01*
G01X0040868Y0049025D01*
G01X0041116Y0049291D01*
G01X0041508Y0049463D01*
G01X0041949Y0049513D01*
G01X0041949Y0049044D01*
G37*
G36*
G01X0041544Y0046603D02*
G01X0041150Y0046658D01*
G01X0040856Y0046822D01*
G01X0040670Y0047090D01*
G01X0040606Y0047453D01*
G01X0040699Y0047871D01*
G01X0040958Y0048148D01*
G01X0041342Y0048301D01*
G01X0041810Y0048353D01*
G01X0041949Y0048355D01*
G01X0041949Y0047945D01*
G01X0041818Y0047934D01*
G01X0041618Y0047874D01*
G01X0041483Y0047744D01*
G01X0041432Y0047509D01*
G01X0041530Y0047210D01*
G01X0041798Y0047114D01*
G01X0041949Y0047147D01*
G01X0041949Y0046702D01*
G01X0041544Y0046603D01*
G37*
G36*
G01X0054297Y0047101D02*
G01X0054334Y0047093D01*
G01X0054675Y0047174D01*
G01X0054864Y0047429D01*
G01X0055611Y0047369D01*
G01X0055468Y0047114D01*
G01X0055225Y0046864D01*
G01X0054844Y0046676D01*
G01X0054297Y0046604D01*
G01X0054297Y0047101D01*
G37*
G36*
G01X0054297Y0049524D02*
G01X0054305Y0049525D01*
G01X0054920Y0049408D01*
G01X0055341Y0049085D01*
G01X0055580Y0048585D01*
G01X0055656Y0047945D01*
G01X0055656Y0047923D01*
G01X0054297Y0047923D01*
G01X0054297Y0048382D01*
G01X0054889Y0048382D01*
G01X0054833Y0048680D01*
G01X0054712Y0048892D01*
G01X0054530Y0049022D01*
G01X0054297Y0049064D01*
G01X0054297Y0049524D01*
G37*
G36*
G01X0054294Y0046603D02*
G01X0053699Y0046692D01*
G01X0053251Y0046965D01*
G01X0052966Y0047426D01*
G01X0052867Y0048078D01*
G01X0052983Y0048757D01*
G01X0053299Y0049202D01*
G01X0053759Y0049450D01*
G01X0054297Y0049524D01*
G01X0054297Y0049064D01*
G01X0054294Y0049064D01*
G01X0054066Y0049025D01*
G01X0053883Y0048905D01*
G01X0053759Y0048694D01*
G01X0053705Y0048382D01*
G01X0054297Y0048382D01*
G01X0054297Y0047923D01*
G01X0053699Y0047923D01*
G01X0053733Y0047593D01*
G01X0053843Y0047330D01*
G01X0054041Y0047155D01*
G01X0054297Y0047101D01*
G01X0054297Y0046604D01*
G01X0054294Y0046603D01*
G37*
G54D11*
G01X0029112Y0016310D03*
G01X0029112Y0015456D02*
G01X0029112Y0013791D01*
G54D15*
G01X0025793Y0050099D03*
G01X0025793Y0049107D02*
G01X0025793Y0047021D01*
G01X0048625Y0050099D03*
G01X0048625Y0049077D02*
G01X0048625Y0047052D01*
G01X0008601Y0049107D02*
G01X0008601Y0047021D01*
G01X0008601Y0050099D03*
G54D10*
G36*
G01X0025900Y0038980D02*
G01X0025900Y0038780D01*
G01X0029300Y0038780D01*
G01X0029300Y0038980D01*
G01X0025900Y0038980D01*
G37*
G36*
G01X0025900Y0039380D02*
G01X0025900Y0039180D01*
G01X0029300Y0039180D01*
G01X0029300Y0039380D01*
G01X0025900Y0039380D01*
G37*
G36*
G01X0025900Y0039780D02*
G01X0025900Y0039580D01*
G01X0029300Y0039580D01*
G01X0029300Y0039780D01*
G01X0025900Y0039780D01*
G37*
G36*
G01X0025900Y0025380D02*
G01X0025900Y0025180D01*
G01X0029300Y0025180D01*
G01X0029300Y0025380D01*
G01X0025900Y0025380D01*
G37*
G36*
G01X0025900Y0024980D02*
G01X0025900Y0023780D01*
G01X0029300Y0023780D01*
G01X0029300Y0024980D01*
G01X0025900Y0024980D01*
G37*
G36*
G01X0025900Y0025780D02*
G01X0025900Y0025580D01*
G01X0029300Y0025580D01*
G01X0029300Y0025780D01*
G01X0025900Y0025780D01*
G37*
G36*
G01X0025900Y0026180D02*
G01X0025900Y0025980D01*
G01X0029300Y0025980D01*
G01X0029300Y0026180D01*
G01X0025900Y0026180D01*
G37*
G36*
G01X0025900Y0026580D02*
G01X0025900Y0026380D01*
G01X0029300Y0026380D01*
G01X0029300Y0026580D01*
G01X0025900Y0026580D01*
G37*
G36*
G01X0025900Y0026980D02*
G01X0025900Y0026780D01*
G01X0029300Y0026780D01*
G01X0029300Y0026980D01*
G01X0025900Y0026980D01*
G37*
G36*
G01X0025900Y0027380D02*
G01X0025900Y0027180D01*
G01X0029300Y0027180D01*
G01X0029300Y0027380D01*
G01X0025900Y0027380D01*
G37*
G36*
G01X0025900Y0027780D02*
G01X0025900Y0027580D01*
G01X0029300Y0027580D01*
G01X0029300Y0027780D01*
G01X0025900Y0027780D01*
G37*
G36*
G01X0025900Y0032580D02*
G01X0025900Y0032380D01*
G01X0029300Y0032380D01*
G01X0029300Y0032580D01*
G01X0025900Y0032580D01*
G37*
G36*
G01X0025900Y0032980D02*
G01X0025900Y0032780D01*
G01X0029300Y0032780D01*
G01X0029300Y0032980D01*
G01X0025900Y0032980D01*
G37*
G36*
G01X0025900Y0033380D02*
G01X0025900Y0033180D01*
G01X0029300Y0033180D01*
G01X0029300Y0033380D01*
G01X0025900Y0033380D01*
G37*
G36*
G01X0025900Y0033780D02*
G01X0025900Y0033580D01*
G01X0029300Y0033580D01*
G01X0029300Y0033780D01*
G01X0025900Y0033780D01*
G37*
G36*
G01X0025900Y0034180D02*
G01X0025900Y0033980D01*
G01X0029300Y0033980D01*
G01X0029300Y0034180D01*
G01X0025900Y0034180D01*
G37*
G36*
G01X0025900Y0034580D02*
G01X0025900Y0034380D01*
G01X0029300Y0034380D01*
G01X0029300Y0034580D01*
G01X0025900Y0034580D01*
G37*
G36*
G01X0025900Y0028180D02*
G01X0025900Y0027980D01*
G01X0029300Y0027980D01*
G01X0029300Y0028180D01*
G01X0025900Y0028180D01*
G37*
G36*
G01X0025900Y0028580D02*
G01X0025900Y0028380D01*
G01X0029300Y0028380D01*
G01X0029300Y0028580D01*
G01X0025900Y0028580D01*
G37*
G36*
G01X0025900Y0028980D02*
G01X0025900Y0028780D01*
G01X0029300Y0028780D01*
G01X0029300Y0028980D01*
G01X0025900Y0028980D01*
G37*
G36*
G01X0025900Y0029380D02*
G01X0025900Y0029180D01*
G01X0029300Y0029180D01*
G01X0029300Y0029380D01*
G01X0025900Y0029380D01*
G37*
G36*
G01X0025900Y0029780D02*
G01X0025900Y0029580D01*
G01X0029300Y0029580D01*
G01X0029300Y0029780D01*
G01X0025900Y0029780D01*
G37*
G36*
G01X0025900Y0030180D02*
G01X0025900Y0029980D01*
G01X0029300Y0029980D01*
G01X0029300Y0030180D01*
G01X0025900Y0030180D01*
G37*
G36*
G01X0025900Y0030580D02*
G01X0025900Y0030380D01*
G01X0029300Y0030380D01*
G01X0029300Y0030580D01*
G01X0025900Y0030580D01*
G37*
G36*
G01X0025900Y0030980D02*
G01X0025900Y0030780D01*
G01X0029300Y0030780D01*
G01X0029300Y0030980D01*
G01X0025900Y0030980D01*
G37*
G36*
G01X0025900Y0031380D02*
G01X0025900Y0031180D01*
G01X0029300Y0031180D01*
G01X0029300Y0031380D01*
G01X0025900Y0031380D01*
G37*
G36*
G01X0025900Y0031780D02*
G01X0025900Y0031580D01*
G01X0029300Y0031580D01*
G01X0029300Y0031780D01*
G01X0025900Y0031780D01*
G37*
G36*
G01X0025900Y0032180D02*
G01X0025900Y0031980D01*
G01X0029300Y0031980D01*
G01X0029300Y0032180D01*
G01X0025900Y0032180D01*
G37*
G36*
G01X0025900Y0036980D02*
G01X0025900Y0036780D01*
G01X0029300Y0036780D01*
G01X0029300Y0036980D01*
G01X0025900Y0036980D01*
G37*
G36*
G01X0025900Y0037380D02*
G01X0025900Y0037180D01*
G01X0029300Y0037180D01*
G01X0029300Y0037380D01*
G01X0025900Y0037380D01*
G37*
G36*
G01X0025900Y0034980D02*
G01X0025900Y0034780D01*
G01X0029300Y0034780D01*
G01X0029300Y0034980D01*
G01X0025900Y0034980D01*
G37*
G36*
G01X0025900Y0035380D02*
G01X0025900Y0035180D01*
G01X0029300Y0035180D01*
G01X0029300Y0035380D01*
G01X0025900Y0035380D01*
G37*
G36*
G01X0025900Y0035780D02*
G01X0025900Y0035580D01*
G01X0029300Y0035580D01*
G01X0029300Y0035780D01*
G01X0025900Y0035780D01*
G37*
G36*
G01X0025900Y0036180D02*
G01X0025900Y0035980D01*
G01X0029300Y0035980D01*
G01X0029300Y0036180D01*
G01X0025900Y0036180D01*
G37*
G36*
G01X0025900Y0036580D02*
G01X0025900Y0036380D01*
G01X0029300Y0036380D01*
G01X0029300Y0036580D01*
G01X0025900Y0036580D01*
G37*
G36*
G01X0025900Y0041180D02*
G01X0025900Y0039980D01*
G01X0029300Y0039980D01*
G01X0029300Y0041180D01*
G01X0025900Y0041180D01*
G37*
G36*
G01X0025900Y0037780D02*
G01X0025900Y0037580D01*
G01X0029300Y0037580D01*
G01X0029300Y0037780D01*
G01X0025900Y0037780D01*
G37*
G36*
G01X0025900Y0038180D02*
G01X0025900Y0037980D01*
G01X0029300Y0037980D01*
G01X0029300Y0038180D01*
G01X0025900Y0038180D01*
G37*
G36*
G01X0025900Y0038580D02*
G01X0025900Y0038380D01*
G01X0029300Y0038380D01*
G01X0029300Y0038580D01*
G01X0025900Y0038580D01*
G37*
G54D16*
G01X0014100Y0046860D03*
G01X0016500Y0046860D03*
G01X0019300Y0046860D03*
G01X0022600Y0046860D03*
G01X0005800Y0046860D03*
G01X0008600Y0046860D03*
G01X0011000Y0046860D03*
G01X0038900Y0046860D03*
G01X0041400Y0046860D03*
G01X0044800Y0046860D03*
G01X0046400Y0046860D03*
G01X0048600Y0046860D03*
G01X0051100Y0046860D03*
G01X0054300Y0046860D03*
G01X0025800Y0046860D03*
G01X0033800Y0046860D03*
M02*
