G04 start of page 11 for group -4015 idx -4015 *
G04 Title: Heart, toppaste *
G04 Creator: pcb 4.0.2 *
G04 CreationDate: Wed Apr  3 09:48:59 2019 UTC *
G04 For: alez *
G04 Format: Gerber/RS-274X *
G04 PCB-Dimensions (mil): 5906.00 5906.00 *
G04 PCB-Coordinate-Origin: lower left *
%MOIN*%
%FSLAX25Y25*%
%LNTOPPASTE*%
%ADD61C,0.0001*%
G54D61*G36*
X259000Y411800D02*Y399800D01*
X293000D01*
Y411800D01*
X259000D01*
G37*
G36*
Y249800D02*Y237800D01*
X293000D01*
Y249800D01*
X259000D01*
G37*
G36*
Y253800D02*Y251800D01*
X293000D01*
Y253800D01*
X259000D01*
G37*
G36*
Y257800D02*Y255800D01*
X293000D01*
Y257800D01*
X259000D01*
G37*
G36*
Y261800D02*Y259800D01*
X293000D01*
Y261800D01*
X259000D01*
G37*
G36*
Y265800D02*Y263800D01*
X293000D01*
Y265800D01*
X259000D01*
G37*
G36*
Y269800D02*Y267800D01*
X293000D01*
Y269800D01*
X259000D01*
G37*
G36*
Y273800D02*Y271800D01*
X293000D01*
Y273800D01*
X259000D01*
G37*
G36*
Y277800D02*Y275800D01*
X293000D01*
Y277800D01*
X259000D01*
G37*
G36*
Y281800D02*Y279800D01*
X293000D01*
Y281800D01*
X259000D01*
G37*
G36*
Y285800D02*Y283800D01*
X293000D01*
Y285800D01*
X259000D01*
G37*
G36*
Y289800D02*Y287800D01*
X293000D01*
Y289800D01*
X259000D01*
G37*
G36*
Y293800D02*Y291800D01*
X293000D01*
Y293800D01*
X259000D01*
G37*
G36*
Y297800D02*Y295800D01*
X293000D01*
Y297800D01*
X259000D01*
G37*
G36*
Y301800D02*Y299800D01*
X293000D01*
Y301800D01*
X259000D01*
G37*
G36*
Y305800D02*Y303800D01*
X293000D01*
Y305800D01*
X259000D01*
G37*
G36*
Y309800D02*Y307800D01*
X293000D01*
Y309800D01*
X259000D01*
G37*
G36*
Y313800D02*Y311800D01*
X293000D01*
Y313800D01*
X259000D01*
G37*
G36*
Y317800D02*Y315800D01*
X293000D01*
Y317800D01*
X259000D01*
G37*
G36*
Y321800D02*Y319800D01*
X293000D01*
Y321800D01*
X259000D01*
G37*
G36*
Y325800D02*Y323800D01*
X293000D01*
Y325800D01*
X259000D01*
G37*
G36*
Y329800D02*Y327800D01*
X293000D01*
Y329800D01*
X259000D01*
G37*
G36*
Y333800D02*Y331800D01*
X293000D01*
Y333800D01*
X259000D01*
G37*
G36*
Y337800D02*Y335800D01*
X293000D01*
Y337800D01*
X259000D01*
G37*
G36*
Y341800D02*Y339800D01*
X293000D01*
Y341800D01*
X259000D01*
G37*
G36*
Y345800D02*Y343800D01*
X293000D01*
Y345800D01*
X259000D01*
G37*
G36*
Y349800D02*Y347800D01*
X293000D01*
Y349800D01*
X259000D01*
G37*
G36*
Y353800D02*Y351800D01*
X293000D01*
Y353800D01*
X259000D01*
G37*
G36*
Y357800D02*Y355800D01*
X293000D01*
Y357800D01*
X259000D01*
G37*
G36*
Y361800D02*Y359800D01*
X293000D01*
Y361800D01*
X259000D01*
G37*
G36*
Y365800D02*Y363800D01*
X293000D01*
Y365800D01*
X259000D01*
G37*
G36*
Y369800D02*Y367800D01*
X293000D01*
Y369800D01*
X259000D01*
G37*
G36*
Y373800D02*Y371800D01*
X293000D01*
Y373800D01*
X259000D01*
G37*
G36*
Y377800D02*Y375800D01*
X293000D01*
Y377800D01*
X259000D01*
G37*
G36*
Y381800D02*Y379800D01*
X293000D01*
Y381800D01*
X259000D01*
G37*
G36*
Y385800D02*Y383800D01*
X293000D01*
Y385800D01*
X259000D01*
G37*
G36*
Y389800D02*Y387800D01*
X293000D01*
Y389800D01*
X259000D01*
G37*
G36*
Y393800D02*Y391800D01*
X293000D01*
Y393800D01*
X259000D01*
G37*
G36*
Y397800D02*Y395800D01*
X293000D01*
Y397800D01*
X259000D01*
G37*
M02*
