G04 start of page 8 for group -3984 idx -3984 *
G04 Title: Stand-2 for heart, fab *
G04 Creator: pcb 4.0.2 *
G04 CreationDate: Fri Apr  5 19:32:28 2019 UTC *
G04 For: alez *
G04 Format: Gerber/RS-274X *
G04 PCB-Dimensions (mil): 3937.01 2992.13 *
G04 PCB-Coordinate-Origin: lower left *
%MOIN*%
%FSLAX25Y25*%
%LNFAB*%
%ADD26C,0.0100*%
%ADD25C,0.0075*%
%ADD24C,0.0060*%
%ADD23C,0.0001*%
%ADD22R,0.0080X0.0080*%
G54D22*X194092Y250415D02*Y248815D01*
G54D23*G36*
X193546Y250562D02*X195626Y251761D01*
X196025Y251068D01*
X193946Y249869D01*
X193546Y250562D01*
G37*
G36*
X194239Y249869D02*X192159Y251068D01*
X192559Y251761D01*
X194639Y250562D01*
X194239Y249869D01*
G37*
G54D22*X194092Y211045D02*Y209445D01*
G54D23*G36*
X193546Y211191D02*X195626Y212391D01*
X196025Y211698D01*
X193946Y210499D01*
X193546Y211191D01*
G37*
G36*
X194239Y210499D02*X192159Y211698D01*
X192559Y212391D01*
X194639Y211191D01*
X194239Y210499D01*
G37*
G54D22*X194092Y171675D02*Y170075D01*
G54D23*G36*
X193546Y171821D02*X195626Y173021D01*
X196025Y172328D01*
X193946Y171128D01*
X193546Y171821D01*
G37*
G36*
X194239Y171128D02*X192159Y172328D01*
X192559Y173021D01*
X194639Y171821D01*
X194239Y171128D01*
G37*
G54D22*X194092Y132305D02*Y130705D01*
G54D23*G36*
X193546Y132451D02*X195626Y133651D01*
X196025Y132958D01*
X193946Y131758D01*
X193546Y132451D01*
G37*
G36*
X194239Y131758D02*X192159Y132958D01*
X192559Y133651D01*
X194639Y132451D01*
X194239Y131758D01*
G37*
G54D22*X194092Y92935D02*Y91335D01*
G54D23*G36*
X193546Y93081D02*X195626Y94281D01*
X196025Y93588D01*
X193946Y92388D01*
X193546Y93081D01*
G37*
G36*
X194239Y92388D02*X192159Y93588D01*
X192559Y94281D01*
X194639Y93081D01*
X194239Y92388D01*
G37*
G54D22*X194092Y53565D02*Y51965D01*
G54D23*G36*
X193546Y53711D02*X195626Y54911D01*
X196025Y54218D01*
X193946Y53018D01*
X193546Y53711D01*
G37*
G36*
X194239Y53018D02*X192159Y54218D01*
X192559Y54911D01*
X194639Y53711D01*
X194239Y53018D01*
G37*
G54D22*X194092Y14194D02*Y12594D01*
G54D23*G36*
X193546Y14341D02*X195626Y15541D01*
X196025Y14848D01*
X193946Y13648D01*
X193546Y14341D01*
G37*
G36*
X194239Y13648D02*X192159Y14848D01*
X192559Y15541D01*
X194639Y14341D01*
X194239Y13648D01*
G37*
G54D22*X15000Y355463D02*Y353863D01*
G54D23*G36*
X14454Y355609D02*X16533Y356809D01*
X16933Y356116D01*
X14853Y354916D01*
X14454Y355609D01*
G37*
G36*
X15147Y354916D02*X13067Y356116D01*
X13467Y356809D01*
X15546Y355609D01*
X15147Y354916D01*
G37*
G54D24*X135000Y357713D02*X136500Y354713D01*
X138000Y357713D01*
X136500Y354713D02*Y351713D01*
X139800Y355013D02*X142050D01*
X139800Y351713D02*X142800D01*
X139800Y357713D02*Y351713D01*
Y357713D02*X142800D01*
X147600D02*X148350Y356963D01*
X145350Y357713D02*X147600D01*
X144600Y356963D02*X145350Y357713D01*
X144600Y356963D02*Y355463D01*
X145350Y354713D01*
X147600D01*
X148350Y353963D01*
Y352463D01*
X147600Y351713D02*X148350Y352463D01*
X145350Y351713D02*X147600D01*
X144600Y352463D02*X145350Y351713D01*
X98750D02*X101750Y357713D01*
X98000D02*X101750D01*
X45000Y352463D02*X45750Y351713D01*
X45000Y356963D02*Y352463D01*
Y356963D02*X45750Y357713D01*
X47250D01*
X48000Y356963D01*
Y352463D01*
X47250Y351713D02*X48000Y352463D01*
X45750Y351713D02*X47250D01*
X45000Y353213D02*X48000Y356213D01*
X49800Y351713D02*X50550D01*
X52350Y352463D02*X53100Y351713D01*
X52350Y356963D02*Y352463D01*
Y356963D02*X53100Y357713D01*
X54600D01*
X55350Y356963D01*
Y352463D01*
X54600Y351713D02*X55350Y352463D01*
X53100Y351713D02*X54600D01*
X52350Y353213D02*X55350Y356213D01*
X57150Y353963D02*X60150Y357713D01*
X57150Y353963D02*X60900D01*
X60150Y357713D02*Y351713D01*
X62700Y352463D02*X63450Y351713D01*
X62700Y356963D02*Y352463D01*
Y356963D02*X63450Y357713D01*
X64950D01*
X65700Y356963D01*
Y352463D01*
X64950Y351713D02*X65700Y352463D01*
X63450Y351713D02*X64950D01*
X62700Y353213D02*X65700Y356213D01*
X3000Y372713D02*X3750Y371963D01*
X750Y372713D02*X3000D01*
X0Y371963D02*X750Y372713D01*
X0Y371963D02*Y370463D01*
X750Y369713D01*
X3000D01*
X3750Y368963D01*
Y367463D01*
X3000Y366713D02*X3750Y367463D01*
X750Y366713D02*X3000D01*
X0Y367463D02*X750Y366713D01*
X5550Y369713D02*Y367463D01*
X6300Y366713D01*
X8550Y369713D02*Y365213D01*
X7800Y364463D02*X8550Y365213D01*
X6300Y364463D02*X7800D01*
X5550Y365213D02*X6300Y364463D01*
Y366713D02*X7800D01*
X8550Y367463D01*
X11100Y368963D02*Y366713D01*
Y368963D02*X11850Y369713D01*
X12600D01*
X13350Y368963D01*
Y366713D01*
Y368963D02*X14100Y369713D01*
X14850D01*
X15600Y368963D01*
Y366713D01*
X10350Y369713D02*X11100Y368963D01*
X17400Y372713D02*Y366713D01*
Y367463D02*X18150Y366713D01*
X19650D01*
X20400Y367463D01*
Y368963D02*Y367463D01*
X19650Y369713D02*X20400Y368963D01*
X18150Y369713D02*X19650D01*
X17400Y368963D02*X18150Y369713D01*
X22200Y368963D02*Y367463D01*
Y368963D02*X22950Y369713D01*
X24450D01*
X25200Y368963D01*
Y367463D01*
X24450Y366713D02*X25200Y367463D01*
X22950Y366713D02*X24450D01*
X22200Y367463D02*X22950Y366713D01*
X27000Y372713D02*Y367463D01*
X27750Y366713D01*
X0Y363463D02*X29250D01*
X41750Y372713D02*Y366713D01*
X43700Y372713D02*X44750Y371663D01*
Y367763D01*
X43700Y366713D02*X44750Y367763D01*
X41000Y366713D02*X43700D01*
X41000Y372713D02*X43700D01*
G54D25*X46550Y371213D02*Y371063D01*
G54D24*Y368963D02*Y366713D01*
X50300Y369713D02*X51050Y368963D01*
X48800Y369713D02*X50300D01*
X48050Y368963D02*X48800Y369713D01*
X48050Y368963D02*Y367463D01*
X48800Y366713D01*
X51050Y369713D02*Y367463D01*
X51800Y366713D01*
X48800D02*X50300D01*
X51050Y367463D01*
X54350Y368963D02*Y366713D01*
Y368963D02*X55100Y369713D01*
X55850D01*
X56600Y368963D01*
Y366713D01*
Y368963D02*X57350Y369713D01*
X58100D01*
X58850Y368963D01*
Y366713D01*
X53600Y369713D02*X54350Y368963D01*
X60650Y366713D02*X61400D01*
X65900Y367463D02*X66650Y366713D01*
X65900Y371963D02*X66650Y372713D01*
X65900Y371963D02*Y367463D01*
X68450Y372713D02*X69950D01*
X69200D02*Y366713D01*
X68450D02*X69950D01*
X72500Y368963D02*Y366713D01*
Y368963D02*X73250Y369713D01*
X74000D01*
X74750Y368963D01*
Y366713D01*
X71750Y369713D02*X72500Y368963D01*
X77300Y369713D02*X79550D01*
X76550Y368963D02*X77300Y369713D01*
X76550Y368963D02*Y367463D01*
X77300Y366713D01*
X79550D01*
X81350Y372713D02*Y366713D01*
Y368963D02*X82100Y369713D01*
X83600D01*
X84350Y368963D01*
Y366713D01*
X86150Y372713D02*X86900Y371963D01*
Y367463D01*
X86150Y366713D02*X86900Y367463D01*
X41000Y363463D02*X88700D01*
X96050Y366713D02*X98000D01*
X95000Y367763D02*X96050Y366713D01*
X95000Y371663D02*Y367763D01*
Y371663D02*X96050Y372713D01*
X98000D01*
X99800Y368963D02*Y367463D01*
Y368963D02*X100550Y369713D01*
X102050D01*
X102800Y368963D01*
Y367463D01*
X102050Y366713D02*X102800Y367463D01*
X100550Y366713D02*X102050D01*
X99800Y367463D02*X100550Y366713D01*
X104600Y369713D02*Y367463D01*
X105350Y366713D01*
X106850D01*
X107600Y367463D01*
Y369713D02*Y367463D01*
X110150Y368963D02*Y366713D01*
Y368963D02*X110900Y369713D01*
X111650D01*
X112400Y368963D01*
Y366713D01*
X109400Y369713D02*X110150Y368963D01*
X114950Y372713D02*Y367463D01*
X115700Y366713D01*
X114200Y370463D02*X115700D01*
X95000Y363463D02*X117200D01*
X130750Y372713D02*Y366713D01*
X130000Y372713D02*X133000D01*
X133750Y371963D01*
Y370463D01*
X133000Y369713D02*X133750Y370463D01*
X130750Y369713D02*X133000D01*
X135550Y372713D02*Y367463D01*
X136300Y366713D01*
X140050Y369713D02*X140800Y368963D01*
X138550Y369713D02*X140050D01*
X137800Y368963D02*X138550Y369713D01*
X137800Y368963D02*Y367463D01*
X138550Y366713D01*
X140800Y369713D02*Y367463D01*
X141550Y366713D01*
X138550D02*X140050D01*
X140800Y367463D01*
X144100Y372713D02*Y367463D01*
X144850Y366713D01*
X143350Y370463D02*X144850D01*
X147100Y366713D02*X149350D01*
X146350Y367463D02*X147100Y366713D01*
X146350Y368963D02*Y367463D01*
Y368963D02*X147100Y369713D01*
X148600D01*
X149350Y368963D01*
X146350Y368213D02*X149350D01*
Y368963D02*Y368213D01*
X154150Y372713D02*Y366713D01*
X153400D02*X154150Y367463D01*
X151900Y366713D02*X153400D01*
X151150Y367463D02*X151900Y366713D01*
X151150Y368963D02*Y367463D01*
Y368963D02*X151900Y369713D01*
X153400D01*
X154150Y368963D01*
X157450Y369713D02*Y368963D01*
Y367463D02*Y366713D01*
X155950Y371963D02*Y371213D01*
Y371963D02*X156700Y372713D01*
X158200D01*
X158950Y371963D01*
Y371213D01*
X157450Y369713D02*X158950Y371213D01*
X130000Y363463D02*X160750D01*
X0Y387713D02*X3000D01*
X1500D02*Y381713D01*
X4800Y387713D02*Y381713D01*
Y383963D02*X5550Y384713D01*
X7050D01*
X7800Y383963D01*
Y381713D01*
X10350D02*X12600D01*
X9600Y382463D02*X10350Y381713D01*
X9600Y383963D02*Y382463D01*
Y383963D02*X10350Y384713D01*
X11850D01*
X12600Y383963D01*
X9600Y383213D02*X12600D01*
Y383963D02*Y383213D01*
X15150Y383963D02*Y381713D01*
Y383963D02*X15900Y384713D01*
X17400D01*
X14400D02*X15150Y383963D01*
X19950Y381713D02*X22200D01*
X19200Y382463D02*X19950Y381713D01*
X19200Y383963D02*Y382463D01*
Y383963D02*X19950Y384713D01*
X21450D01*
X22200Y383963D01*
X19200Y383213D02*X22200D01*
Y383963D02*Y383213D01*
X28950Y384713D02*X29700Y383963D01*
X27450Y384713D02*X28950D01*
X26700Y383963D02*X27450Y384713D01*
X26700Y383963D02*Y382463D01*
X27450Y381713D01*
X29700Y384713D02*Y382463D01*
X30450Y381713D01*
X27450D02*X28950D01*
X29700Y382463D01*
X33000Y383963D02*Y381713D01*
Y383963D02*X33750Y384713D01*
X35250D01*
X32250D02*X33000Y383963D01*
X37800Y381713D02*X40050D01*
X37050Y382463D02*X37800Y381713D01*
X37050Y383963D02*Y382463D01*
Y383963D02*X37800Y384713D01*
X39300D01*
X40050Y383963D01*
X37050Y383213D02*X40050D01*
Y383963D02*Y383213D01*
X44550Y386513D02*X45750Y387713D01*
Y381713D01*
X44550D02*X46800D01*
X54300Y387713D02*Y381713D01*
X53550D02*X54300Y382463D01*
X52050Y381713D02*X53550D01*
X51300Y382463D02*X52050Y381713D01*
X51300Y383963D02*Y382463D01*
Y383963D02*X52050Y384713D01*
X53550D01*
X54300Y383963D01*
G54D25*X56100Y386213D02*Y386063D01*
G54D24*Y383963D02*Y381713D01*
X58350Y386963D02*Y381713D01*
Y386963D02*X59100Y387713D01*
X59850D01*
X57600Y384713D02*X59100D01*
X62100Y386963D02*Y381713D01*
Y386963D02*X62850Y387713D01*
X63600D01*
X61350Y384713D02*X62850D01*
X65850Y381713D02*X68100D01*
X65100Y382463D02*X65850Y381713D01*
X65100Y383963D02*Y382463D01*
Y383963D02*X65850Y384713D01*
X67350D01*
X68100Y383963D01*
X65100Y383213D02*X68100D01*
Y383963D02*Y383213D01*
X70650Y383963D02*Y381713D01*
Y383963D02*X71400Y384713D01*
X72900D01*
X69900D02*X70650Y383963D01*
X75450Y381713D02*X77700D01*
X74700Y382463D02*X75450Y381713D01*
X74700Y383963D02*Y382463D01*
Y383963D02*X75450Y384713D01*
X76950D01*
X77700Y383963D01*
X74700Y383213D02*X77700D01*
Y383963D02*Y383213D01*
X80250Y383963D02*Y381713D01*
Y383963D02*X81000Y384713D01*
X81750D01*
X82500Y383963D01*
Y381713D01*
X79500Y384713D02*X80250Y383963D01*
X85050Y387713D02*Y382463D01*
X85800Y381713D01*
X84300Y385463D02*X85800D01*
X93000Y387713D02*Y381713D01*
X92250D02*X93000Y382463D01*
X90750Y381713D02*X92250D01*
X90000Y382463D02*X90750Y381713D01*
X90000Y383963D02*Y382463D01*
Y383963D02*X90750Y384713D01*
X92250D01*
X93000Y383963D01*
X95550D02*Y381713D01*
Y383963D02*X96300Y384713D01*
X97800D01*
X94800D02*X95550Y383963D01*
G54D25*X99600Y386213D02*Y386063D01*
G54D24*Y383963D02*Y381713D01*
X101100Y387713D02*Y382463D01*
X101850Y381713D01*
X103350Y387713D02*Y382463D01*
X104100Y381713D01*
X109050D02*X111300D01*
X112050Y382463D01*
X111300Y383213D02*X112050Y382463D01*
X109050Y383213D02*X111300D01*
X108300Y383963D02*X109050Y383213D01*
X108300Y383963D02*X109050Y384713D01*
X111300D01*
X112050Y383963D01*
X108300Y382463D02*X109050Y381713D01*
G54D25*X113850Y386213D02*Y386063D01*
G54D24*Y383963D02*Y381713D01*
X115350Y384713D02*X118350D01*
X115350Y381713D02*X118350Y384713D01*
X115350Y381713D02*X118350D01*
X120900D02*X123150D01*
X120150Y382463D02*X120900Y381713D01*
X120150Y383963D02*Y382463D01*
Y383963D02*X120900Y384713D01*
X122400D01*
X123150Y383963D01*
X120150Y383213D02*X123150D01*
Y383963D02*Y383213D01*
X125700Y381713D02*X127950D01*
X128700Y382463D01*
X127950Y383213D02*X128700Y382463D01*
X125700Y383213D02*X127950D01*
X124950Y383963D02*X125700Y383213D01*
X124950Y383963D02*X125700Y384713D01*
X127950D01*
X128700Y383963D01*
X124950Y382463D02*X125700Y381713D01*
X133200Y384713D02*Y382463D01*
X133950Y381713D01*
X135450D01*
X136200Y382463D01*
Y384713D02*Y382463D01*
X138750Y381713D02*X141000D01*
X141750Y382463D01*
X141000Y383213D02*X141750Y382463D01*
X138750Y383213D02*X141000D01*
X138000Y383963D02*X138750Y383213D01*
X138000Y383963D02*X138750Y384713D01*
X141000D01*
X141750Y383963D01*
X138000Y382463D02*X138750Y381713D01*
X144300D02*X146550D01*
X143550Y382463D02*X144300Y381713D01*
X143550Y383963D02*Y382463D01*
Y383963D02*X144300Y384713D01*
X145800D01*
X146550Y383963D01*
X143550Y383213D02*X146550D01*
Y383963D02*Y383213D01*
X151350Y387713D02*Y381713D01*
X150600D02*X151350Y382463D01*
X149100Y381713D02*X150600D01*
X148350Y382463D02*X149100Y381713D01*
X148350Y383963D02*Y382463D01*
Y383963D02*X149100Y384713D01*
X150600D01*
X151350Y383963D01*
G54D25*X155850Y386213D02*Y386063D01*
G54D24*Y383963D02*Y381713D01*
X158100Y383963D02*Y381713D01*
Y383963D02*X158850Y384713D01*
X159600D01*
X160350Y383963D01*
Y381713D01*
X157350Y384713D02*X158100Y383963D01*
X165600Y387713D02*Y382463D01*
X166350Y381713D01*
X164850Y385463D02*X166350D01*
X167850Y387713D02*Y381713D01*
Y383963D02*X168600Y384713D01*
X170100D01*
X170850Y383963D01*
Y381713D01*
G54D25*X172650Y386213D02*Y386063D01*
G54D24*Y383963D02*Y381713D01*
X174900D02*X177150D01*
X177900Y382463D01*
X177150Y383213D02*X177900Y382463D01*
X174900Y383213D02*X177150D01*
X174150Y383963D02*X174900Y383213D01*
X174150Y383963D02*X174900Y384713D01*
X177150D01*
X177900Y383963D01*
X174150Y382463D02*X174900Y381713D01*
X182400Y387713D02*Y382463D01*
X183150Y381713D01*
X186900Y384713D02*X187650Y383963D01*
X185400Y384713D02*X186900D01*
X184650Y383963D02*X185400Y384713D01*
X184650Y383963D02*Y382463D01*
X185400Y381713D01*
X187650Y384713D02*Y382463D01*
X188400Y381713D01*
X185400D02*X186900D01*
X187650Y382463D01*
X190200Y384713D02*Y382463D01*
X190950Y381713D01*
X193200Y384713D02*Y380213D01*
X192450Y379463D02*X193200Y380213D01*
X190950Y379463D02*X192450D01*
X190200Y380213D02*X190950Y379463D01*
Y381713D02*X192450D01*
X193200Y382463D01*
X195000Y383963D02*Y382463D01*
Y383963D02*X195750Y384713D01*
X197250D01*
X198000Y383963D01*
Y382463D01*
X197250Y381713D02*X198000Y382463D01*
X195750Y381713D02*X197250D01*
X195000Y382463D02*X195750Y381713D01*
X199800Y384713D02*Y382463D01*
X200550Y381713D01*
X202050D01*
X202800Y382463D01*
Y384713D02*Y382463D01*
X205350Y387713D02*Y382463D01*
X206100Y381713D01*
X204600Y385463D02*X206100D01*
X207600Y380213D02*X209100Y381713D01*
X214350D02*X217350Y387713D01*
X213600D02*X217350D01*
X221850D02*Y381713D01*
Y383963D02*X222600Y384713D01*
X224100D01*
X224850Y383963D01*
Y381713D01*
X226650Y383963D02*Y382463D01*
Y383963D02*X227400Y384713D01*
X228900D01*
X229650Y383963D01*
Y382463D01*
X228900Y381713D02*X229650Y382463D01*
X227400Y381713D02*X228900D01*
X226650Y382463D02*X227400Y381713D01*
X231450Y387713D02*Y382463D01*
X232200Y381713D01*
X234450D02*X236700D01*
X233700Y382463D02*X234450Y381713D01*
X233700Y383963D02*Y382463D01*
Y383963D02*X234450Y384713D01*
X235950D01*
X236700Y383963D01*
X233700Y383213D02*X236700D01*
Y383963D02*Y383213D01*
X239250Y381713D02*X241500D01*
X242250Y382463D01*
X241500Y383213D02*X242250Y382463D01*
X239250Y383213D02*X241500D01*
X238500Y383963D02*X239250Y383213D01*
X238500Y383963D02*X239250Y384713D01*
X241500D01*
X242250Y383963D01*
X238500Y382463D02*X239250Y381713D01*
X247500Y387713D02*Y382463D01*
X248250Y381713D01*
X246750Y385463D02*X248250D01*
X249750Y383963D02*Y382463D01*
Y383963D02*X250500Y384713D01*
X252000D01*
X252750Y383963D01*
Y382463D01*
X252000Y381713D02*X252750Y382463D01*
X250500Y381713D02*X252000D01*
X249750Y382463D02*X250500Y381713D01*
X255300Y387713D02*Y382463D01*
X256050Y381713D01*
X254550Y385463D02*X256050D01*
X259800Y384713D02*X260550Y383963D01*
X258300Y384713D02*X259800D01*
X257550Y383963D02*X258300Y384713D01*
X257550Y383963D02*Y382463D01*
X258300Y381713D01*
X260550Y384713D02*Y382463D01*
X261300Y381713D01*
X258300D02*X259800D01*
X260550Y382463D01*
X263100Y387713D02*Y382463D01*
X263850Y381713D01*
G54D26*X1179Y2383D02*X387006D01*
X1179D02*X2360Y5533D01*
X12596Y36635D01*
X13777Y39785D01*
X14959Y42935D01*
X25982Y73644D01*
X27163Y76793D01*
X28344Y79943D01*
X40549Y110257D01*
X41730Y113407D01*
X42911Y116557D01*
X55903Y146478D01*
X57478Y149233D01*
X58659Y152383D01*
X73226Y181911D01*
X74801Y184667D01*
X76376Y187817D01*
X92911Y216163D01*
X94486Y218919D01*
X96455Y221675D01*
X115352Y248447D01*
X117321Y250809D01*
X119683Y253565D01*
X131100Y266163D01*
X142518Y276793D01*
X144880Y278762D01*
X148029Y280730D01*
X162596Y289785D01*
X177163Y295297D01*
X179919Y296085D01*
X183069Y296872D01*
X199210Y297659D01*
X215352Y294116D01*
X218502Y292935D01*
X221258Y291754D01*
X235037Y284274D01*
X248423Y274037D01*
X251179Y271675D01*
X253541Y269707D01*
X275195Y245297D01*
X277557Y242541D01*
X279525Y239785D01*
X297636Y212620D01*
X299210Y209470D01*
X300785Y207108D01*
X316927Y178368D01*
X318502Y175218D01*
X319683Y172463D01*
X333856Y142935D01*
X335037Y139785D01*
X336612Y136635D01*
X349210Y106714D01*
X350392Y103565D01*
X351573Y100415D01*
X363384Y69707D01*
X364565Y66557D01*
X365746Y63801D01*
X376770Y32698D01*
X377951Y29548D01*
X378738Y27187D01*
X386218Y4746D01*
X387006Y2383D01*
G54D24*X110525Y-9500D02*X113525D01*
X114275Y-8750D01*
Y-6950D02*Y-8750D01*
X113525Y-6200D02*X114275Y-6950D01*
X111275Y-6200D02*X113525D01*
X111275Y-3500D02*Y-9500D01*
X110525Y-3500D02*X113525D01*
X114275Y-4250D01*
Y-5450D01*
X113525Y-6200D02*X114275Y-5450D01*
X116075Y-7250D02*Y-8750D01*
Y-7250D02*X116825Y-6500D01*
X118325D01*
X119075Y-7250D01*
Y-8750D01*
X118325Y-9500D02*X119075Y-8750D01*
X116825Y-9500D02*X118325D01*
X116075Y-8750D02*X116825Y-9500D01*
X123125Y-6500D02*X123875Y-7250D01*
X121625Y-6500D02*X123125D01*
X120875Y-7250D02*X121625Y-6500D01*
X120875Y-7250D02*Y-8750D01*
X121625Y-9500D01*
X123875Y-6500D02*Y-8750D01*
X124625Y-9500D01*
X121625D02*X123125D01*
X123875Y-8750D01*
X127175Y-7250D02*Y-9500D01*
Y-7250D02*X127925Y-6500D01*
X129425D01*
X126425D02*X127175Y-7250D01*
X134225Y-3500D02*Y-9500D01*
X133475D02*X134225Y-8750D01*
X131975Y-9500D02*X133475D01*
X131225Y-8750D02*X131975Y-9500D01*
X131225Y-7250D02*Y-8750D01*
Y-7250D02*X131975Y-6500D01*
X133475D01*
X134225Y-7250D01*
X138725D02*Y-8750D01*
Y-7250D02*X139475Y-6500D01*
X140975D01*
X141725Y-7250D01*
Y-8750D01*
X140975Y-9500D02*X141725Y-8750D01*
X139475Y-9500D02*X140975D01*
X138725Y-8750D02*X139475Y-9500D01*
X143525Y-6500D02*Y-8750D01*
X144275Y-9500D01*
X145775D01*
X146525Y-8750D01*
Y-6500D02*Y-8750D01*
X149075Y-3500D02*Y-8750D01*
X149825Y-9500D01*
X148325Y-5750D02*X149825D01*
X151325Y-3500D02*Y-8750D01*
X152075Y-9500D01*
G54D25*X153575Y-5000D02*Y-5150D01*
G54D24*Y-7250D02*Y-9500D01*
X155825Y-7250D02*Y-9500D01*
Y-7250D02*X156575Y-6500D01*
X157325D01*
X158075Y-7250D01*
Y-9500D01*
X155075Y-6500D02*X155825Y-7250D01*
X160625Y-9500D02*X162875D01*
X159875Y-8750D02*X160625Y-9500D01*
X159875Y-7250D02*Y-8750D01*
Y-7250D02*X160625Y-6500D01*
X162125D01*
X162875Y-7250D01*
X159875Y-8000D02*X162875D01*
Y-7250D02*Y-8000D01*
G54D25*X167375Y-5000D02*Y-5150D01*
G54D24*Y-7250D02*Y-9500D01*
X169625D02*X171875D01*
X172625Y-8750D01*
X171875Y-8000D02*X172625Y-8750D01*
X169625Y-8000D02*X171875D01*
X168875Y-7250D02*X169625Y-8000D01*
X168875Y-7250D02*X169625Y-6500D01*
X171875D01*
X172625Y-7250D01*
X168875Y-8750D02*X169625Y-9500D01*
X177875Y-3500D02*Y-8750D01*
X178625Y-9500D01*
X177125Y-5750D02*X178625D01*
X180125Y-3500D02*Y-9500D01*
Y-7250D02*X180875Y-6500D01*
X182375D01*
X183125Y-7250D01*
Y-9500D01*
X185675D02*X187925D01*
X184925Y-8750D02*X185675Y-9500D01*
X184925Y-7250D02*Y-8750D01*
Y-7250D02*X185675Y-6500D01*
X187175D01*
X187925Y-7250D01*
X184925Y-8000D02*X187925D01*
Y-7250D02*Y-8000D01*
X193175Y-6500D02*X195425D01*
X192425Y-7250D02*X193175Y-6500D01*
X192425Y-7250D02*Y-8750D01*
X193175Y-9500D01*
X195425D01*
X197975D02*X200225D01*
X197225Y-8750D02*X197975Y-9500D01*
X197225Y-7250D02*Y-8750D01*
Y-7250D02*X197975Y-6500D01*
X199475D01*
X200225Y-7250D01*
X197225Y-8000D02*X200225D01*
Y-7250D02*Y-8000D01*
X202775Y-7250D02*Y-9500D01*
Y-7250D02*X203525Y-6500D01*
X204275D01*
X205025Y-7250D01*
Y-9500D01*
X202025Y-6500D02*X202775Y-7250D01*
X207575Y-3500D02*Y-8750D01*
X208325Y-9500D01*
X206825Y-5750D02*X208325D01*
X210575Y-9500D02*X212825D01*
X209825Y-8750D02*X210575Y-9500D01*
X209825Y-7250D02*Y-8750D01*
Y-7250D02*X210575Y-6500D01*
X212075D01*
X212825Y-7250D01*
X209825Y-8000D02*X212825D01*
Y-7250D02*Y-8000D01*
X215375Y-7250D02*Y-9500D01*
Y-7250D02*X216125Y-6500D01*
X217625D01*
X214625D02*X215375Y-7250D01*
X219425Y-3500D02*Y-8750D01*
X220175Y-9500D01*
G54D25*X221675Y-5000D02*Y-5150D01*
G54D24*Y-7250D02*Y-9500D01*
X223925Y-7250D02*Y-9500D01*
Y-7250D02*X224675Y-6500D01*
X225425D01*
X226175Y-7250D01*
Y-9500D01*
X223175Y-6500D02*X223925Y-7250D01*
X228725Y-9500D02*X230975D01*
X227975Y-8750D02*X228725Y-9500D01*
X227975Y-7250D02*Y-8750D01*
Y-7250D02*X228725Y-6500D01*
X230225D01*
X230975Y-7250D01*
X227975Y-8000D02*X230975D01*
Y-7250D02*Y-8000D01*
X235475Y-7250D02*Y-8750D01*
Y-7250D02*X236225Y-6500D01*
X237725D01*
X238475Y-7250D01*
Y-8750D01*
X237725Y-9500D02*X238475Y-8750D01*
X236225Y-9500D02*X237725D01*
X235475Y-8750D02*X236225Y-9500D01*
X241025Y-4250D02*Y-9500D01*
Y-4250D02*X241775Y-3500D01*
X242525D01*
X240275Y-6500D02*X241775D01*
X247475Y-3500D02*Y-8750D01*
X248225Y-9500D01*
X246725Y-5750D02*X248225D01*
X249725Y-3500D02*Y-9500D01*
Y-7250D02*X250475Y-6500D01*
X251975D01*
X252725Y-7250D01*
Y-9500D01*
G54D25*X254525Y-5000D02*Y-5150D01*
G54D24*Y-7250D02*Y-9500D01*
X256775D02*X259025D01*
X259775Y-8750D01*
X259025Y-8000D02*X259775Y-8750D01*
X256775Y-8000D02*X259025D01*
X256025Y-7250D02*X256775Y-8000D01*
X256025Y-7250D02*X256775Y-6500D01*
X259025D01*
X259775Y-7250D01*
X256025Y-8750D02*X256775Y-9500D01*
X265025Y-7250D02*Y-11750D01*
X264275Y-6500D02*X265025Y-7250D01*
X265775Y-6500D01*
X267275D01*
X268025Y-7250D01*
Y-8750D01*
X267275Y-9500D02*X268025Y-8750D01*
X265775Y-9500D02*X267275D01*
X265025Y-8750D02*X265775Y-9500D01*
X272075Y-6500D02*X272825Y-7250D01*
X270575Y-6500D02*X272075D01*
X269825Y-7250D02*X270575Y-6500D01*
X269825Y-7250D02*Y-8750D01*
X270575Y-9500D01*
X272825Y-6500D02*Y-8750D01*
X273575Y-9500D01*
X270575D02*X272075D01*
X272825Y-8750D01*
X276125Y-3500D02*Y-8750D01*
X276875Y-9500D01*
X275375Y-5750D02*X276875D01*
X278376Y-3500D02*Y-9500D01*
Y-7250D02*X279126Y-6500D01*
X280626D01*
X281376Y-7250D01*
Y-9500D01*
X200750Y327713D02*Y321713D01*
X202700Y327713D02*X203750Y326663D01*
Y322763D01*
X202700Y321713D02*X203750Y322763D01*
X200000Y321713D02*X202700D01*
X200000Y327713D02*X202700D01*
X207800Y324713D02*X208550Y323963D01*
X206300Y324713D02*X207800D01*
X205550Y323963D02*X206300Y324713D01*
X205550Y323963D02*Y322463D01*
X206300Y321713D01*
X208550Y324713D02*Y322463D01*
X209300Y321713D01*
X206300D02*X207800D01*
X208550Y322463D01*
X211850Y327713D02*Y322463D01*
X212600Y321713D01*
X211100Y325463D02*X212600D01*
X214850Y321713D02*X217100D01*
X214100Y322463D02*X214850Y321713D01*
X214100Y323963D02*Y322463D01*
Y323963D02*X214850Y324713D01*
X216350D01*
X217100Y323963D01*
X214100Y323213D02*X217100D01*
Y323963D02*Y323213D01*
X218900Y325463D02*X219650D01*
X218900Y323963D02*X219650D01*
X224150Y327713D02*Y321713D01*
Y327713D02*X227150D01*
X224150Y325013D02*X226400D01*
X229700Y323963D02*Y321713D01*
Y323963D02*X230450Y324713D01*
X231950D01*
X228950D02*X229700Y323963D01*
G54D25*X233750Y326213D02*Y326063D01*
G54D24*Y323963D02*Y321713D01*
X237950Y326213D02*Y321713D01*
Y326213D02*X239000Y327713D01*
X240650D01*
X241700Y326213D01*
Y321713D01*
X237950Y324713D02*X241700D01*
X244250Y323963D02*Y319463D01*
X243500Y324713D02*X244250Y323963D01*
X245000Y324713D01*
X246500D01*
X247250Y323963D01*
Y322463D01*
X246500Y321713D02*X247250Y322463D01*
X245000Y321713D02*X246500D01*
X244250Y322463D02*X245000Y321713D01*
X249800Y323963D02*Y321713D01*
Y323963D02*X250550Y324713D01*
X252050D01*
X249050D02*X249800Y323963D01*
X259250Y327713D02*X262250D01*
X259250D02*Y324713D01*
X260000Y325463D01*
X261500D01*
X262250Y324713D01*
Y322463D01*
X261500Y321713D02*X262250Y322463D01*
X260000Y321713D02*X261500D01*
X259250Y322463D02*X260000Y321713D01*
X266750Y326513D02*X267950Y327713D01*
Y321713D01*
X266750D02*X269000D01*
X271550D02*X273800Y324713D01*
Y326963D02*Y324713D01*
X273050Y327713D02*X273800Y326963D01*
X271550Y327713D02*X273050D01*
X270800Y326963D02*X271550Y327713D01*
X270800Y326963D02*Y325463D01*
X271550Y324713D01*
X273800D01*
X275600Y325463D02*X276350D01*
X275600Y323963D02*X276350D01*
X278150Y326963D02*X278900Y327713D01*
X280400D01*
X281150Y326963D01*
X280400Y321713D02*X281150Y322463D01*
X278900Y321713D02*X280400D01*
X278150Y322463D02*X278900Y321713D01*
Y325013D02*X280400D01*
X281150Y326963D02*Y325763D01*
Y324263D02*Y322463D01*
Y324263D02*X280400Y325013D01*
X281150Y325763D02*X280400Y325013D01*
X282950Y326963D02*X283700Y327713D01*
X285950D01*
X286700Y326963D01*
Y325463D01*
X282950Y321713D02*X286700Y325463D01*
X282950Y321713D02*X286700D01*
X288500Y325463D02*X289250D01*
X288500Y323963D02*X289250D01*
X291050Y326963D02*X291800Y327713D01*
X294050D01*
X294800Y326963D01*
Y325463D01*
X291050Y321713D02*X294800Y325463D01*
X291050Y321713D02*X294800D01*
X296600Y322463D02*X297350Y321713D01*
X296600Y323663D02*Y322463D01*
Y323663D02*X297650Y324713D01*
X298550D01*
X299600Y323663D01*
Y322463D01*
X298850Y321713D02*X299600Y322463D01*
X297350Y321713D02*X298850D01*
X296600Y325763D02*X297650Y324713D01*
X296600Y326963D02*Y325763D01*
Y326963D02*X297350Y327713D01*
X298850D01*
X299600Y326963D01*
Y325763D01*
X298550Y324713D02*X299600Y325763D01*
X304100Y326963D02*X304850Y327713D01*
X307100D01*
X307850Y326963D01*
Y325463D01*
X304100Y321713D02*X307850Y325463D01*
X304100Y321713D02*X307850D01*
X309650Y322463D02*X310400Y321713D01*
X309650Y326963D02*Y322463D01*
Y326963D02*X310400Y327713D01*
X311900D01*
X312650Y326963D01*
Y322463D01*
X311900Y321713D02*X312650Y322463D01*
X310400Y321713D02*X311900D01*
X309650Y323213D02*X312650Y326213D01*
X314450Y326513D02*X315650Y327713D01*
Y321713D01*
X314450D02*X316700D01*
X319250D02*X321500Y324713D01*
Y326963D02*Y324713D01*
X320750Y327713D02*X321500Y326963D01*
X319250Y327713D02*X320750D01*
X318500Y326963D02*X319250Y327713D01*
X318500Y326963D02*Y325463D01*
X319250Y324713D01*
X321500D01*
X326000Y327713D02*Y322463D01*
X326750Y321713D01*
X328250D01*
X329000Y322463D01*
Y327713D02*Y322463D01*
X330800Y327713D02*X333800D01*
X332300D02*Y321713D01*
X336650D02*X338600D01*
X335600Y322763D02*X336650Y321713D01*
X335600Y326663D02*Y322763D01*
Y326663D02*X336650Y327713D01*
X338600D01*
X200000Y341213D02*Y336713D01*
Y341213D02*X201050Y342713D01*
X202700D01*
X203750Y341213D01*
Y336713D01*
X200000Y339713D02*X203750D01*
X205550D02*Y337463D01*
X206300Y336713D01*
X207800D01*
X208550Y337463D01*
Y339713D02*Y337463D01*
X211100Y342713D02*Y337463D01*
X211850Y336713D01*
X210350Y340463D02*X211850D01*
X213350Y342713D02*Y336713D01*
Y338963D02*X214100Y339713D01*
X215600D01*
X216350Y338963D01*
Y336713D01*
X218150Y338963D02*Y337463D01*
Y338963D02*X218900Y339713D01*
X220400D01*
X221150Y338963D01*
Y337463D01*
X220400Y336713D02*X221150Y337463D01*
X218900Y336713D02*X220400D01*
X218150Y337463D02*X218900Y336713D01*
X223700Y338963D02*Y336713D01*
Y338963D02*X224450Y339713D01*
X225950D01*
X222950D02*X223700Y338963D01*
X227750Y340463D02*X228500D01*
X227750Y338963D02*X228500D01*
X235250Y339713D02*X236000Y338963D01*
X233750Y339713D02*X235250D01*
X233000Y338963D02*X233750Y339713D01*
X233000Y338963D02*Y337463D01*
X233750Y336713D01*
X236000Y339713D02*Y337463D01*
X236750Y336713D01*
X233750D02*X235250D01*
X236000Y337463D01*
X238550Y342713D02*Y337463D01*
X239300Y336713D01*
X241550D02*X243800D01*
X240800Y337463D02*X241550Y336713D01*
X240800Y338963D02*Y337463D01*
Y338963D02*X241550Y339713D01*
X243050D01*
X243800Y338963D01*
X240800Y338213D02*X243800D01*
Y338963D02*Y338213D01*
X246350Y336713D02*X248600D01*
X249350Y337463D01*
X248600Y338213D02*X249350Y337463D01*
X246350Y338213D02*X248600D01*
X245600Y338963D02*X246350Y338213D01*
X245600Y338963D02*X246350Y339713D01*
X248600D01*
X249350Y338963D01*
X245600Y337463D02*X246350Y336713D01*
X251900D02*X254150D01*
X254900Y337463D01*
X254150Y338213D02*X254900Y337463D01*
X251900Y338213D02*X254150D01*
X251150Y338963D02*X251900Y338213D01*
X251150Y338963D02*X251900Y339713D01*
X254150D01*
X254900Y338963D01*
X251150Y337463D02*X251900Y336713D01*
X258950Y339713D02*X259700Y338963D01*
X257450Y339713D02*X258950D01*
X256700Y338963D02*X257450Y339713D01*
X256700Y338963D02*Y337463D01*
X257450Y336713D01*
X259700Y339713D02*Y337463D01*
X260450Y336713D01*
X257450D02*X258950D01*
X259700Y337463D01*
X263000Y338963D02*Y336713D01*
Y338963D02*X263750Y339713D01*
X264500D01*
X265250Y338963D01*
Y336713D01*
X262250Y339713D02*X263000Y338963D01*
X270050Y342713D02*Y336713D01*
X269300D02*X270050Y337463D01*
X267800Y336713D02*X269300D01*
X267050Y337463D02*X267800Y336713D01*
X267050Y338963D02*Y337463D01*
Y338963D02*X267800Y339713D01*
X269300D01*
X270050Y338963D01*
X272600D02*Y336713D01*
Y338963D02*X273350Y339713D01*
X274850D01*
X271850D02*X272600Y338963D01*
X276650D02*Y337463D01*
Y338963D02*X277400Y339713D01*
X278900D01*
X279650Y338963D01*
Y337463D01*
X278900Y336713D02*X279650Y337463D01*
X277400Y336713D02*X278900D01*
X276650Y337463D02*X277400Y336713D01*
X200000Y357713D02*X203000D01*
X201500D02*Y351713D01*
G54D25*X204800Y356213D02*Y356063D01*
G54D24*Y353963D02*Y351713D01*
X207050Y357713D02*Y352463D01*
X207800Y351713D01*
X206300Y355463D02*X207800D01*
X209300Y357713D02*Y352463D01*
X210050Y351713D01*
X212300D02*X214550D01*
X211550Y352463D02*X212300Y351713D01*
X211550Y353963D02*Y352463D01*
Y353963D02*X212300Y354713D01*
X213800D01*
X214550Y353963D01*
X211550Y353213D02*X214550D01*
Y353963D02*Y353213D01*
X216350Y355463D02*X217100D01*
X216350Y353963D02*X217100D01*
X224600Y357713D02*X225350Y356963D01*
X222350Y357713D02*X224600D01*
X221600Y356963D02*X222350Y357713D01*
X221600Y356963D02*Y355463D01*
X222350Y354713D01*
X224600D01*
X225350Y353963D01*
Y352463D01*
X224600Y351713D02*X225350Y352463D01*
X222350Y351713D02*X224600D01*
X221600Y352463D02*X222350Y351713D01*
X227900Y357713D02*Y352463D01*
X228650Y351713D01*
X227150Y355463D02*X228650D01*
X232400Y354713D02*X233150Y353963D01*
X230900Y354713D02*X232400D01*
X230150Y353963D02*X230900Y354713D01*
X230150Y353963D02*Y352463D01*
X230900Y351713D01*
X233150Y354713D02*Y352463D01*
X233900Y351713D01*
X230900D02*X232400D01*
X233150Y352463D01*
X236450Y353963D02*Y351713D01*
Y353963D02*X237200Y354713D01*
X237950D01*
X238700Y353963D01*
Y351713D01*
X235700Y354713D02*X236450Y353963D01*
X243500Y357713D02*Y351713D01*
X242750D02*X243500Y352463D01*
X241250Y351713D02*X242750D01*
X240500Y352463D02*X241250Y351713D01*
X240500Y353963D02*Y352463D01*
Y353963D02*X241250Y354713D01*
X242750D01*
X243500Y353963D01*
X245300Y354713D02*X248300D01*
X250100Y356963D02*X250850Y357713D01*
X253100D01*
X253850Y356963D01*
Y355463D01*
X250100Y351713D02*X253850Y355463D01*
X250100Y351713D02*X253850D01*
X259100Y356963D02*Y351713D01*
Y356963D02*X259850Y357713D01*
X260600D01*
X258350Y354713D02*X259850D01*
X262100Y353963D02*Y352463D01*
Y353963D02*X262850Y354713D01*
X264350D01*
X265100Y353963D01*
Y352463D01*
X264350Y351713D02*X265100Y352463D01*
X262850Y351713D02*X264350D01*
X262100Y352463D02*X262850Y351713D01*
X267650Y353963D02*Y351713D01*
Y353963D02*X268400Y354713D01*
X269900D01*
X266900D02*X267650Y353963D01*
X274400Y357713D02*Y351713D01*
Y353963D02*X275150Y354713D01*
X276650D01*
X277400Y353963D01*
Y351713D01*
X279950D02*X282200D01*
X279200Y352463D02*X279950Y351713D01*
X279200Y353963D02*Y352463D01*
Y353963D02*X279950Y354713D01*
X281450D01*
X282200Y353963D01*
X279200Y353213D02*X282200D01*
Y353963D02*Y353213D01*
X286250Y354713D02*X287000Y353963D01*
X284750Y354713D02*X286250D01*
X284000Y353963D02*X284750Y354713D01*
X284000Y353963D02*Y352463D01*
X284750Y351713D01*
X287000Y354713D02*Y352463D01*
X287750Y351713D01*
X284750D02*X286250D01*
X287000Y352463D01*
X290300Y353963D02*Y351713D01*
Y353963D02*X291050Y354713D01*
X292550D01*
X289550D02*X290300Y353963D01*
X295100Y357713D02*Y352463D01*
X295850Y351713D01*
X294350Y355463D02*X295850D01*
X300050Y354713D02*X303050D01*
X307550Y357713D02*Y351713D01*
Y357713D02*X310550D01*
X307550Y355013D02*X309800D01*
X314600Y354713D02*X315350Y353963D01*
X313100Y354713D02*X314600D01*
X312350Y353963D02*X313100Y354713D01*
X312350Y353963D02*Y352463D01*
X313100Y351713D01*
X315350Y354713D02*Y352463D01*
X316100Y351713D01*
X313100D02*X314600D01*
X315350Y352463D01*
X317900Y357713D02*Y351713D01*
Y352463D02*X318650Y351713D01*
X320150D01*
X320900Y352463D01*
Y353963D02*Y352463D01*
X320150Y354713D02*X320900Y353963D01*
X318650Y354713D02*X320150D01*
X317900Y353963D02*X318650Y354713D01*
X323450Y353963D02*Y351713D01*
Y353963D02*X324200Y354713D01*
X325700D01*
X322700D02*X323450Y353963D01*
G54D25*X327500Y356213D02*Y356063D01*
G54D24*Y353963D02*Y351713D01*
X329750Y354713D02*X332000D01*
X329000Y353963D02*X329750Y354713D01*
X329000Y353963D02*Y352463D01*
X329750Y351713D01*
X332000D01*
X336050Y354713D02*X336800Y353963D01*
X334550Y354713D02*X336050D01*
X333800Y353963D02*X334550Y354713D01*
X333800Y353963D02*Y352463D01*
X334550Y351713D01*
X336800Y354713D02*Y352463D01*
X337550Y351713D01*
X334550D02*X336050D01*
X336800Y352463D01*
X340100Y357713D02*Y352463D01*
X340850Y351713D01*
X339350Y355463D02*X340850D01*
G54D25*X342350Y356213D02*Y356063D01*
G54D24*Y353963D02*Y351713D01*
X343850Y353963D02*Y352463D01*
Y353963D02*X344600Y354713D01*
X346100D01*
X346850Y353963D01*
Y352463D01*
X346100Y351713D02*X346850Y352463D01*
X344600Y351713D02*X346100D01*
X343850Y352463D02*X344600Y351713D01*
X349400Y353963D02*Y351713D01*
Y353963D02*X350150Y354713D01*
X350900D01*
X351650Y353963D01*
Y351713D01*
X348650Y354713D02*X349400Y353963D01*
X356900Y357713D02*Y351713D01*
X358850Y357713D02*X359900Y356663D01*
Y352763D01*
X358850Y351713D02*X359900Y352763D01*
X356150Y351713D02*X358850D01*
X356150Y357713D02*X358850D01*
X362450Y353963D02*Y351713D01*
Y353963D02*X363200Y354713D01*
X364700D01*
X361700D02*X362450Y353963D01*
X368750Y354713D02*X369500Y353963D01*
X367250Y354713D02*X368750D01*
X366500Y353963D02*X367250Y354713D01*
X366500Y353963D02*Y352463D01*
X367250Y351713D01*
X369500Y354713D02*Y352463D01*
X370250Y351713D01*
X367250D02*X368750D01*
X369500Y352463D01*
X372050Y354713D02*Y352463D01*
X372800Y351713D01*
X373550D01*
X374300Y352463D01*
Y354713D02*Y352463D01*
X375050Y351713D01*
X375800D01*
X376550Y352463D01*
Y354713D02*Y352463D01*
G54D25*X378350Y356213D02*Y356063D01*
G54D24*Y353963D02*Y351713D01*
X380600Y353963D02*Y351713D01*
Y353963D02*X381350Y354713D01*
X382100D01*
X382850Y353963D01*
Y351713D01*
X379850Y354713D02*X380600Y353963D01*
X386900Y354713D02*X387650Y353963D01*
X385400Y354713D02*X386900D01*
X384650Y353963D02*X385400Y354713D01*
X384650Y353963D02*Y352463D01*
X385400Y351713D01*
X386900D01*
X387650Y352463D01*
X384650Y350213D02*X385400Y349463D01*
X386900D01*
X387650Y350213D01*
Y354713D02*Y350213D01*
M02*
