G04 start of page 3 for group 1 idx 1 *
G04 Title: Stand-2 for heart, bottom *
G04 Creator: pcb 4.0.2 *
G04 CreationDate: Fri Apr  5 19:32:28 2019 UTC *
G04 For: alez *
G04 Format: Gerber/RS-274X *
G04 PCB-Dimensions (mil): 3937.01 2992.13 *
G04 PCB-Coordinate-Origin: lower left *
%MOIN*%
%FSLAX25Y25*%
%LNBOTTOM*%
%ADD17C,0.0400*%
%ADD16C,0.0800*%
%ADD15C,0.0100*%
%ADD14C,0.0001*%
G54D14*G36*
X330470Y24613D02*X330491Y24081D01*
X330248Y23804D01*
X327964D01*
X328078Y24722D01*
X330470D01*
Y24613D01*
G37*
G36*
X334366Y26354D02*X335033Y25856D01*
X335473Y25102D01*
X337251Y22133D01*
X336101D01*
X334360Y24993D01*
X333920Y24167D01*
X334816Y24113D01*
X335341Y23252D01*
X333313D01*
X332640Y22133D01*
X331485D01*
X333811Y26067D01*
X334366Y26354D01*
G37*
G36*
X342460Y26404D02*X343073Y25491D01*
X343893Y22117D01*
X342878D01*
X342346Y24700D01*
X341055Y22259D01*
X340144Y22448D01*
X338971Y24700D01*
X338440Y22117D01*
X337426D01*
X338397Y26073D01*
X339276Y26187D01*
X340659Y23528D01*
X342048Y26187D01*
X342460Y26404D01*
G37*
G36*
X345726Y35409D02*X346079Y35148D01*
X345910Y34741D01*
X341039Y31931D01*
X340556Y32061D01*
X340686Y32550D01*
X345553Y35361D01*
X345726Y35409D01*
G37*
G36*
X344690Y37265D02*X345016Y36987D01*
X344841Y36598D01*
X339970Y33787D01*
X339487Y33917D01*
X339617Y34400D01*
X344483Y37211D01*
X344690Y37265D01*
G37*
G36*
X338543Y22887D02*X338483Y22383D01*
X338218Y22117D01*
X336118D01*
X335706Y23013D01*
X338565D01*
X338543Y22887D01*
G37*
G36*
X335923Y47291D02*X342671Y35620D01*
X341841Y35269D01*
X335825Y45691D01*
X322728Y23013D01*
X333091D01*
X332591Y22117D01*
X321198D01*
X335825Y47459D01*
X335923Y47291D01*
G37*
G36*
X331457Y26235D02*Y22117D01*
X327790D01*
X327899Y23044D01*
X330546D01*
Y25426D01*
X327790D01*
X327899Y26344D01*
X331457D01*
Y26235D01*
G37*
G36*
X324794Y33809D02*X325261Y33900D01*
X330129Y31091D01*
X330286Y30591D01*
X329776Y30478D01*
X324904Y33287D01*
X324794Y33809D01*
G37*
G36*
X327710Y39100D02*X328103D01*
X333220Y36344D01*
Y35557D01*
X327710Y32013D01*
X327316D01*
Y32407D01*
X327710Y38706D01*
Y39100D01*
G37*
G36*
X343676Y33891D02*X350479Y22123D01*
X342916D01*
X342829Y23013D01*
X348921D01*
X342943Y33369D01*
X343631Y33967D01*
X343659Y33917D01*
X343676Y33891D01*
G37*
G54D15*X332607Y41009D02*X325181Y28139D01*
X352213Y14097D02*Y16047D01*
X351563Y16697D01*
X350913D02*X351563D01*
X350913D02*X350263Y16047D01*
Y14097D02*Y16047D01*
X349613Y16697D01*
X348963D02*X349613D01*
X348963D02*X348313Y16047D01*
Y14097D02*Y16047D01*
X352863Y16697D02*X352213Y16047D01*
X344803Y16697D02*X344153Y16047D01*
X344803Y16697D02*X346103D01*
X346753Y16047D02*X346103Y16697D01*
X346753Y14747D02*Y16047D01*
Y14747D02*X346103Y14097D01*
X344153Y14747D02*Y16697D01*
Y14747D02*X343503Y14097D01*
X344803D02*X346103D01*
X344803D02*X344153Y14747D01*
X339343Y14097D02*X341293D01*
X341943Y14747D02*X341293Y14097D01*
X341943Y14747D02*Y16047D01*
X341293Y16697D01*
X339993D02*X341293D01*
X339993D02*X339343Y16047D01*
Y15397D02*X341943D01*
X339343D02*Y16047D01*
X337133Y14747D02*Y19297D01*
Y14747D02*X336483Y14097D01*
Y17347D02*X337783D01*
X332583Y14097D02*X334533D01*
X335183Y14747D02*X334533Y14097D01*
X335183Y14747D02*Y16047D01*
X334533Y16697D01*
X333233D02*X334533D01*
X333233D02*X332583Y16047D01*
Y15397D02*X335183D01*
X332583D02*Y16047D01*
X328423Y16697D02*X330373D01*
X331023Y16047D02*X330373Y16697D01*
X331023Y14747D02*Y16047D01*
Y14747D02*X330373Y14097D01*
X328423D02*X330373D01*
X326863D02*Y19297D01*
Y16047D02*X326213Y16697D01*
X324913D02*X326213D01*
X324913D02*X324263Y16047D01*
Y14097D02*Y16047D01*
X322053Y14097D02*X322703D01*
X320493Y17867D02*Y17997D01*
Y14097D02*Y16047D01*
X318543Y14747D02*Y19297D01*
Y14747D02*X317893Y14097D01*
Y17347D02*X319193D01*
X354396Y50056D02*Y53956D01*
X355046Y54606D02*X354396Y53956D01*
X353746Y54606D01*
X352446D02*X353746D01*
X352446D02*X351796Y53956D01*
Y52656D02*Y53956D01*
X352446Y52006D02*X351796Y52656D01*
X352446Y52006D02*X353746D01*
X354396Y52656D02*X353746Y52006D01*
X350236Y52656D02*Y53956D01*
X349586Y54606D01*
X348286D02*X349586D01*
X348286D02*X347636Y53956D01*
Y52656D02*Y53956D01*
X348286Y52006D02*X347636Y52656D01*
X348286Y52006D02*X349586D01*
X350236Y52656D02*X349586Y52006D01*
X346076Y52656D02*Y54606D01*
Y52656D02*X345426Y52006D01*
X344776D02*X345426D01*
X344776D02*X344126Y52656D01*
Y54606D01*
Y52656D02*X343476Y52006D01*
X342826D02*X343476D01*
X342826D02*X342176Y52656D01*
Y54606D01*
X338016Y52006D02*X339966D01*
X340616Y52656D02*X339966Y52006D01*
X340616Y52656D02*Y53956D01*
X339966Y54606D01*
X338666D02*X339966D01*
X338666D02*X338016Y53956D01*
Y53306D02*X340616D01*
X338016D02*Y53956D01*
X335806Y52006D02*Y53956D01*
X335156Y54606D01*
X333856D02*X335156D01*
X336456D02*X335806Y53956D01*
X329696Y52006D02*X331646D01*
X332296Y52656D02*X331646Y52006D01*
X332296Y52656D02*Y53956D01*
X331646Y54606D01*
X330346D02*X331646D01*
X330346D02*X329696Y53956D01*
Y53306D02*X332296D01*
X329696D02*Y53956D01*
X325536Y52006D02*Y57206D01*
X326186Y52006D02*X325536Y52656D01*
X326186Y52006D02*X327486D01*
X328136Y52656D02*X327486Y52006D01*
X328136Y52656D02*Y53956D01*
X327486Y54606D01*
X326186D02*X327486D01*
X326186D02*X325536Y53956D01*
X321636Y52006D02*Y57206D01*
Y52656D02*X320986Y52006D01*
X319686D02*X320986D01*
X319686D02*X319036Y52656D01*
Y53956D01*
X319686Y54606D02*X319036Y53956D01*
X319686Y54606D02*X320986D01*
X321636Y53956D02*X320986Y54606D01*
X317476Y52656D02*Y54606D01*
Y52656D02*X316826Y52006D01*
X314876Y50706D02*Y54606D01*
X315526Y50056D02*X314876Y50706D01*
X315526Y50056D02*X316826D01*
X317476Y50706D02*X316826Y50056D01*
X315526Y52006D02*X316826D01*
X315526D02*X314876Y52656D01*
G54D16*X194092Y171675D03*
Y211045D03*
Y250415D03*
Y53565D03*
Y14194D03*
Y92935D03*
Y132305D03*
G54D17*M02*
