G04 start of page 4 for group 2 idx 2 *
G04 Title: Stand-2 for heart, outline *
G04 Creator: pcb 4.0.2 *
G04 CreationDate: Fri Apr  5 19:32:28 2019 UTC *
G04 For: alez *
G04 Format: Gerber/RS-274X *
G04 PCB-Dimensions (mil): 3937.01 2992.13 *
G04 PCB-Coordinate-Origin: lower left *
%MOIN*%
%FSLAX25Y25*%
%LNOUTLINE*%
%ADD18C,0.0197*%
G54D18*X76376Y187817D02*X92911Y216163D01*
X94486Y218919D01*
X96455Y221675D01*
X115352Y248447D01*
X117321Y250809D01*
X119683Y253565D01*
X131100Y266163D01*
X142518Y276793D01*
X144880Y278762D01*
X148029Y280730D01*
X162596Y289785D01*
X177163Y295297D01*
X179919Y296085D01*
X183069Y296872D01*
X199210Y297659D01*
X215352Y294116D01*
X218502Y292935D01*
X221258Y291754D01*
X235037Y284274D01*
X248423Y274037D01*
X251179Y271675D01*
X253541Y269707D01*
X275195Y245297D01*
X277557Y242541D01*
X279525Y239785D01*
X297636Y212620D01*
X299210Y209470D01*
X300785Y207108D01*
X316927Y178368D01*
X318502Y175218D01*
X319683Y172463D01*
X333856Y142935D01*
X335037Y139785D01*
X336612Y136635D01*
X1179Y2383D02*X387006D01*
X1179D02*X2360Y5533D01*
X12596Y36635D01*
X13777Y39785D01*
X14959Y42935D01*
X25982Y73644D01*
X27163Y76793D01*
X28344Y79943D01*
X40549Y110257D01*
X41730Y113407D01*
X42911Y116557D01*
X55903Y146478D01*
X57478Y149233D01*
X58659Y152383D01*
X73226Y181911D01*
X74801Y184667D01*
X76376Y187817D01*
X336612Y136635D02*X349210Y106714D01*
X350392Y103565D01*
X351573Y100415D01*
X363384Y69707D01*
X364565Y66557D01*
X365746Y63801D01*
X376770Y32698D01*
X377951Y29548D01*
X378738Y27187D01*
X386218Y4746D01*
X387006Y2383D01*
M02*
